G75*
%MOIN*%
%OFA0B0*%
%FSLAX25Y25*%
%IPPOS*%
%LPD*%
%AMOC8*
5,1,8,0,0,1.08239X$1,22.5*
%
%ADD10C,0.03762*%
%ADD11C,0.04156*%
%ADD12C,0.12661*%
%ADD13C,0.05906*%
%ADD14C,0.05315*%
%ADD15C,0.06000*%
%ADD16R,0.06600X0.06600*%
%ADD17C,0.04800*%
%ADD18R,0.06000X0.06000*%
%ADD19C,0.04800*%
%ADD20C,0.01000*%
D10*
X0086500Y0108038D03*
X0086500Y0115912D03*
D11*
X0106500Y0104475D03*
X0116500Y0104475D03*
X0126500Y0086975D03*
X0136500Y0086975D03*
X0206500Y0086975D03*
X0206500Y0096975D03*
X0269000Y0066975D03*
X0269000Y0056975D03*
X0376500Y0121975D03*
X0386500Y0121975D03*
D12*
X0087130Y0072841D03*
X0032012Y0072841D03*
D13*
X0049728Y0045282D03*
X0069413Y0045282D03*
X0069413Y0102368D03*
X0059571Y0102368D03*
X0049728Y0102368D03*
D14*
X0101500Y0116975D03*
X0141500Y0116975D03*
X0116500Y0086975D03*
X0116500Y0046975D03*
X0231500Y0086975D03*
X0231500Y0126975D03*
X0359000Y0121975D03*
X0369000Y0121975D03*
X0369000Y0081975D03*
X0359000Y0081975D03*
X0276500Y0036975D03*
X0236500Y0036975D03*
D15*
X0231500Y0011975D03*
X0221500Y0011975D03*
X0211500Y0011975D03*
X0201500Y0011975D03*
X0191500Y0011975D03*
X0181500Y0011975D03*
X0171500Y0011975D03*
X0241500Y0011975D03*
X0251500Y0011975D03*
X0261500Y0011975D03*
X0106500Y0046975D03*
X0106500Y0056975D03*
X0106500Y0066975D03*
X0106500Y0076975D03*
X0106500Y0086975D03*
X0021500Y0056975D03*
X0021500Y0046975D03*
X0021500Y0036975D03*
X0021500Y0021975D03*
X0031500Y0021975D03*
X0041500Y0021975D03*
X0051500Y0021975D03*
X0061500Y0021975D03*
X0071500Y0021975D03*
X0233390Y0133864D03*
X0243390Y0133864D03*
X0253390Y0133864D03*
X0263390Y0133864D03*
X0273390Y0133864D03*
X0283390Y0133864D03*
X0293390Y0133864D03*
X0303390Y0133864D03*
X0313390Y0133864D03*
X0323390Y0133864D03*
X0333390Y0133864D03*
X0343390Y0133864D03*
X0353390Y0133864D03*
X0363390Y0133864D03*
X0373390Y0133864D03*
D16*
X0126500Y0046975D03*
D17*
X0136500Y0044575D02*
X0136500Y0049375D01*
X0146500Y0049375D02*
X0146500Y0044575D01*
X0156500Y0044575D02*
X0156500Y0049375D01*
X0166500Y0049375D02*
X0166500Y0044575D01*
X0176500Y0044575D02*
X0176500Y0049375D01*
X0186500Y0049375D02*
X0186500Y0044575D01*
X0196500Y0044575D02*
X0196500Y0049375D01*
X0206500Y0049375D02*
X0206500Y0044575D01*
X0216500Y0044575D02*
X0216500Y0049375D01*
X0226500Y0049375D02*
X0226500Y0044575D01*
X0236500Y0044575D02*
X0236500Y0049375D01*
X0246500Y0049375D02*
X0246500Y0044575D01*
X0256500Y0044575D02*
X0256500Y0049375D01*
X0256500Y0074575D02*
X0256500Y0079375D01*
X0246500Y0079375D02*
X0246500Y0074575D01*
X0236500Y0074575D02*
X0236500Y0079375D01*
X0226500Y0079375D02*
X0226500Y0074575D01*
X0216500Y0074575D02*
X0216500Y0079375D01*
X0206500Y0079375D02*
X0206500Y0074575D01*
X0196500Y0074575D02*
X0196500Y0079375D01*
X0186500Y0079375D02*
X0186500Y0074575D01*
X0176500Y0074575D02*
X0176500Y0079375D01*
X0166500Y0079375D02*
X0166500Y0074575D01*
X0156500Y0074575D02*
X0156500Y0079375D01*
X0146500Y0079375D02*
X0146500Y0074575D01*
X0136500Y0074575D02*
X0136500Y0079375D01*
X0126500Y0079375D02*
X0126500Y0074575D01*
D18*
X0383390Y0133864D03*
D19*
X0289000Y0029475D03*
X0289000Y0019475D03*
D20*
X0003500Y0003975D02*
X0003500Y0141707D01*
X0412886Y0141707D01*
X0412886Y0003975D01*
X0003500Y0003975D01*
X0003500Y0004970D02*
X0106668Y0004970D01*
X0105513Y0005449D02*
X0108274Y0004305D01*
X0111262Y0004305D01*
X0114023Y0005449D01*
X0116136Y0007562D01*
X0117280Y0010323D01*
X0117280Y0013311D01*
X0116136Y0016072D01*
X0114023Y0018185D01*
X0111262Y0019329D01*
X0108274Y0019329D01*
X0105513Y0018185D01*
X0103400Y0016072D01*
X0102256Y0013311D01*
X0102256Y0010323D01*
X0103400Y0007562D01*
X0105513Y0005449D01*
X0104993Y0005969D02*
X0003500Y0005969D01*
X0003500Y0006967D02*
X0103994Y0006967D01*
X0103232Y0007966D02*
X0003500Y0007966D01*
X0003500Y0008964D02*
X0102819Y0008964D01*
X0102405Y0009963D02*
X0003500Y0009963D01*
X0003500Y0010961D02*
X0102256Y0010961D01*
X0102256Y0011960D02*
X0003500Y0011960D01*
X0003500Y0012958D02*
X0102256Y0012958D01*
X0102523Y0013957D02*
X0003500Y0013957D01*
X0003500Y0014955D02*
X0102937Y0014955D01*
X0103350Y0015954D02*
X0003500Y0015954D01*
X0003500Y0016952D02*
X0104280Y0016952D01*
X0105278Y0017951D02*
X0072499Y0017951D01*
X0072316Y0017875D02*
X0073822Y0018499D01*
X0074976Y0019652D01*
X0075600Y0021159D01*
X0075600Y0022790D01*
X0074976Y0024297D01*
X0073822Y0025450D01*
X0072316Y0026075D01*
X0070684Y0026075D01*
X0069178Y0025450D01*
X0068024Y0024297D01*
X0067400Y0022790D01*
X0067400Y0021159D01*
X0068024Y0019652D01*
X0069178Y0018499D01*
X0070684Y0017875D01*
X0072316Y0017875D01*
X0070501Y0017951D02*
X0062499Y0017951D01*
X0062316Y0017875D02*
X0063822Y0018499D01*
X0064976Y0019652D01*
X0065600Y0021159D01*
X0065600Y0022790D01*
X0064976Y0024297D01*
X0063822Y0025450D01*
X0062316Y0026075D01*
X0060684Y0026075D01*
X0059178Y0025450D01*
X0058024Y0024297D01*
X0057400Y0022790D01*
X0057400Y0021159D01*
X0058024Y0019652D01*
X0059178Y0018499D01*
X0060684Y0017875D01*
X0062316Y0017875D01*
X0060501Y0017951D02*
X0052499Y0017951D01*
X0052316Y0017875D02*
X0053822Y0018499D01*
X0054976Y0019652D01*
X0055600Y0021159D01*
X0055600Y0022790D01*
X0054976Y0024297D01*
X0053822Y0025450D01*
X0052316Y0026075D01*
X0050684Y0026075D01*
X0049178Y0025450D01*
X0048024Y0024297D01*
X0047400Y0022790D01*
X0047400Y0021159D01*
X0048024Y0019652D01*
X0049178Y0018499D01*
X0050684Y0017875D01*
X0052316Y0017875D01*
X0050501Y0017951D02*
X0042499Y0017951D01*
X0042316Y0017875D02*
X0043822Y0018499D01*
X0044976Y0019652D01*
X0045600Y0021159D01*
X0045600Y0022790D01*
X0044976Y0024297D01*
X0043822Y0025450D01*
X0042316Y0026075D01*
X0040684Y0026075D01*
X0039178Y0025450D01*
X0038024Y0024297D01*
X0037400Y0022790D01*
X0037400Y0021159D01*
X0038024Y0019652D01*
X0039178Y0018499D01*
X0040684Y0017875D01*
X0042316Y0017875D01*
X0040501Y0017951D02*
X0032499Y0017951D01*
X0032316Y0017875D02*
X0033822Y0018499D01*
X0034976Y0019652D01*
X0035600Y0021159D01*
X0035600Y0022790D01*
X0034976Y0024297D01*
X0033822Y0025450D01*
X0032316Y0026075D01*
X0030684Y0026075D01*
X0029178Y0025450D01*
X0028024Y0024297D01*
X0027400Y0022790D01*
X0027400Y0021159D01*
X0028024Y0019652D01*
X0029178Y0018499D01*
X0030684Y0017875D01*
X0032316Y0017875D01*
X0030501Y0017951D02*
X0023515Y0017951D01*
X0023227Y0017804D02*
X0023859Y0018126D01*
X0024432Y0018542D01*
X0024932Y0019043D01*
X0025349Y0019616D01*
X0025670Y0020247D01*
X0025889Y0020921D01*
X0025977Y0021475D01*
X0022000Y0021475D01*
X0022000Y0022474D01*
X0025977Y0022474D01*
X0025889Y0023028D01*
X0025670Y0023702D01*
X0025349Y0024333D01*
X0024932Y0024906D01*
X0024432Y0025407D01*
X0023859Y0025823D01*
X0023227Y0026145D01*
X0022554Y0026364D01*
X0022000Y0026451D01*
X0022000Y0022475D01*
X0021000Y0022475D01*
X0021000Y0026451D01*
X0020446Y0026364D01*
X0019773Y0026145D01*
X0019141Y0025823D01*
X0018568Y0025407D01*
X0018068Y0024906D01*
X0017651Y0024333D01*
X0017330Y0023702D01*
X0017111Y0023028D01*
X0017023Y0022474D01*
X0021000Y0022474D01*
X0021000Y0021475D01*
X0017023Y0021475D01*
X0017111Y0020921D01*
X0017330Y0020247D01*
X0017651Y0019616D01*
X0018068Y0019043D01*
X0018568Y0018542D01*
X0019141Y0018126D01*
X0019773Y0017804D01*
X0020446Y0017585D01*
X0021000Y0017498D01*
X0021000Y0021474D01*
X0022000Y0021474D01*
X0022000Y0017498D01*
X0022554Y0017585D01*
X0023227Y0017804D01*
X0022000Y0017951D02*
X0021000Y0017951D01*
X0021000Y0018949D02*
X0022000Y0018949D01*
X0022000Y0019948D02*
X0021000Y0019948D01*
X0021000Y0020946D02*
X0022000Y0020946D01*
X0022000Y0021945D02*
X0027400Y0021945D01*
X0027463Y0022943D02*
X0025903Y0022943D01*
X0025548Y0023942D02*
X0027877Y0023942D01*
X0028667Y0024940D02*
X0024898Y0024940D01*
X0023632Y0025939D02*
X0030357Y0025939D01*
X0032643Y0025939D02*
X0040357Y0025939D01*
X0038667Y0024940D02*
X0034332Y0024940D01*
X0035123Y0023942D02*
X0037877Y0023942D01*
X0037463Y0022943D02*
X0035537Y0022943D01*
X0035600Y0021945D02*
X0037400Y0021945D01*
X0037488Y0020946D02*
X0035512Y0020946D01*
X0035098Y0019948D02*
X0037902Y0019948D01*
X0038727Y0018949D02*
X0034273Y0018949D01*
X0028727Y0018949D02*
X0024839Y0018949D01*
X0025518Y0019948D02*
X0027902Y0019948D01*
X0027488Y0020946D02*
X0025893Y0020946D01*
X0022000Y0022943D02*
X0021000Y0022943D01*
X0021000Y0021945D02*
X0003500Y0021945D01*
X0003500Y0022943D02*
X0017097Y0022943D01*
X0017452Y0023942D02*
X0003500Y0023942D01*
X0003500Y0024940D02*
X0018102Y0024940D01*
X0019368Y0025939D02*
X0003500Y0025939D01*
X0003500Y0026937D02*
X0286587Y0026937D01*
X0287017Y0026507D02*
X0288304Y0025975D01*
X0289696Y0025975D01*
X0290983Y0026507D01*
X0291967Y0027492D01*
X0292500Y0028778D01*
X0292500Y0030171D01*
X0291967Y0031457D01*
X0290983Y0032442D01*
X0289696Y0032975D01*
X0288304Y0032975D01*
X0287017Y0032442D01*
X0286033Y0031457D01*
X0285500Y0030171D01*
X0285500Y0028778D01*
X0286033Y0027492D01*
X0287017Y0026507D01*
X0285849Y0027936D02*
X0003500Y0027936D01*
X0003500Y0028934D02*
X0285500Y0028934D01*
X0285500Y0029933D02*
X0003500Y0029933D01*
X0003500Y0030931D02*
X0285815Y0030931D01*
X0286506Y0031930D02*
X0003500Y0031930D01*
X0003500Y0032928D02*
X0020554Y0032928D01*
X0020684Y0032875D02*
X0022316Y0032875D01*
X0023822Y0033499D01*
X0024976Y0034652D01*
X0025600Y0036159D01*
X0025600Y0037790D01*
X0024976Y0039297D01*
X0023822Y0040450D01*
X0022316Y0041075D01*
X0020684Y0041075D01*
X0019178Y0040450D01*
X0018024Y0039297D01*
X0017400Y0037790D01*
X0017400Y0036159D01*
X0018024Y0034652D01*
X0019178Y0033499D01*
X0020684Y0032875D01*
X0022446Y0032928D02*
X0288192Y0032928D01*
X0289808Y0032928D02*
X0412886Y0032928D01*
X0412886Y0031930D02*
X0291494Y0031930D01*
X0292185Y0030931D02*
X0412886Y0030931D01*
X0412886Y0029933D02*
X0292500Y0029933D01*
X0292500Y0028934D02*
X0412886Y0028934D01*
X0412886Y0027936D02*
X0292151Y0027936D01*
X0291413Y0026937D02*
X0412886Y0026937D01*
X0412886Y0025939D02*
X0072643Y0025939D01*
X0074332Y0024940D02*
X0412886Y0024940D01*
X0412886Y0023942D02*
X0075123Y0023942D01*
X0075537Y0022943D02*
X0287183Y0022943D01*
X0287153Y0022931D02*
X0286514Y0022504D01*
X0285971Y0021961D01*
X0285544Y0021322D01*
X0285250Y0020612D01*
X0285100Y0019859D01*
X0285100Y0019775D01*
X0288700Y0019775D01*
X0288700Y0023375D01*
X0288616Y0023375D01*
X0287862Y0023225D01*
X0287153Y0022931D01*
X0288700Y0022943D02*
X0289300Y0022943D01*
X0289300Y0023374D02*
X0289300Y0019775D01*
X0288700Y0019775D01*
X0288700Y0019174D01*
X0289300Y0019174D01*
X0289300Y0015575D01*
X0289384Y0015575D01*
X0290138Y0015724D01*
X0290847Y0016018D01*
X0291486Y0016445D01*
X0292029Y0016988D01*
X0292456Y0017627D01*
X0292750Y0018337D01*
X0292900Y0019090D01*
X0292900Y0019174D01*
X0289300Y0019174D01*
X0289300Y0019775D01*
X0292900Y0019775D01*
X0292900Y0019859D01*
X0292750Y0020612D01*
X0292456Y0021322D01*
X0292029Y0021961D01*
X0291486Y0022504D01*
X0290847Y0022931D01*
X0290138Y0023225D01*
X0289384Y0023375D01*
X0289300Y0023374D01*
X0289300Y0021945D02*
X0288700Y0021945D01*
X0288700Y0020946D02*
X0289300Y0020946D01*
X0289300Y0019948D02*
X0288700Y0019948D01*
X0288700Y0019174D02*
X0285100Y0019174D01*
X0285100Y0019090D01*
X0285250Y0018337D01*
X0285544Y0017627D01*
X0285971Y0016988D01*
X0286514Y0016445D01*
X0287153Y0016018D01*
X0287862Y0015724D01*
X0288616Y0015575D01*
X0288700Y0015575D01*
X0288700Y0019174D01*
X0288700Y0018949D02*
X0289300Y0018949D01*
X0289300Y0017951D02*
X0288700Y0017951D01*
X0288700Y0016952D02*
X0289300Y0016952D01*
X0289300Y0015954D02*
X0288700Y0015954D01*
X0287309Y0015954D02*
X0262607Y0015954D01*
X0262316Y0016075D02*
X0263822Y0015450D01*
X0264976Y0014297D01*
X0265600Y0012790D01*
X0265600Y0011159D01*
X0264976Y0009652D01*
X0263822Y0008499D01*
X0262316Y0007875D01*
X0260684Y0007875D01*
X0259178Y0008499D01*
X0258024Y0009652D01*
X0257400Y0011159D01*
X0257400Y0012790D01*
X0258024Y0014297D01*
X0259178Y0015450D01*
X0260684Y0016075D01*
X0262316Y0016075D01*
X0260393Y0015954D02*
X0252607Y0015954D01*
X0252316Y0016075D02*
X0253822Y0015450D01*
X0254976Y0014297D01*
X0255600Y0012790D01*
X0255600Y0011159D01*
X0254976Y0009652D01*
X0253822Y0008499D01*
X0252316Y0007875D01*
X0250684Y0007875D01*
X0249178Y0008499D01*
X0248024Y0009652D01*
X0247400Y0011159D01*
X0247400Y0012790D01*
X0248024Y0014297D01*
X0249178Y0015450D01*
X0250684Y0016075D01*
X0252316Y0016075D01*
X0250393Y0015954D02*
X0242607Y0015954D01*
X0242316Y0016075D02*
X0243822Y0015450D01*
X0244976Y0014297D01*
X0245600Y0012790D01*
X0245600Y0011159D01*
X0244976Y0009652D01*
X0243822Y0008499D01*
X0242316Y0007875D01*
X0240684Y0007875D01*
X0239178Y0008499D01*
X0238024Y0009652D01*
X0237400Y0011159D01*
X0237400Y0012790D01*
X0238024Y0014297D01*
X0239178Y0015450D01*
X0240684Y0016075D01*
X0242316Y0016075D01*
X0240393Y0015954D02*
X0232607Y0015954D01*
X0232316Y0016075D02*
X0230684Y0016075D01*
X0229178Y0015450D01*
X0228024Y0014297D01*
X0227400Y0012790D01*
X0227400Y0011159D01*
X0228024Y0009652D01*
X0229178Y0008499D01*
X0230684Y0007875D01*
X0232316Y0007875D01*
X0233822Y0008499D01*
X0234976Y0009652D01*
X0235600Y0011159D01*
X0235600Y0012790D01*
X0234976Y0014297D01*
X0233822Y0015450D01*
X0232316Y0016075D01*
X0230393Y0015954D02*
X0222607Y0015954D01*
X0222316Y0016075D02*
X0223822Y0015450D01*
X0224976Y0014297D01*
X0225600Y0012790D01*
X0225600Y0011159D01*
X0224976Y0009652D01*
X0223822Y0008499D01*
X0222316Y0007875D01*
X0220684Y0007875D01*
X0219178Y0008499D01*
X0218024Y0009652D01*
X0217400Y0011159D01*
X0217400Y0012790D01*
X0218024Y0014297D01*
X0219178Y0015450D01*
X0220684Y0016075D01*
X0222316Y0016075D01*
X0220393Y0015954D02*
X0212607Y0015954D01*
X0212316Y0016075D02*
X0213822Y0015450D01*
X0214976Y0014297D01*
X0215600Y0012790D01*
X0215600Y0011159D01*
X0214976Y0009652D01*
X0213822Y0008499D01*
X0212316Y0007875D01*
X0210684Y0007875D01*
X0209178Y0008499D01*
X0208024Y0009652D01*
X0207400Y0011159D01*
X0207400Y0012790D01*
X0208024Y0014297D01*
X0209178Y0015450D01*
X0210684Y0016075D01*
X0212316Y0016075D01*
X0210393Y0015954D02*
X0202607Y0015954D01*
X0202316Y0016075D02*
X0203822Y0015450D01*
X0204976Y0014297D01*
X0205600Y0012790D01*
X0205600Y0011159D01*
X0204976Y0009652D01*
X0203822Y0008499D01*
X0202316Y0007875D01*
X0200684Y0007875D01*
X0199178Y0008499D01*
X0198024Y0009652D01*
X0197400Y0011159D01*
X0197400Y0012790D01*
X0198024Y0014297D01*
X0199178Y0015450D01*
X0200684Y0016075D01*
X0202316Y0016075D01*
X0200393Y0015954D02*
X0192607Y0015954D01*
X0192316Y0016075D02*
X0193822Y0015450D01*
X0194976Y0014297D01*
X0195600Y0012790D01*
X0195600Y0011159D01*
X0194976Y0009652D01*
X0193822Y0008499D01*
X0192316Y0007875D01*
X0190684Y0007875D01*
X0189178Y0008499D01*
X0188024Y0009652D01*
X0187400Y0011159D01*
X0187400Y0012790D01*
X0188024Y0014297D01*
X0189178Y0015450D01*
X0190684Y0016075D01*
X0192316Y0016075D01*
X0190393Y0015954D02*
X0182607Y0015954D01*
X0182316Y0016075D02*
X0180684Y0016075D01*
X0179178Y0015450D01*
X0178024Y0014297D01*
X0177400Y0012790D01*
X0177400Y0011159D01*
X0178024Y0009652D01*
X0179178Y0008499D01*
X0180684Y0007875D01*
X0182316Y0007875D01*
X0183822Y0008499D01*
X0184976Y0009652D01*
X0185600Y0011159D01*
X0185600Y0012790D01*
X0184976Y0014297D01*
X0183822Y0015450D01*
X0182316Y0016075D01*
X0180393Y0015954D02*
X0173603Y0015954D01*
X0173859Y0015823D02*
X0173227Y0016145D01*
X0172554Y0016364D01*
X0172000Y0016451D01*
X0172000Y0012475D01*
X0171000Y0012475D01*
X0171000Y0016451D01*
X0170446Y0016364D01*
X0169773Y0016145D01*
X0169141Y0015823D01*
X0168568Y0015407D01*
X0168068Y0014906D01*
X0167651Y0014333D01*
X0167330Y0013702D01*
X0167111Y0013028D01*
X0167023Y0012474D01*
X0171000Y0012474D01*
X0171000Y0011475D01*
X0167023Y0011475D01*
X0167111Y0010921D01*
X0167330Y0010247D01*
X0167651Y0009616D01*
X0168068Y0009043D01*
X0168568Y0008542D01*
X0169141Y0008126D01*
X0169773Y0007804D01*
X0170446Y0007585D01*
X0171000Y0007498D01*
X0171000Y0011474D01*
X0172000Y0011474D01*
X0172000Y0007498D01*
X0172554Y0007585D01*
X0173227Y0007804D01*
X0173859Y0008126D01*
X0174432Y0008542D01*
X0174932Y0009043D01*
X0175349Y0009616D01*
X0175670Y0010247D01*
X0175889Y0010921D01*
X0175977Y0011475D01*
X0172000Y0011475D01*
X0172000Y0012474D01*
X0175977Y0012474D01*
X0175889Y0013028D01*
X0175670Y0013702D01*
X0175349Y0014333D01*
X0174932Y0014906D01*
X0174432Y0015407D01*
X0173859Y0015823D01*
X0174883Y0014955D02*
X0178682Y0014955D01*
X0177883Y0013957D02*
X0175541Y0013957D01*
X0175900Y0012958D02*
X0177470Y0012958D01*
X0177400Y0011960D02*
X0172000Y0011960D01*
X0172000Y0012958D02*
X0171000Y0012958D01*
X0171000Y0011960D02*
X0117280Y0011960D01*
X0117280Y0012958D02*
X0167100Y0012958D01*
X0167459Y0013957D02*
X0117012Y0013957D01*
X0116599Y0014955D02*
X0168117Y0014955D01*
X0169397Y0015954D02*
X0116185Y0015954D01*
X0115256Y0016952D02*
X0286007Y0016952D01*
X0285410Y0017951D02*
X0114257Y0017951D01*
X0112178Y0018949D02*
X0285128Y0018949D01*
X0285118Y0019948D02*
X0075098Y0019948D01*
X0075512Y0020946D02*
X0285388Y0020946D01*
X0285960Y0021945D02*
X0075600Y0021945D01*
X0074273Y0018949D02*
X0107357Y0018949D01*
X0117280Y0010961D02*
X0167104Y0010961D01*
X0167475Y0009963D02*
X0117130Y0009963D01*
X0116717Y0008964D02*
X0168146Y0008964D01*
X0169456Y0007966D02*
X0116303Y0007966D01*
X0115541Y0006967D02*
X0399270Y0006967D01*
X0398675Y0007562D02*
X0400788Y0005449D01*
X0403549Y0004305D01*
X0406537Y0004305D01*
X0409298Y0005449D01*
X0411412Y0007562D01*
X0412555Y0010323D01*
X0412555Y0013311D01*
X0411412Y0016072D01*
X0409298Y0018185D01*
X0406537Y0019329D01*
X0403549Y0019329D01*
X0400788Y0018185D01*
X0398675Y0016072D01*
X0397531Y0013311D01*
X0397531Y0010323D01*
X0398675Y0007562D01*
X0398508Y0007966D02*
X0262535Y0007966D01*
X0264288Y0008964D02*
X0398094Y0008964D01*
X0397681Y0009963D02*
X0265104Y0009963D01*
X0265518Y0010961D02*
X0397531Y0010961D01*
X0397531Y0011960D02*
X0265600Y0011960D01*
X0265530Y0012958D02*
X0397531Y0012958D01*
X0397799Y0013957D02*
X0265117Y0013957D01*
X0264318Y0014955D02*
X0398212Y0014955D01*
X0398626Y0015954D02*
X0290691Y0015954D01*
X0291993Y0016952D02*
X0399555Y0016952D01*
X0400554Y0017951D02*
X0292590Y0017951D01*
X0292872Y0018949D02*
X0402633Y0018949D01*
X0407454Y0018949D02*
X0412886Y0018949D01*
X0412886Y0017951D02*
X0409533Y0017951D01*
X0410531Y0016952D02*
X0412886Y0016952D01*
X0412886Y0015954D02*
X0411461Y0015954D01*
X0411874Y0014955D02*
X0412886Y0014955D01*
X0412886Y0013957D02*
X0412288Y0013957D01*
X0412555Y0012958D02*
X0412886Y0012958D01*
X0412886Y0011960D02*
X0412555Y0011960D01*
X0412555Y0010961D02*
X0412886Y0010961D01*
X0412886Y0009963D02*
X0412406Y0009963D01*
X0411992Y0008964D02*
X0412886Y0008964D01*
X0412886Y0007966D02*
X0411579Y0007966D01*
X0410817Y0006967D02*
X0412886Y0006967D01*
X0412886Y0005969D02*
X0409818Y0005969D01*
X0408143Y0004970D02*
X0412886Y0004970D01*
X0401944Y0004970D02*
X0112867Y0004970D01*
X0114543Y0005969D02*
X0400268Y0005969D01*
X0412886Y0019948D02*
X0292882Y0019948D01*
X0292612Y0020946D02*
X0412886Y0020946D01*
X0412886Y0021945D02*
X0292040Y0021945D01*
X0290817Y0022943D02*
X0412886Y0022943D01*
X0412886Y0033927D02*
X0278766Y0033927D01*
X0278628Y0033789D02*
X0279685Y0034846D01*
X0280257Y0036227D01*
X0280257Y0037722D01*
X0279685Y0039103D01*
X0278628Y0040160D01*
X0277247Y0040732D01*
X0275753Y0040732D01*
X0274372Y0040160D01*
X0273315Y0039103D01*
X0272743Y0037722D01*
X0272743Y0036227D01*
X0273315Y0034846D01*
X0274372Y0033789D01*
X0275753Y0033217D01*
X0277247Y0033217D01*
X0278628Y0033789D01*
X0279718Y0034925D02*
X0412886Y0034925D01*
X0412886Y0035924D02*
X0280132Y0035924D01*
X0280257Y0036922D02*
X0412886Y0036922D01*
X0412886Y0037921D02*
X0280175Y0037921D01*
X0279761Y0038919D02*
X0412886Y0038919D01*
X0412886Y0039918D02*
X0278870Y0039918D01*
X0274130Y0039918D02*
X0238870Y0039918D01*
X0238628Y0040160D02*
X0237247Y0040732D01*
X0235753Y0040732D01*
X0234372Y0040160D01*
X0233315Y0039103D01*
X0232743Y0037722D01*
X0232743Y0036227D01*
X0233315Y0034846D01*
X0234372Y0033789D01*
X0235753Y0033217D01*
X0237247Y0033217D01*
X0238628Y0033789D01*
X0239685Y0034846D01*
X0240257Y0036227D01*
X0240257Y0037722D01*
X0239685Y0039103D01*
X0238628Y0040160D01*
X0238483Y0041607D02*
X0237196Y0041075D01*
X0235804Y0041075D01*
X0234517Y0041607D01*
X0233533Y0042592D01*
X0233000Y0043878D01*
X0233000Y0050071D01*
X0233533Y0051357D01*
X0234517Y0052342D01*
X0235804Y0052875D01*
X0237196Y0052875D01*
X0238483Y0052342D01*
X0239467Y0051357D01*
X0240000Y0050071D01*
X0240000Y0043878D01*
X0239467Y0042592D01*
X0238483Y0041607D01*
X0238790Y0041915D02*
X0244210Y0041915D01*
X0244517Y0041607D02*
X0245804Y0041075D01*
X0247196Y0041075D01*
X0248483Y0041607D01*
X0249467Y0042592D01*
X0250000Y0043878D01*
X0250000Y0050071D01*
X0249467Y0051357D01*
X0248483Y0052342D01*
X0247196Y0052875D01*
X0245804Y0052875D01*
X0244517Y0052342D01*
X0243533Y0051357D01*
X0243000Y0050071D01*
X0243000Y0043878D01*
X0243533Y0042592D01*
X0244517Y0041607D01*
X0243400Y0042913D02*
X0239600Y0042913D01*
X0240000Y0043912D02*
X0243000Y0043912D01*
X0243000Y0044911D02*
X0240000Y0044911D01*
X0240000Y0045909D02*
X0243000Y0045909D01*
X0243000Y0046908D02*
X0240000Y0046908D01*
X0240000Y0047906D02*
X0243000Y0047906D01*
X0243000Y0048905D02*
X0240000Y0048905D01*
X0240000Y0049903D02*
X0243000Y0049903D01*
X0243344Y0050902D02*
X0239656Y0050902D01*
X0238924Y0051900D02*
X0244076Y0051900D01*
X0248924Y0051900D02*
X0254076Y0051900D01*
X0254517Y0052342D02*
X0253533Y0051357D01*
X0253000Y0050071D01*
X0253000Y0043878D01*
X0253533Y0042592D01*
X0254517Y0041607D01*
X0255804Y0041075D01*
X0257196Y0041075D01*
X0258483Y0041607D01*
X0259467Y0042592D01*
X0260000Y0043878D01*
X0260000Y0050071D01*
X0259467Y0051357D01*
X0258483Y0052342D01*
X0257196Y0052875D01*
X0255804Y0052875D01*
X0254517Y0052342D01*
X0253344Y0050902D02*
X0249656Y0050902D01*
X0250000Y0049903D02*
X0253000Y0049903D01*
X0253000Y0048905D02*
X0250000Y0048905D01*
X0250000Y0047906D02*
X0253000Y0047906D01*
X0253000Y0046908D02*
X0250000Y0046908D01*
X0250000Y0045909D02*
X0253000Y0045909D01*
X0253000Y0044911D02*
X0250000Y0044911D01*
X0250000Y0043912D02*
X0253000Y0043912D01*
X0253400Y0042913D02*
X0249600Y0042913D01*
X0248790Y0041915D02*
X0254210Y0041915D01*
X0258790Y0041915D02*
X0412886Y0041915D01*
X0412886Y0042913D02*
X0259600Y0042913D01*
X0260000Y0043912D02*
X0412886Y0043912D01*
X0412886Y0044911D02*
X0260000Y0044911D01*
X0260000Y0045909D02*
X0412886Y0045909D01*
X0412886Y0046908D02*
X0260000Y0046908D01*
X0260000Y0047906D02*
X0412886Y0047906D01*
X0412886Y0048905D02*
X0260000Y0048905D01*
X0260000Y0049903D02*
X0412886Y0049903D01*
X0412886Y0050902D02*
X0259656Y0050902D01*
X0258924Y0051900D02*
X0412886Y0051900D01*
X0412886Y0052899D02*
X0198183Y0052899D01*
X0198347Y0052831D02*
X0197638Y0053125D01*
X0196884Y0053275D01*
X0196800Y0053274D01*
X0196800Y0047275D01*
X0196200Y0047275D01*
X0196200Y0053275D01*
X0196116Y0053275D01*
X0195362Y0053125D01*
X0194653Y0052831D01*
X0194014Y0052404D01*
X0193471Y0051861D01*
X0193044Y0051222D01*
X0192750Y0050512D01*
X0192600Y0049759D01*
X0192600Y0047275D01*
X0196200Y0047275D01*
X0196200Y0046674D01*
X0196800Y0046674D01*
X0196800Y0040675D01*
X0196884Y0040675D01*
X0197638Y0040824D01*
X0198347Y0041118D01*
X0198986Y0041545D01*
X0199529Y0042088D01*
X0199956Y0042727D01*
X0200250Y0043437D01*
X0200400Y0044190D01*
X0200400Y0046674D01*
X0196800Y0046674D01*
X0196800Y0047275D01*
X0200400Y0047275D01*
X0200400Y0049759D01*
X0200250Y0050512D01*
X0199956Y0051222D01*
X0199529Y0051861D01*
X0198986Y0052404D01*
X0198347Y0052831D01*
X0199490Y0051900D02*
X0204076Y0051900D01*
X0204517Y0052342D02*
X0203533Y0051357D01*
X0203000Y0050071D01*
X0203000Y0043878D01*
X0203533Y0042592D01*
X0204517Y0041607D01*
X0205804Y0041075D01*
X0207196Y0041075D01*
X0208483Y0041607D01*
X0209467Y0042592D01*
X0210000Y0043878D01*
X0210000Y0050071D01*
X0209467Y0051357D01*
X0208483Y0052342D01*
X0207196Y0052875D01*
X0205804Y0052875D01*
X0204517Y0052342D01*
X0203344Y0050902D02*
X0200089Y0050902D01*
X0200371Y0049903D02*
X0203000Y0049903D01*
X0203000Y0048905D02*
X0200400Y0048905D01*
X0200400Y0047906D02*
X0203000Y0047906D01*
X0203000Y0046908D02*
X0196800Y0046908D01*
X0196200Y0046908D02*
X0190000Y0046908D01*
X0190000Y0047906D02*
X0192600Y0047906D01*
X0192600Y0048905D02*
X0190000Y0048905D01*
X0190000Y0049903D02*
X0192629Y0049903D01*
X0192911Y0050902D02*
X0189656Y0050902D01*
X0189467Y0051357D02*
X0188483Y0052342D01*
X0187196Y0052875D01*
X0185804Y0052875D01*
X0184517Y0052342D01*
X0183533Y0051357D01*
X0183000Y0050071D01*
X0183000Y0043878D01*
X0183533Y0042592D01*
X0184517Y0041607D01*
X0185804Y0041075D01*
X0187196Y0041075D01*
X0188483Y0041607D01*
X0189467Y0042592D01*
X0190000Y0043878D01*
X0190000Y0050071D01*
X0189467Y0051357D01*
X0188924Y0051900D02*
X0193510Y0051900D01*
X0194817Y0052899D02*
X0107374Y0052899D01*
X0107316Y0052875D02*
X0108822Y0053499D01*
X0109976Y0054652D01*
X0110600Y0056159D01*
X0110600Y0057790D01*
X0109976Y0059297D01*
X0108822Y0060450D01*
X0107316Y0061075D01*
X0105684Y0061075D01*
X0104178Y0060450D01*
X0103024Y0059297D01*
X0102400Y0057790D01*
X0102400Y0056159D01*
X0103024Y0054652D01*
X0104178Y0053499D01*
X0105684Y0052875D01*
X0107316Y0052875D01*
X0105626Y0052899D02*
X0022374Y0052899D01*
X0022316Y0052875D02*
X0023822Y0053499D01*
X0024976Y0054652D01*
X0025600Y0056159D01*
X0025600Y0057790D01*
X0024976Y0059297D01*
X0023822Y0060450D01*
X0022316Y0061075D01*
X0020684Y0061075D01*
X0019178Y0060450D01*
X0018024Y0059297D01*
X0017400Y0057790D01*
X0017400Y0056159D01*
X0018024Y0054652D01*
X0019178Y0053499D01*
X0020684Y0052875D01*
X0022316Y0052875D01*
X0020626Y0052899D02*
X0003500Y0052899D01*
X0003500Y0053897D02*
X0018779Y0053897D01*
X0017923Y0054896D02*
X0003500Y0054896D01*
X0003500Y0055894D02*
X0017510Y0055894D01*
X0017400Y0056893D02*
X0003500Y0056893D01*
X0003500Y0057891D02*
X0017442Y0057891D01*
X0017855Y0058890D02*
X0003500Y0058890D01*
X0003500Y0059888D02*
X0018615Y0059888D01*
X0020231Y0060887D02*
X0003500Y0060887D01*
X0003500Y0061885D02*
X0412886Y0061885D01*
X0412886Y0060887D02*
X0107769Y0060887D01*
X0109385Y0059888D02*
X0267730Y0059888D01*
X0267200Y0059669D02*
X0266306Y0058775D01*
X0265822Y0057607D01*
X0265822Y0056342D01*
X0266306Y0055174D01*
X0267200Y0054280D01*
X0268368Y0053797D01*
X0269632Y0053797D01*
X0270800Y0054280D01*
X0271694Y0055174D01*
X0272178Y0056342D01*
X0272178Y0057607D01*
X0271694Y0058775D01*
X0270800Y0059669D01*
X0269632Y0060152D01*
X0268368Y0060152D01*
X0267200Y0059669D01*
X0266421Y0058890D02*
X0110145Y0058890D01*
X0110558Y0057891D02*
X0265940Y0057891D01*
X0265822Y0056893D02*
X0110600Y0056893D01*
X0110490Y0055894D02*
X0266008Y0055894D01*
X0266585Y0054896D02*
X0110077Y0054896D01*
X0109221Y0053897D02*
X0268125Y0053897D01*
X0269875Y0053897D02*
X0412886Y0053897D01*
X0412886Y0054896D02*
X0271415Y0054896D01*
X0271992Y0055894D02*
X0412886Y0055894D01*
X0412886Y0056893D02*
X0272178Y0056893D01*
X0272060Y0057891D02*
X0412886Y0057891D01*
X0412886Y0058890D02*
X0271579Y0058890D01*
X0270270Y0059888D02*
X0412886Y0059888D01*
X0412886Y0062884D02*
X0108383Y0062884D01*
X0108227Y0062804D02*
X0108859Y0063126D01*
X0109432Y0063542D01*
X0109932Y0064043D01*
X0110349Y0064616D01*
X0110670Y0065247D01*
X0110889Y0065921D01*
X0110977Y0066475D01*
X0107000Y0066475D01*
X0107000Y0067474D01*
X0110977Y0067474D01*
X0110889Y0068028D01*
X0110670Y0068702D01*
X0110349Y0069333D01*
X0109932Y0069906D01*
X0109432Y0070407D01*
X0108859Y0070823D01*
X0108227Y0071145D01*
X0107554Y0071364D01*
X0107000Y0071451D01*
X0107000Y0067475D01*
X0106000Y0067475D01*
X0106000Y0071451D01*
X0105446Y0071364D01*
X0104773Y0071145D01*
X0104141Y0070823D01*
X0103568Y0070407D01*
X0103068Y0069906D01*
X0102651Y0069333D01*
X0102330Y0068702D01*
X0102111Y0068028D01*
X0102023Y0067474D01*
X0106000Y0067474D01*
X0106000Y0066475D01*
X0102023Y0066475D01*
X0102111Y0065921D01*
X0102330Y0065247D01*
X0102651Y0064616D01*
X0103068Y0064043D01*
X0103568Y0063542D01*
X0104141Y0063126D01*
X0104773Y0062804D01*
X0105446Y0062585D01*
X0106000Y0062498D01*
X0106000Y0066474D01*
X0107000Y0066474D01*
X0107000Y0062498D01*
X0107554Y0062585D01*
X0108227Y0062804D01*
X0107000Y0062884D02*
X0106000Y0062884D01*
X0106000Y0063882D02*
X0107000Y0063882D01*
X0107000Y0064881D02*
X0106000Y0064881D01*
X0106000Y0065879D02*
X0107000Y0065879D01*
X0107000Y0066878D02*
X0268811Y0066878D01*
X0268811Y0066786D02*
X0268811Y0067163D01*
X0265422Y0067163D01*
X0265422Y0067327D01*
X0265560Y0068018D01*
X0265829Y0068669D01*
X0266221Y0069255D01*
X0266719Y0069754D01*
X0267305Y0070145D01*
X0267956Y0070415D01*
X0268648Y0070552D01*
X0268811Y0070552D01*
X0268811Y0067164D01*
X0269189Y0067164D01*
X0269189Y0070552D01*
X0269352Y0070552D01*
X0270044Y0070415D01*
X0270695Y0070145D01*
X0271281Y0069754D01*
X0271779Y0069255D01*
X0272171Y0068669D01*
X0272440Y0068018D01*
X0272578Y0067327D01*
X0272578Y0067163D01*
X0269189Y0067163D01*
X0269189Y0066786D01*
X0272578Y0066786D01*
X0272578Y0066622D01*
X0272440Y0065931D01*
X0272171Y0065280D01*
X0271779Y0064694D01*
X0271281Y0064195D01*
X0270695Y0063804D01*
X0270044Y0063534D01*
X0269352Y0063397D01*
X0269189Y0063397D01*
X0269189Y0066785D01*
X0268811Y0066785D01*
X0268811Y0063397D01*
X0268648Y0063397D01*
X0267956Y0063534D01*
X0267305Y0063804D01*
X0266719Y0064195D01*
X0266221Y0064694D01*
X0265829Y0065280D01*
X0265560Y0065931D01*
X0265422Y0066622D01*
X0265422Y0066786D01*
X0268811Y0066786D01*
X0269189Y0066878D02*
X0412886Y0066878D01*
X0412886Y0067876D02*
X0272469Y0067876D01*
X0272033Y0068875D02*
X0412886Y0068875D01*
X0412886Y0069873D02*
X0271102Y0069873D01*
X0269189Y0069873D02*
X0268811Y0069873D01*
X0268811Y0068875D02*
X0269189Y0068875D01*
X0269189Y0067876D02*
X0268811Y0067876D01*
X0268811Y0065879D02*
X0269189Y0065879D01*
X0269189Y0064881D02*
X0268811Y0064881D01*
X0268811Y0063882D02*
X0269189Y0063882D01*
X0270812Y0063882D02*
X0412886Y0063882D01*
X0412886Y0064881D02*
X0271904Y0064881D01*
X0272419Y0065879D02*
X0412886Y0065879D01*
X0412886Y0070872D02*
X0137752Y0070872D01*
X0137638Y0070824D02*
X0138347Y0071118D01*
X0138986Y0071545D01*
X0139529Y0072088D01*
X0139956Y0072727D01*
X0140250Y0073437D01*
X0140400Y0074190D01*
X0140400Y0076674D01*
X0136800Y0076674D01*
X0136800Y0070675D01*
X0136884Y0070675D01*
X0137638Y0070824D01*
X0136800Y0070872D02*
X0136200Y0070872D01*
X0136200Y0070675D02*
X0136200Y0076674D01*
X0136800Y0076674D01*
X0136800Y0077275D01*
X0136200Y0077275D01*
X0136200Y0083275D01*
X0136116Y0083275D01*
X0135362Y0083125D01*
X0134653Y0082831D01*
X0134014Y0082404D01*
X0133471Y0081861D01*
X0133044Y0081222D01*
X0132750Y0080512D01*
X0132600Y0079759D01*
X0132600Y0077275D01*
X0136200Y0077275D01*
X0136200Y0076674D01*
X0132600Y0076674D01*
X0132600Y0074190D01*
X0132750Y0073437D01*
X0133044Y0072727D01*
X0133471Y0072088D01*
X0134014Y0071545D01*
X0134653Y0071118D01*
X0135362Y0070824D01*
X0136116Y0070675D01*
X0136200Y0070675D01*
X0135248Y0070872D02*
X0108763Y0070872D01*
X0109956Y0069873D02*
X0266898Y0069873D01*
X0265967Y0068875D02*
X0110582Y0068875D01*
X0110913Y0067876D02*
X0265531Y0067876D01*
X0265581Y0065879D02*
X0110876Y0065879D01*
X0110484Y0064881D02*
X0266096Y0064881D01*
X0267188Y0063882D02*
X0109772Y0063882D01*
X0104617Y0062884D02*
X0003500Y0062884D01*
X0003500Y0063882D02*
X0103228Y0063882D01*
X0102516Y0064881D02*
X0003500Y0064881D01*
X0003500Y0065879D02*
X0029401Y0065879D01*
X0030534Y0065410D02*
X0033490Y0065410D01*
X0036221Y0066541D01*
X0038311Y0068631D01*
X0039443Y0071363D01*
X0039443Y0074319D01*
X0038311Y0077050D01*
X0036221Y0079140D01*
X0033490Y0080271D01*
X0030534Y0080271D01*
X0027803Y0079140D01*
X0025712Y0077050D01*
X0024581Y0074319D01*
X0024581Y0071363D01*
X0025712Y0068631D01*
X0027803Y0066541D01*
X0030534Y0065410D01*
X0027466Y0066878D02*
X0003500Y0066878D01*
X0003500Y0067876D02*
X0026468Y0067876D01*
X0025612Y0068875D02*
X0003500Y0068875D01*
X0003500Y0069873D02*
X0025198Y0069873D01*
X0024784Y0070872D02*
X0003500Y0070872D01*
X0003500Y0071870D02*
X0024581Y0071870D01*
X0024581Y0072869D02*
X0003500Y0072869D01*
X0003500Y0073867D02*
X0024581Y0073867D01*
X0024808Y0074866D02*
X0003500Y0074866D01*
X0003500Y0075864D02*
X0025221Y0075864D01*
X0025635Y0076863D02*
X0003500Y0076863D01*
X0003500Y0077861D02*
X0026524Y0077861D01*
X0027522Y0078860D02*
X0003500Y0078860D01*
X0003500Y0079858D02*
X0029537Y0079858D01*
X0034487Y0079858D02*
X0084655Y0079858D01*
X0085652Y0080271D02*
X0082921Y0079140D01*
X0080830Y0077050D01*
X0079699Y0074319D01*
X0079699Y0071363D01*
X0080830Y0068631D01*
X0082921Y0066541D01*
X0085652Y0065410D01*
X0088608Y0065410D01*
X0091339Y0066541D01*
X0093429Y0068631D01*
X0094561Y0071363D01*
X0094561Y0074319D01*
X0093429Y0077050D01*
X0091339Y0079140D01*
X0088608Y0080271D01*
X0085652Y0080271D01*
X0082641Y0078860D02*
X0036501Y0078860D01*
X0037500Y0077861D02*
X0081642Y0077861D01*
X0080753Y0076863D02*
X0038389Y0076863D01*
X0038802Y0075864D02*
X0080339Y0075864D01*
X0079926Y0074866D02*
X0039216Y0074866D01*
X0039443Y0073867D02*
X0079699Y0073867D01*
X0079699Y0072869D02*
X0039443Y0072869D01*
X0039443Y0071870D02*
X0079699Y0071870D01*
X0079902Y0070872D02*
X0039239Y0070872D01*
X0038826Y0069873D02*
X0080316Y0069873D01*
X0080730Y0068875D02*
X0038412Y0068875D01*
X0037556Y0067876D02*
X0081586Y0067876D01*
X0082584Y0066878D02*
X0036558Y0066878D01*
X0034623Y0065879D02*
X0084519Y0065879D01*
X0089741Y0065879D02*
X0102124Y0065879D01*
X0102087Y0067876D02*
X0092674Y0067876D01*
X0093530Y0068875D02*
X0102418Y0068875D01*
X0103044Y0069873D02*
X0093944Y0069873D01*
X0094357Y0070872D02*
X0104237Y0070872D01*
X0106000Y0070872D02*
X0107000Y0070872D01*
X0107000Y0069873D02*
X0106000Y0069873D01*
X0106000Y0068875D02*
X0107000Y0068875D01*
X0107000Y0067876D02*
X0106000Y0067876D01*
X0106000Y0066878D02*
X0091676Y0066878D01*
X0094561Y0071870D02*
X0124254Y0071870D01*
X0124517Y0071607D02*
X0125804Y0071075D01*
X0127196Y0071075D01*
X0128483Y0071607D01*
X0129467Y0072592D01*
X0130000Y0073878D01*
X0130000Y0080071D01*
X0129467Y0081357D01*
X0128483Y0082342D01*
X0127196Y0082875D01*
X0125804Y0082875D01*
X0124517Y0082342D01*
X0123533Y0081357D01*
X0123000Y0080071D01*
X0123000Y0073878D01*
X0123533Y0072592D01*
X0124517Y0071607D01*
X0123418Y0072869D02*
X0094561Y0072869D01*
X0094561Y0073867D02*
X0103809Y0073867D01*
X0104178Y0073499D02*
X0103024Y0074652D01*
X0102400Y0076159D01*
X0102400Y0077790D01*
X0103024Y0079297D01*
X0104178Y0080450D01*
X0105684Y0081075D01*
X0107316Y0081075D01*
X0108822Y0080450D01*
X0109976Y0079297D01*
X0110600Y0077790D01*
X0110600Y0076159D01*
X0109976Y0074652D01*
X0108822Y0073499D01*
X0107316Y0072875D01*
X0105684Y0072875D01*
X0104178Y0073499D01*
X0102936Y0074866D02*
X0094334Y0074866D01*
X0093920Y0075864D02*
X0102522Y0075864D01*
X0102400Y0076863D02*
X0093507Y0076863D01*
X0092618Y0077861D02*
X0102430Y0077861D01*
X0102843Y0078860D02*
X0091619Y0078860D01*
X0089605Y0079858D02*
X0103586Y0079858D01*
X0105159Y0080857D02*
X0003500Y0080857D01*
X0003500Y0081855D02*
X0124031Y0081855D01*
X0123326Y0080857D02*
X0107841Y0080857D01*
X0109414Y0079858D02*
X0123000Y0079858D01*
X0123000Y0078860D02*
X0110157Y0078860D01*
X0110570Y0077861D02*
X0123000Y0077861D01*
X0123000Y0076863D02*
X0110600Y0076863D01*
X0110478Y0075864D02*
X0123000Y0075864D01*
X0123000Y0074866D02*
X0110064Y0074866D01*
X0109191Y0073867D02*
X0123005Y0073867D01*
X0128746Y0071870D02*
X0133689Y0071870D01*
X0132985Y0072869D02*
X0129582Y0072869D01*
X0129995Y0073867D02*
X0132664Y0073867D01*
X0132600Y0074866D02*
X0130000Y0074866D01*
X0130000Y0075864D02*
X0132600Y0075864D01*
X0132600Y0077861D02*
X0130000Y0077861D01*
X0130000Y0076863D02*
X0136200Y0076863D01*
X0136800Y0076863D02*
X0143000Y0076863D01*
X0143000Y0077861D02*
X0140400Y0077861D01*
X0140400Y0077275D02*
X0140400Y0079759D01*
X0140250Y0080512D01*
X0139956Y0081222D01*
X0139529Y0081861D01*
X0138986Y0082404D01*
X0138347Y0082831D01*
X0137638Y0083125D01*
X0136884Y0083275D01*
X0136800Y0083274D01*
X0136800Y0077275D01*
X0140400Y0077275D01*
X0140400Y0075864D02*
X0143000Y0075864D01*
X0143000Y0074866D02*
X0140400Y0074866D01*
X0140336Y0073867D02*
X0143005Y0073867D01*
X0143000Y0073878D02*
X0143533Y0072592D01*
X0144517Y0071607D01*
X0145804Y0071075D01*
X0147196Y0071075D01*
X0148483Y0071607D01*
X0149467Y0072592D01*
X0150000Y0073878D01*
X0150000Y0080071D01*
X0149467Y0081357D01*
X0148483Y0082342D01*
X0147196Y0082875D01*
X0145804Y0082875D01*
X0144517Y0082342D01*
X0143533Y0081357D01*
X0143000Y0080071D01*
X0143000Y0073878D01*
X0143418Y0072869D02*
X0140015Y0072869D01*
X0139311Y0071870D02*
X0144254Y0071870D01*
X0148746Y0071870D02*
X0154254Y0071870D01*
X0154517Y0071607D02*
X0155804Y0071075D01*
X0157196Y0071075D01*
X0158483Y0071607D01*
X0159467Y0072592D01*
X0160000Y0073878D01*
X0160000Y0080071D01*
X0159467Y0081357D01*
X0158483Y0082342D01*
X0157196Y0082875D01*
X0155804Y0082875D01*
X0154517Y0082342D01*
X0153533Y0081357D01*
X0153000Y0080071D01*
X0153000Y0073878D01*
X0153533Y0072592D01*
X0154517Y0071607D01*
X0153418Y0072869D02*
X0149582Y0072869D01*
X0149995Y0073867D02*
X0153005Y0073867D01*
X0153000Y0074866D02*
X0150000Y0074866D01*
X0150000Y0075864D02*
X0153000Y0075864D01*
X0153000Y0076863D02*
X0150000Y0076863D01*
X0150000Y0077861D02*
X0153000Y0077861D01*
X0153000Y0078860D02*
X0150000Y0078860D01*
X0150000Y0079858D02*
X0153000Y0079858D01*
X0153326Y0080857D02*
X0149674Y0080857D01*
X0148969Y0081855D02*
X0154031Y0081855D01*
X0155754Y0082854D02*
X0147246Y0082854D01*
X0145754Y0082854D02*
X0138291Y0082854D01*
X0138195Y0083804D02*
X0138781Y0084195D01*
X0139279Y0084694D01*
X0139671Y0085280D01*
X0139940Y0085931D01*
X0140078Y0086622D01*
X0140078Y0086786D01*
X0136689Y0086786D01*
X0136689Y0087163D01*
X0140078Y0087163D01*
X0140078Y0087327D01*
X0139940Y0088018D01*
X0139671Y0088669D01*
X0139279Y0089255D01*
X0138781Y0089754D01*
X0138195Y0090145D01*
X0137544Y0090415D01*
X0136852Y0090552D01*
X0136689Y0090552D01*
X0136689Y0087164D01*
X0136311Y0087164D01*
X0136311Y0090552D01*
X0136148Y0090552D01*
X0135456Y0090415D01*
X0134805Y0090145D01*
X0134219Y0089754D01*
X0133721Y0089255D01*
X0133329Y0088669D01*
X0133060Y0088018D01*
X0132922Y0087327D01*
X0132922Y0087163D01*
X0136311Y0087163D01*
X0136311Y0086786D01*
X0132922Y0086786D01*
X0132922Y0086622D01*
X0133060Y0085931D01*
X0133329Y0085280D01*
X0133721Y0084694D01*
X0134219Y0084195D01*
X0134805Y0083804D01*
X0135456Y0083534D01*
X0136148Y0083397D01*
X0136311Y0083397D01*
X0136311Y0086785D01*
X0136689Y0086785D01*
X0136689Y0083397D01*
X0136852Y0083397D01*
X0137544Y0083534D01*
X0138195Y0083804D01*
X0138268Y0083852D02*
X0205733Y0083852D01*
X0205868Y0083797D02*
X0207132Y0083797D01*
X0208300Y0084280D01*
X0209194Y0085174D01*
X0209678Y0086342D01*
X0209678Y0087607D01*
X0209194Y0088775D01*
X0208300Y0089669D01*
X0207132Y0090152D01*
X0205868Y0090152D01*
X0204700Y0089669D01*
X0203806Y0088775D01*
X0203322Y0087607D01*
X0203322Y0086342D01*
X0203806Y0085174D01*
X0204700Y0084280D01*
X0205868Y0083797D01*
X0205804Y0082875D02*
X0204517Y0082342D01*
X0203533Y0081357D01*
X0203000Y0080071D01*
X0203000Y0073878D01*
X0203533Y0072592D01*
X0204517Y0071607D01*
X0205804Y0071075D01*
X0207196Y0071075D01*
X0208483Y0071607D01*
X0209467Y0072592D01*
X0210000Y0073878D01*
X0210000Y0080071D01*
X0209467Y0081357D01*
X0208483Y0082342D01*
X0207196Y0082875D01*
X0205804Y0082875D01*
X0205754Y0082854D02*
X0197246Y0082854D01*
X0197196Y0082875D02*
X0195804Y0082875D01*
X0194517Y0082342D01*
X0193533Y0081357D01*
X0193000Y0080071D01*
X0193000Y0073878D01*
X0193533Y0072592D01*
X0194517Y0071607D01*
X0195804Y0071075D01*
X0197196Y0071075D01*
X0198483Y0071607D01*
X0199467Y0072592D01*
X0200000Y0073878D01*
X0200000Y0080071D01*
X0199467Y0081357D01*
X0198483Y0082342D01*
X0197196Y0082875D01*
X0195754Y0082854D02*
X0187246Y0082854D01*
X0187196Y0082875D02*
X0185804Y0082875D01*
X0184517Y0082342D01*
X0183533Y0081357D01*
X0183000Y0080071D01*
X0183000Y0073878D01*
X0183533Y0072592D01*
X0184517Y0071607D01*
X0185804Y0071075D01*
X0187196Y0071075D01*
X0188483Y0071607D01*
X0189467Y0072592D01*
X0190000Y0073878D01*
X0190000Y0080071D01*
X0189467Y0081357D01*
X0188483Y0082342D01*
X0187196Y0082875D01*
X0185754Y0082854D02*
X0177246Y0082854D01*
X0177196Y0082875D02*
X0175804Y0082875D01*
X0174517Y0082342D01*
X0173533Y0081357D01*
X0173000Y0080071D01*
X0173000Y0073878D01*
X0173533Y0072592D01*
X0174517Y0071607D01*
X0175804Y0071075D01*
X0177196Y0071075D01*
X0178483Y0071607D01*
X0179467Y0072592D01*
X0180000Y0073878D01*
X0180000Y0080071D01*
X0179467Y0081357D01*
X0178483Y0082342D01*
X0177196Y0082875D01*
X0175754Y0082854D02*
X0167246Y0082854D01*
X0167196Y0082875D02*
X0165804Y0082875D01*
X0164517Y0082342D01*
X0163533Y0081357D01*
X0163000Y0080071D01*
X0163000Y0073878D01*
X0163533Y0072592D01*
X0164517Y0071607D01*
X0165804Y0071075D01*
X0167196Y0071075D01*
X0168483Y0071607D01*
X0169467Y0072592D01*
X0170000Y0073878D01*
X0170000Y0080071D01*
X0169467Y0081357D01*
X0168483Y0082342D01*
X0167196Y0082875D01*
X0165754Y0082854D02*
X0157246Y0082854D01*
X0158969Y0081855D02*
X0164031Y0081855D01*
X0163326Y0080857D02*
X0159674Y0080857D01*
X0160000Y0079858D02*
X0163000Y0079858D01*
X0163000Y0078860D02*
X0160000Y0078860D01*
X0160000Y0077861D02*
X0163000Y0077861D01*
X0163000Y0076863D02*
X0160000Y0076863D01*
X0160000Y0075864D02*
X0163000Y0075864D01*
X0163000Y0074866D02*
X0160000Y0074866D01*
X0159995Y0073867D02*
X0163005Y0073867D01*
X0163418Y0072869D02*
X0159582Y0072869D01*
X0158746Y0071870D02*
X0164254Y0071870D01*
X0168746Y0071870D02*
X0174254Y0071870D01*
X0173418Y0072869D02*
X0169582Y0072869D01*
X0169995Y0073867D02*
X0173005Y0073867D01*
X0173000Y0074866D02*
X0170000Y0074866D01*
X0170000Y0075864D02*
X0173000Y0075864D01*
X0173000Y0076863D02*
X0170000Y0076863D01*
X0170000Y0077861D02*
X0173000Y0077861D01*
X0173000Y0078860D02*
X0170000Y0078860D01*
X0170000Y0079858D02*
X0173000Y0079858D01*
X0173326Y0080857D02*
X0169674Y0080857D01*
X0168969Y0081855D02*
X0174031Y0081855D01*
X0178969Y0081855D02*
X0184031Y0081855D01*
X0183326Y0080857D02*
X0179674Y0080857D01*
X0180000Y0079858D02*
X0183000Y0079858D01*
X0183000Y0078860D02*
X0180000Y0078860D01*
X0180000Y0077861D02*
X0183000Y0077861D01*
X0183000Y0076863D02*
X0180000Y0076863D01*
X0180000Y0075864D02*
X0183000Y0075864D01*
X0183000Y0074866D02*
X0180000Y0074866D01*
X0179995Y0073867D02*
X0183005Y0073867D01*
X0183418Y0072869D02*
X0179582Y0072869D01*
X0178746Y0071870D02*
X0184254Y0071870D01*
X0188746Y0071870D02*
X0194254Y0071870D01*
X0193418Y0072869D02*
X0189582Y0072869D01*
X0189995Y0073867D02*
X0193005Y0073867D01*
X0193000Y0074866D02*
X0190000Y0074866D01*
X0190000Y0075864D02*
X0193000Y0075864D01*
X0193000Y0076863D02*
X0190000Y0076863D01*
X0190000Y0077861D02*
X0193000Y0077861D01*
X0193000Y0078860D02*
X0190000Y0078860D01*
X0190000Y0079858D02*
X0193000Y0079858D01*
X0193326Y0080857D02*
X0189674Y0080857D01*
X0188969Y0081855D02*
X0194031Y0081855D01*
X0198969Y0081855D02*
X0204031Y0081855D01*
X0203326Y0080857D02*
X0199674Y0080857D01*
X0200000Y0079858D02*
X0203000Y0079858D01*
X0203000Y0078860D02*
X0200000Y0078860D01*
X0200000Y0077861D02*
X0203000Y0077861D01*
X0203000Y0076863D02*
X0200000Y0076863D01*
X0200000Y0075864D02*
X0203000Y0075864D01*
X0203000Y0074866D02*
X0200000Y0074866D01*
X0199995Y0073867D02*
X0203005Y0073867D01*
X0203418Y0072869D02*
X0199582Y0072869D01*
X0198746Y0071870D02*
X0204254Y0071870D01*
X0208746Y0071870D02*
X0214254Y0071870D01*
X0214517Y0071607D02*
X0215804Y0071075D01*
X0217196Y0071075D01*
X0218483Y0071607D01*
X0219467Y0072592D01*
X0220000Y0073878D01*
X0220000Y0080071D01*
X0219467Y0081357D01*
X0218483Y0082342D01*
X0217196Y0082875D01*
X0215804Y0082875D01*
X0214517Y0082342D01*
X0213533Y0081357D01*
X0213000Y0080071D01*
X0213000Y0073878D01*
X0213533Y0072592D01*
X0214517Y0071607D01*
X0213418Y0072869D02*
X0209582Y0072869D01*
X0209995Y0073867D02*
X0213005Y0073867D01*
X0213000Y0074866D02*
X0210000Y0074866D01*
X0210000Y0075864D02*
X0213000Y0075864D01*
X0213000Y0076863D02*
X0210000Y0076863D01*
X0210000Y0077861D02*
X0213000Y0077861D01*
X0213000Y0078860D02*
X0210000Y0078860D01*
X0210000Y0079858D02*
X0213000Y0079858D01*
X0213326Y0080857D02*
X0209674Y0080857D01*
X0208969Y0081855D02*
X0214031Y0081855D01*
X0215754Y0082854D02*
X0207246Y0082854D01*
X0207267Y0083852D02*
X0229308Y0083852D01*
X0229372Y0083789D02*
X0230753Y0083217D01*
X0232247Y0083217D01*
X0233628Y0083789D01*
X0234685Y0084846D01*
X0235257Y0086227D01*
X0235257Y0087722D01*
X0234685Y0089103D01*
X0233628Y0090160D01*
X0232247Y0090732D01*
X0230753Y0090732D01*
X0229372Y0090160D01*
X0228315Y0089103D01*
X0227743Y0087722D01*
X0227743Y0086227D01*
X0228315Y0084846D01*
X0229372Y0083789D01*
X0228313Y0084851D02*
X0208871Y0084851D01*
X0209474Y0085849D02*
X0227899Y0085849D01*
X0227743Y0086848D02*
X0209678Y0086848D01*
X0209579Y0087846D02*
X0227794Y0087846D01*
X0228208Y0088845D02*
X0209124Y0088845D01*
X0207878Y0089844D02*
X0229055Y0089844D01*
X0233945Y0089844D02*
X0412886Y0089844D01*
X0412886Y0090842D02*
X0107877Y0090842D01*
X0107316Y0091075D02*
X0105684Y0091075D01*
X0104178Y0090450D01*
X0103024Y0089297D01*
X0102400Y0087790D01*
X0102400Y0086159D01*
X0103024Y0084652D01*
X0104178Y0083499D01*
X0105684Y0082875D01*
X0107316Y0082875D01*
X0108822Y0083499D01*
X0109976Y0084652D01*
X0110600Y0086159D01*
X0110600Y0087790D01*
X0109976Y0089297D01*
X0108822Y0090450D01*
X0107316Y0091075D01*
X0105123Y0090842D02*
X0003500Y0090842D01*
X0003500Y0089844D02*
X0103571Y0089844D01*
X0102837Y0088845D02*
X0003500Y0088845D01*
X0003500Y0087846D02*
X0102423Y0087846D01*
X0102400Y0086848D02*
X0003500Y0086848D01*
X0003500Y0085849D02*
X0102528Y0085849D01*
X0102942Y0084851D02*
X0003500Y0084851D01*
X0003500Y0083852D02*
X0103824Y0083852D01*
X0109176Y0083852D02*
X0114308Y0083852D01*
X0114372Y0083789D02*
X0115753Y0083217D01*
X0117247Y0083217D01*
X0118628Y0083789D01*
X0119685Y0084846D01*
X0120257Y0086227D01*
X0120257Y0087722D01*
X0119685Y0089103D01*
X0118628Y0090160D01*
X0117247Y0090732D01*
X0115753Y0090732D01*
X0114372Y0090160D01*
X0113315Y0089103D01*
X0112743Y0087722D01*
X0112743Y0086227D01*
X0113315Y0084846D01*
X0114372Y0083789D01*
X0113313Y0084851D02*
X0110058Y0084851D01*
X0110472Y0085849D02*
X0112899Y0085849D01*
X0112743Y0086848D02*
X0110600Y0086848D01*
X0110577Y0087846D02*
X0112794Y0087846D01*
X0113208Y0088845D02*
X0110163Y0088845D01*
X0109429Y0089844D02*
X0114055Y0089844D01*
X0118945Y0089844D02*
X0125122Y0089844D01*
X0124700Y0089669D02*
X0125868Y0090152D01*
X0127132Y0090152D01*
X0128300Y0089669D01*
X0129194Y0088775D01*
X0129678Y0087607D01*
X0129678Y0086342D01*
X0129194Y0085174D01*
X0128300Y0084280D01*
X0127132Y0083797D01*
X0125868Y0083797D01*
X0124700Y0084280D01*
X0123806Y0085174D01*
X0123322Y0086342D01*
X0123322Y0087607D01*
X0123806Y0088775D01*
X0124700Y0089669D01*
X0123876Y0088845D02*
X0119792Y0088845D01*
X0120206Y0087846D02*
X0123421Y0087846D01*
X0123322Y0086848D02*
X0120257Y0086848D01*
X0120101Y0085849D02*
X0123526Y0085849D01*
X0124129Y0084851D02*
X0119687Y0084851D01*
X0118692Y0083852D02*
X0125733Y0083852D01*
X0125754Y0082854D02*
X0003500Y0082854D01*
X0003500Y0091841D02*
X0412886Y0091841D01*
X0412886Y0092839D02*
X0003500Y0092839D01*
X0003500Y0093838D02*
X0204755Y0093838D01*
X0204805Y0093804D02*
X0205456Y0093534D01*
X0206148Y0093397D01*
X0206311Y0093397D01*
X0206311Y0096785D01*
X0206689Y0096785D01*
X0206689Y0093397D01*
X0206852Y0093397D01*
X0207544Y0093534D01*
X0208195Y0093804D01*
X0208781Y0094195D01*
X0209279Y0094694D01*
X0209671Y0095280D01*
X0209940Y0095931D01*
X0210078Y0096622D01*
X0210078Y0096786D01*
X0206689Y0096786D01*
X0206689Y0097163D01*
X0210078Y0097163D01*
X0210078Y0097327D01*
X0209940Y0098018D01*
X0209671Y0098669D01*
X0209279Y0099255D01*
X0208781Y0099754D01*
X0208195Y0100145D01*
X0207544Y0100415D01*
X0206852Y0100552D01*
X0206689Y0100552D01*
X0206689Y0097164D01*
X0206311Y0097164D01*
X0206311Y0100552D01*
X0206148Y0100552D01*
X0205456Y0100415D01*
X0204805Y0100145D01*
X0204219Y0099754D01*
X0203721Y0099255D01*
X0203329Y0098669D01*
X0203060Y0098018D01*
X0202922Y0097327D01*
X0202922Y0097163D01*
X0206311Y0097163D01*
X0206311Y0096786D01*
X0202922Y0096786D01*
X0202922Y0096622D01*
X0203060Y0095931D01*
X0203329Y0095280D01*
X0203721Y0094694D01*
X0204219Y0094195D01*
X0204805Y0093804D01*
X0206311Y0093838D02*
X0206689Y0093838D01*
X0206689Y0094836D02*
X0206311Y0094836D01*
X0206311Y0095835D02*
X0206689Y0095835D01*
X0206689Y0096833D02*
X0412886Y0096833D01*
X0412886Y0095835D02*
X0209901Y0095835D01*
X0209374Y0094836D02*
X0412886Y0094836D01*
X0412886Y0093838D02*
X0208245Y0093838D01*
X0206311Y0096833D02*
X0003500Y0096833D01*
X0003500Y0095835D02*
X0203099Y0095835D01*
X0203626Y0094836D02*
X0003500Y0094836D01*
X0003500Y0097832D02*
X0203022Y0097832D01*
X0203437Y0098830D02*
X0071462Y0098830D01*
X0071709Y0098932D02*
X0072849Y0100073D01*
X0073466Y0101562D01*
X0073466Y0103174D01*
X0072849Y0104664D01*
X0071709Y0105804D01*
X0070220Y0106421D01*
X0068607Y0106421D01*
X0067118Y0105804D01*
X0065978Y0104664D01*
X0065361Y0103174D01*
X0065361Y0101562D01*
X0065978Y0100073D01*
X0067118Y0098932D01*
X0068607Y0098315D01*
X0070220Y0098315D01*
X0071709Y0098932D01*
X0072605Y0099829D02*
X0204331Y0099829D01*
X0206311Y0099829D02*
X0206689Y0099829D01*
X0206689Y0098830D02*
X0206311Y0098830D01*
X0206311Y0097832D02*
X0206689Y0097832D01*
X0208669Y0099829D02*
X0412886Y0099829D01*
X0412886Y0100827D02*
X0073162Y0100827D01*
X0073466Y0101826D02*
X0104089Y0101826D01*
X0104219Y0101695D02*
X0103721Y0102194D01*
X0103329Y0102780D01*
X0103060Y0103431D01*
X0102922Y0104122D01*
X0102922Y0104286D01*
X0106311Y0104286D01*
X0106311Y0104663D01*
X0102922Y0104663D01*
X0102922Y0104827D01*
X0103060Y0105518D01*
X0103329Y0106169D01*
X0103721Y0106755D01*
X0104219Y0107254D01*
X0104805Y0107645D01*
X0105456Y0107915D01*
X0106148Y0108052D01*
X0106311Y0108052D01*
X0106311Y0104664D01*
X0106689Y0104664D01*
X0106689Y0108052D01*
X0106852Y0108052D01*
X0107544Y0107915D01*
X0108195Y0107645D01*
X0108781Y0107254D01*
X0109279Y0106755D01*
X0109671Y0106169D01*
X0109940Y0105518D01*
X0110078Y0104827D01*
X0110078Y0104663D01*
X0106689Y0104663D01*
X0106689Y0104286D01*
X0110078Y0104286D01*
X0110078Y0104122D01*
X0109940Y0103431D01*
X0109671Y0102780D01*
X0109279Y0102194D01*
X0108781Y0101695D01*
X0108195Y0101304D01*
X0107544Y0101034D01*
X0106852Y0100897D01*
X0106689Y0100897D01*
X0106689Y0104285D01*
X0106311Y0104285D01*
X0106311Y0100897D01*
X0106148Y0100897D01*
X0105456Y0101034D01*
X0104805Y0101304D01*
X0104219Y0101695D01*
X0103311Y0102824D02*
X0073466Y0102824D01*
X0073198Y0103823D02*
X0102982Y0103823D01*
X0102922Y0104821D02*
X0072692Y0104821D01*
X0071671Y0105820D02*
X0084502Y0105820D01*
X0084811Y0105510D02*
X0085907Y0105056D01*
X0087093Y0105056D01*
X0088189Y0105510D01*
X0089027Y0106349D01*
X0089481Y0107445D01*
X0089481Y0108630D01*
X0089027Y0109726D01*
X0088189Y0110565D01*
X0087093Y0111019D01*
X0085907Y0111019D01*
X0084811Y0110565D01*
X0083973Y0109726D01*
X0083519Y0108630D01*
X0083519Y0107445D01*
X0083973Y0106349D01*
X0084811Y0105510D01*
X0083778Y0106818D02*
X0003500Y0106818D01*
X0003500Y0105820D02*
X0047471Y0105820D01*
X0047433Y0105804D02*
X0046293Y0104664D01*
X0045676Y0103174D01*
X0045676Y0101562D01*
X0046293Y0100073D01*
X0047433Y0098932D01*
X0048922Y0098315D01*
X0050534Y0098315D01*
X0052024Y0098932D01*
X0053164Y0100073D01*
X0053781Y0101562D01*
X0053781Y0103174D01*
X0053164Y0104664D01*
X0052024Y0105804D01*
X0050534Y0106421D01*
X0048922Y0106421D01*
X0047433Y0105804D01*
X0046450Y0104821D02*
X0003500Y0104821D01*
X0003500Y0103823D02*
X0045944Y0103823D01*
X0045676Y0102824D02*
X0003500Y0102824D01*
X0003500Y0101826D02*
X0045676Y0101826D01*
X0045980Y0100827D02*
X0003500Y0100827D01*
X0003500Y0099829D02*
X0046536Y0099829D01*
X0047680Y0098830D02*
X0003500Y0098830D01*
X0003500Y0107817D02*
X0083519Y0107817D01*
X0083595Y0108815D02*
X0003500Y0108815D01*
X0003500Y0109814D02*
X0084060Y0109814D01*
X0085409Y0110812D02*
X0003500Y0110812D01*
X0003500Y0111811D02*
X0412886Y0111811D01*
X0412886Y0112809D02*
X0087846Y0112809D01*
X0088102Y0112915D02*
X0088655Y0113285D01*
X0089126Y0113756D01*
X0089496Y0114310D01*
X0089751Y0114925D01*
X0089881Y0115579D01*
X0089881Y0115821D01*
X0086591Y0115821D01*
X0086591Y0116002D01*
X0089881Y0116002D01*
X0089881Y0116245D01*
X0089751Y0116898D01*
X0089496Y0117513D01*
X0089126Y0118067D01*
X0088655Y0118538D01*
X0088102Y0118908D01*
X0087486Y0119163D01*
X0086833Y0119293D01*
X0086591Y0119293D01*
X0086591Y0116002D01*
X0086409Y0116002D01*
X0086409Y0115821D01*
X0083119Y0115821D01*
X0083119Y0115579D01*
X0083249Y0114925D01*
X0083504Y0114310D01*
X0083874Y0113756D01*
X0084345Y0113285D01*
X0084898Y0112915D01*
X0085514Y0112660D01*
X0086167Y0112530D01*
X0086409Y0112530D01*
X0086409Y0115821D01*
X0086591Y0115821D01*
X0086591Y0112530D01*
X0086833Y0112530D01*
X0087486Y0112660D01*
X0088102Y0112915D01*
X0089161Y0113808D02*
X0099353Y0113808D01*
X0099372Y0113789D02*
X0100753Y0113217D01*
X0102247Y0113217D01*
X0103628Y0113789D01*
X0104685Y0114846D01*
X0105257Y0116227D01*
X0105257Y0117722D01*
X0104685Y0119103D01*
X0103628Y0120160D01*
X0102247Y0120732D01*
X0100753Y0120732D01*
X0099372Y0120160D01*
X0098315Y0119103D01*
X0097743Y0117722D01*
X0097743Y0116227D01*
X0098315Y0114846D01*
X0099372Y0113789D01*
X0098354Y0114806D02*
X0089702Y0114806D01*
X0089881Y0115805D02*
X0097917Y0115805D01*
X0097743Y0116803D02*
X0089770Y0116803D01*
X0089303Y0117802D02*
X0097776Y0117802D01*
X0098189Y0118800D02*
X0088262Y0118800D01*
X0086591Y0118800D02*
X0086409Y0118800D01*
X0086409Y0119293D02*
X0086167Y0119293D01*
X0085514Y0119163D01*
X0084898Y0118908D01*
X0084345Y0118538D01*
X0083874Y0118067D01*
X0083504Y0117513D01*
X0083249Y0116898D01*
X0083119Y0116245D01*
X0083119Y0116002D01*
X0086409Y0116002D01*
X0086409Y0119293D01*
X0086409Y0117802D02*
X0086591Y0117802D01*
X0086591Y0116803D02*
X0086409Y0116803D01*
X0086409Y0115805D02*
X0086591Y0115805D01*
X0086591Y0114806D02*
X0086409Y0114806D01*
X0086409Y0113808D02*
X0086591Y0113808D01*
X0086591Y0112809D02*
X0086409Y0112809D01*
X0085154Y0112809D02*
X0003500Y0112809D01*
X0003500Y0113808D02*
X0083839Y0113808D01*
X0083298Y0114806D02*
X0003500Y0114806D01*
X0003500Y0115805D02*
X0083119Y0115805D01*
X0083230Y0116803D02*
X0003500Y0116803D01*
X0003500Y0117802D02*
X0083697Y0117802D01*
X0084738Y0118800D02*
X0003500Y0118800D01*
X0003500Y0119799D02*
X0099010Y0119799D01*
X0103990Y0119799D02*
X0139010Y0119799D01*
X0139372Y0120160D02*
X0138315Y0119103D01*
X0137743Y0117722D01*
X0137743Y0116227D01*
X0138315Y0114846D01*
X0139372Y0113789D01*
X0140753Y0113217D01*
X0142247Y0113217D01*
X0143628Y0113789D01*
X0144685Y0114846D01*
X0145257Y0116227D01*
X0145257Y0117722D01*
X0144685Y0119103D01*
X0143628Y0120160D01*
X0142247Y0120732D01*
X0140753Y0120732D01*
X0139372Y0120160D01*
X0138189Y0118800D02*
X0104811Y0118800D01*
X0105224Y0117802D02*
X0137776Y0117802D01*
X0137743Y0116803D02*
X0105257Y0116803D01*
X0105083Y0115805D02*
X0137917Y0115805D01*
X0138354Y0114806D02*
X0104646Y0114806D01*
X0103647Y0113808D02*
X0139353Y0113808D01*
X0143647Y0113808D02*
X0412886Y0113808D01*
X0412886Y0114806D02*
X0144646Y0114806D01*
X0145083Y0115805D02*
X0412886Y0115805D01*
X0412886Y0116803D02*
X0145257Y0116803D01*
X0145224Y0117802D02*
X0412886Y0117802D01*
X0412886Y0118800D02*
X0388187Y0118800D01*
X0388195Y0118804D02*
X0388781Y0119195D01*
X0389279Y0119694D01*
X0389671Y0120280D01*
X0389940Y0120931D01*
X0390078Y0121622D01*
X0390078Y0121786D01*
X0386689Y0121786D01*
X0386689Y0122163D01*
X0390078Y0122163D01*
X0390078Y0122327D01*
X0389940Y0123018D01*
X0389671Y0123669D01*
X0389279Y0124255D01*
X0388781Y0124754D01*
X0388195Y0125145D01*
X0387544Y0125415D01*
X0386852Y0125552D01*
X0386689Y0125552D01*
X0386689Y0122164D01*
X0386311Y0122164D01*
X0386311Y0125552D01*
X0386148Y0125552D01*
X0385456Y0125415D01*
X0384805Y0125145D01*
X0384219Y0124754D01*
X0383721Y0124255D01*
X0383329Y0123669D01*
X0383060Y0123018D01*
X0382922Y0122327D01*
X0382922Y0122163D01*
X0386311Y0122163D01*
X0386311Y0121786D01*
X0382922Y0121786D01*
X0382922Y0121622D01*
X0383060Y0120931D01*
X0383329Y0120280D01*
X0383721Y0119694D01*
X0384219Y0119195D01*
X0384805Y0118804D01*
X0385456Y0118534D01*
X0386148Y0118397D01*
X0386311Y0118397D01*
X0386311Y0121785D01*
X0386689Y0121785D01*
X0386689Y0118397D01*
X0386852Y0118397D01*
X0387544Y0118534D01*
X0388195Y0118804D01*
X0386689Y0118800D02*
X0386311Y0118800D01*
X0386311Y0119799D02*
X0386689Y0119799D01*
X0386689Y0120797D02*
X0386311Y0120797D01*
X0386311Y0121796D02*
X0379678Y0121796D01*
X0379678Y0121342D02*
X0379194Y0120174D01*
X0378300Y0119280D01*
X0377132Y0118797D01*
X0375868Y0118797D01*
X0374700Y0119280D01*
X0373806Y0120174D01*
X0373322Y0121342D01*
X0373322Y0122607D01*
X0373806Y0123775D01*
X0374700Y0124669D01*
X0375868Y0125152D01*
X0377132Y0125152D01*
X0378300Y0124669D01*
X0379194Y0123775D01*
X0379678Y0122607D01*
X0379678Y0121342D01*
X0379452Y0120797D02*
X0383115Y0120797D01*
X0383651Y0119799D02*
X0378819Y0119799D01*
X0377141Y0118800D02*
X0384813Y0118800D01*
X0389349Y0119799D02*
X0412886Y0119799D01*
X0412886Y0120797D02*
X0389885Y0120797D01*
X0389985Y0122794D02*
X0412886Y0122794D01*
X0412886Y0121796D02*
X0386689Y0121796D01*
X0386689Y0122794D02*
X0386311Y0122794D01*
X0386311Y0123793D02*
X0386689Y0123793D01*
X0386689Y0124791D02*
X0386311Y0124791D01*
X0384276Y0124791D02*
X0378004Y0124791D01*
X0379176Y0123793D02*
X0383412Y0123793D01*
X0383015Y0122794D02*
X0379600Y0122794D01*
X0374996Y0124791D02*
X0371497Y0124791D01*
X0371128Y0125160D02*
X0372185Y0124103D01*
X0372757Y0122722D01*
X0372757Y0121227D01*
X0372185Y0119846D01*
X0371128Y0118789D01*
X0369747Y0118217D01*
X0368253Y0118217D01*
X0366872Y0118789D01*
X0365815Y0119846D01*
X0365243Y0121227D01*
X0365243Y0122722D01*
X0365815Y0124103D01*
X0366872Y0125160D01*
X0368253Y0125732D01*
X0369747Y0125732D01*
X0371128Y0125160D01*
X0372314Y0123793D02*
X0373824Y0123793D01*
X0373400Y0122794D02*
X0372727Y0122794D01*
X0372757Y0121796D02*
X0373322Y0121796D01*
X0373548Y0120797D02*
X0372579Y0120797D01*
X0372138Y0119799D02*
X0374181Y0119799D01*
X0375859Y0118800D02*
X0371140Y0118800D01*
X0366860Y0118800D02*
X0361140Y0118800D01*
X0361128Y0118789D02*
X0362185Y0119846D01*
X0362757Y0121227D01*
X0362757Y0122722D01*
X0362185Y0124103D01*
X0361128Y0125160D01*
X0359747Y0125732D01*
X0358253Y0125732D01*
X0356872Y0125160D01*
X0355815Y0124103D01*
X0355243Y0122722D01*
X0355243Y0121227D01*
X0355815Y0119846D01*
X0356872Y0118789D01*
X0358253Y0118217D01*
X0359747Y0118217D01*
X0361128Y0118789D01*
X0362138Y0119799D02*
X0365862Y0119799D01*
X0365421Y0120797D02*
X0362579Y0120797D01*
X0362757Y0121796D02*
X0365243Y0121796D01*
X0365273Y0122794D02*
X0362727Y0122794D01*
X0362314Y0123793D02*
X0365686Y0123793D01*
X0366503Y0124791D02*
X0361497Y0124791D01*
X0356503Y0124791D02*
X0234631Y0124791D01*
X0234685Y0124846D02*
X0235257Y0126227D01*
X0235257Y0127722D01*
X0234685Y0129103D01*
X0234024Y0129764D01*
X0234205Y0129764D01*
X0235712Y0130388D01*
X0236866Y0131542D01*
X0237490Y0133049D01*
X0237490Y0134680D01*
X0236866Y0136187D01*
X0235712Y0137340D01*
X0234205Y0137964D01*
X0232574Y0137964D01*
X0231067Y0137340D01*
X0229914Y0136187D01*
X0229290Y0134680D01*
X0229290Y0133049D01*
X0229914Y0131542D01*
X0230732Y0130724D01*
X0229372Y0130160D01*
X0228315Y0129103D01*
X0227743Y0127722D01*
X0227743Y0126227D01*
X0228315Y0124846D01*
X0229372Y0123789D01*
X0230753Y0123217D01*
X0232247Y0123217D01*
X0233628Y0123789D01*
X0234685Y0124846D01*
X0235076Y0125790D02*
X0412886Y0125790D01*
X0412886Y0126788D02*
X0407590Y0126788D01*
X0406537Y0126352D02*
X0409298Y0127496D01*
X0411412Y0129609D01*
X0412555Y0132370D01*
X0412555Y0135358D01*
X0411412Y0138119D01*
X0409298Y0140232D01*
X0406537Y0141376D01*
X0403549Y0141376D01*
X0400788Y0140232D01*
X0398675Y0138119D01*
X0397531Y0135358D01*
X0397531Y0132370D01*
X0398675Y0129609D01*
X0400788Y0127496D01*
X0403549Y0126352D01*
X0406537Y0126352D01*
X0409589Y0127787D02*
X0412886Y0127787D01*
X0412886Y0128785D02*
X0410588Y0128785D01*
X0411484Y0129784D02*
X0412886Y0129784D01*
X0412886Y0130782D02*
X0411897Y0130782D01*
X0412311Y0131781D02*
X0412886Y0131781D01*
X0412886Y0132780D02*
X0412555Y0132780D01*
X0412555Y0133778D02*
X0412886Y0133778D01*
X0412886Y0134777D02*
X0412555Y0134777D01*
X0412383Y0135775D02*
X0412886Y0135775D01*
X0412886Y0136774D02*
X0411969Y0136774D01*
X0411555Y0137772D02*
X0412886Y0137772D01*
X0412886Y0138771D02*
X0410760Y0138771D01*
X0409762Y0139769D02*
X0412886Y0139769D01*
X0412886Y0140768D02*
X0408007Y0140768D01*
X0402080Y0140768D02*
X0112731Y0140768D01*
X0114023Y0140232D02*
X0111262Y0141376D01*
X0108274Y0141376D01*
X0105513Y0140232D01*
X0103400Y0138119D01*
X0102256Y0135358D01*
X0102256Y0132370D01*
X0103400Y0129609D01*
X0105513Y0127496D01*
X0108274Y0126352D01*
X0111262Y0126352D01*
X0114023Y0127496D01*
X0116136Y0129609D01*
X0117280Y0132370D01*
X0117280Y0135358D01*
X0116136Y0138119D01*
X0114023Y0140232D01*
X0114486Y0139769D02*
X0400325Y0139769D01*
X0399326Y0138771D02*
X0115485Y0138771D01*
X0116280Y0137772D02*
X0232110Y0137772D01*
X0230501Y0136774D02*
X0116693Y0136774D01*
X0117107Y0135775D02*
X0229743Y0135775D01*
X0229330Y0134777D02*
X0117280Y0134777D01*
X0117280Y0133778D02*
X0229290Y0133778D01*
X0229401Y0132780D02*
X0117280Y0132780D01*
X0117036Y0131781D02*
X0229815Y0131781D01*
X0230673Y0130782D02*
X0116622Y0130782D01*
X0116208Y0129784D02*
X0228996Y0129784D01*
X0228183Y0128785D02*
X0115312Y0128785D01*
X0114314Y0127787D02*
X0227769Y0127787D01*
X0227743Y0126788D02*
X0112314Y0126788D01*
X0107221Y0126788D02*
X0003500Y0126788D01*
X0003500Y0125790D02*
X0227924Y0125790D01*
X0228369Y0124791D02*
X0003500Y0124791D01*
X0003500Y0123793D02*
X0229368Y0123793D01*
X0233632Y0123793D02*
X0355686Y0123793D01*
X0355273Y0122794D02*
X0003500Y0122794D01*
X0003500Y0121796D02*
X0355243Y0121796D01*
X0355421Y0120797D02*
X0003500Y0120797D01*
X0003500Y0127787D02*
X0105222Y0127787D01*
X0104223Y0128785D02*
X0003500Y0128785D01*
X0003500Y0129784D02*
X0103327Y0129784D01*
X0102914Y0130782D02*
X0003500Y0130782D01*
X0003500Y0131781D02*
X0102500Y0131781D01*
X0102256Y0132780D02*
X0003500Y0132780D01*
X0003500Y0133778D02*
X0102256Y0133778D01*
X0102256Y0134777D02*
X0003500Y0134777D01*
X0003500Y0135775D02*
X0102428Y0135775D01*
X0102842Y0136774D02*
X0003500Y0136774D01*
X0003500Y0137772D02*
X0103256Y0137772D01*
X0104051Y0138771D02*
X0003500Y0138771D01*
X0003500Y0139769D02*
X0105049Y0139769D01*
X0106804Y0140768D02*
X0003500Y0140768D01*
X0087591Y0110812D02*
X0412886Y0110812D01*
X0412886Y0109814D02*
X0088940Y0109814D01*
X0089405Y0108815D02*
X0412886Y0108815D01*
X0412886Y0107817D02*
X0107781Y0107817D01*
X0106689Y0107817D02*
X0106311Y0107817D01*
X0106311Y0106818D02*
X0106689Y0106818D01*
X0106689Y0105820D02*
X0106311Y0105820D01*
X0106311Y0104821D02*
X0106689Y0104821D01*
X0106689Y0103823D02*
X0106311Y0103823D01*
X0106311Y0102824D02*
X0106689Y0102824D01*
X0106689Y0101826D02*
X0106311Y0101826D01*
X0108911Y0101826D02*
X0114655Y0101826D01*
X0114700Y0101780D02*
X0115868Y0101297D01*
X0117132Y0101297D01*
X0118300Y0101780D01*
X0119194Y0102674D01*
X0119678Y0103842D01*
X0119678Y0105107D01*
X0119194Y0106275D01*
X0118300Y0107169D01*
X0117132Y0107652D01*
X0115868Y0107652D01*
X0114700Y0107169D01*
X0113806Y0106275D01*
X0113322Y0105107D01*
X0113322Y0103842D01*
X0113806Y0102674D01*
X0114700Y0101780D01*
X0113744Y0102824D02*
X0109689Y0102824D01*
X0110018Y0103823D02*
X0113330Y0103823D01*
X0113322Y0104821D02*
X0110078Y0104821D01*
X0109816Y0105820D02*
X0113617Y0105820D01*
X0114349Y0106818D02*
X0109216Y0106818D01*
X0105219Y0107817D02*
X0089481Y0107817D01*
X0089222Y0106818D02*
X0103784Y0106818D01*
X0103184Y0105820D02*
X0088498Y0105820D01*
X0067156Y0105820D02*
X0062396Y0105820D01*
X0062472Y0105765D02*
X0061905Y0106177D01*
X0061280Y0106495D01*
X0060614Y0106711D01*
X0060055Y0106800D01*
X0060055Y0102853D01*
X0059087Y0102853D01*
X0059087Y0106800D01*
X0058528Y0106711D01*
X0057862Y0106495D01*
X0057237Y0106177D01*
X0056670Y0105765D01*
X0056174Y0105269D01*
X0055763Y0104702D01*
X0055444Y0104077D01*
X0055228Y0103411D01*
X0055139Y0102852D01*
X0059087Y0102852D01*
X0059087Y0101884D01*
X0060055Y0101884D01*
X0060055Y0097937D01*
X0060614Y0098025D01*
X0061280Y0098242D01*
X0061905Y0098560D01*
X0062472Y0098972D01*
X0062967Y0099467D01*
X0063379Y0100034D01*
X0063697Y0100659D01*
X0063914Y0101326D01*
X0064002Y0101884D01*
X0060055Y0101884D01*
X0060055Y0102852D01*
X0064002Y0102852D01*
X0063914Y0103411D01*
X0063697Y0104077D01*
X0063379Y0104702D01*
X0062967Y0105269D01*
X0062472Y0105765D01*
X0063293Y0104821D02*
X0066135Y0104821D01*
X0065629Y0103823D02*
X0063780Y0103823D01*
X0065361Y0102824D02*
X0060055Y0102824D01*
X0059087Y0102824D02*
X0053781Y0102824D01*
X0053781Y0101826D02*
X0055149Y0101826D01*
X0055139Y0101884D02*
X0055228Y0101326D01*
X0055444Y0100659D01*
X0055763Y0100034D01*
X0056174Y0099467D01*
X0056670Y0098972D01*
X0057237Y0098560D01*
X0057862Y0098242D01*
X0058528Y0098025D01*
X0059087Y0097937D01*
X0059087Y0101884D01*
X0055139Y0101884D01*
X0055390Y0100827D02*
X0053477Y0100827D01*
X0052920Y0099829D02*
X0055912Y0099829D01*
X0056865Y0098830D02*
X0051777Y0098830D01*
X0059087Y0098830D02*
X0060055Y0098830D01*
X0060055Y0099829D02*
X0059087Y0099829D01*
X0059087Y0100827D02*
X0060055Y0100827D01*
X0060055Y0101826D02*
X0059087Y0101826D01*
X0059087Y0103823D02*
X0060055Y0103823D01*
X0060055Y0104821D02*
X0059087Y0104821D01*
X0059087Y0105820D02*
X0060055Y0105820D01*
X0056746Y0105820D02*
X0051986Y0105820D01*
X0053007Y0104821D02*
X0055849Y0104821D01*
X0055362Y0103823D02*
X0053513Y0103823D01*
X0062277Y0098830D02*
X0067365Y0098830D01*
X0066222Y0099829D02*
X0063230Y0099829D01*
X0063752Y0100827D02*
X0065665Y0100827D01*
X0065361Y0101826D02*
X0063993Y0101826D01*
X0118345Y0101826D02*
X0412886Y0101826D01*
X0412886Y0102824D02*
X0119256Y0102824D01*
X0119670Y0103823D02*
X0412886Y0103823D01*
X0412886Y0104821D02*
X0119678Y0104821D01*
X0119383Y0105820D02*
X0412886Y0105820D01*
X0412886Y0106818D02*
X0118651Y0106818D01*
X0144811Y0118800D02*
X0356860Y0118800D01*
X0355862Y0119799D02*
X0143990Y0119799D01*
X0209563Y0098830D02*
X0412886Y0098830D01*
X0412886Y0097832D02*
X0209978Y0097832D01*
X0205122Y0089844D02*
X0138646Y0089844D01*
X0139553Y0088845D02*
X0203876Y0088845D01*
X0203421Y0087846D02*
X0139975Y0087846D01*
X0139907Y0085849D02*
X0203526Y0085849D01*
X0203322Y0086848D02*
X0136689Y0086848D01*
X0136311Y0086848D02*
X0129678Y0086848D01*
X0129579Y0087846D02*
X0133025Y0087846D01*
X0133447Y0088845D02*
X0129124Y0088845D01*
X0127878Y0089844D02*
X0134354Y0089844D01*
X0136311Y0089844D02*
X0136689Y0089844D01*
X0136689Y0088845D02*
X0136311Y0088845D01*
X0136311Y0087846D02*
X0136689Y0087846D01*
X0136689Y0085849D02*
X0136311Y0085849D01*
X0136311Y0084851D02*
X0136689Y0084851D01*
X0136689Y0083852D02*
X0136311Y0083852D01*
X0136200Y0082854D02*
X0136800Y0082854D01*
X0136800Y0081855D02*
X0136200Y0081855D01*
X0136200Y0080857D02*
X0136800Y0080857D01*
X0136800Y0079858D02*
X0136200Y0079858D01*
X0136200Y0078860D02*
X0136800Y0078860D01*
X0136800Y0077861D02*
X0136200Y0077861D01*
X0136200Y0075864D02*
X0136800Y0075864D01*
X0136800Y0074866D02*
X0136200Y0074866D01*
X0136200Y0073867D02*
X0136800Y0073867D01*
X0136800Y0072869D02*
X0136200Y0072869D01*
X0136200Y0071870D02*
X0136800Y0071870D01*
X0140400Y0078860D02*
X0143000Y0078860D01*
X0143000Y0079858D02*
X0140380Y0079858D01*
X0140107Y0080857D02*
X0143326Y0080857D01*
X0144031Y0081855D02*
X0139533Y0081855D01*
X0134709Y0082854D02*
X0127246Y0082854D01*
X0127267Y0083852D02*
X0134732Y0083852D01*
X0133616Y0084851D02*
X0128871Y0084851D01*
X0129474Y0085849D02*
X0133093Y0085849D01*
X0139384Y0084851D02*
X0204129Y0084851D01*
X0217246Y0082854D02*
X0225754Y0082854D01*
X0225804Y0082875D02*
X0224517Y0082342D01*
X0223533Y0081357D01*
X0223000Y0080071D01*
X0223000Y0073878D01*
X0223533Y0072592D01*
X0224517Y0071607D01*
X0225804Y0071075D01*
X0227196Y0071075D01*
X0228483Y0071607D01*
X0229467Y0072592D01*
X0230000Y0073878D01*
X0230000Y0080071D01*
X0229467Y0081357D01*
X0228483Y0082342D01*
X0227196Y0082875D01*
X0225804Y0082875D01*
X0227246Y0082854D02*
X0235754Y0082854D01*
X0235804Y0082875D02*
X0234517Y0082342D01*
X0233533Y0081357D01*
X0233000Y0080071D01*
X0233000Y0073878D01*
X0233533Y0072592D01*
X0234517Y0071607D01*
X0235804Y0071075D01*
X0237196Y0071075D01*
X0238483Y0071607D01*
X0239467Y0072592D01*
X0240000Y0073878D01*
X0240000Y0080071D01*
X0239467Y0081357D01*
X0238483Y0082342D01*
X0237196Y0082875D01*
X0235804Y0082875D01*
X0237246Y0082854D02*
X0245754Y0082854D01*
X0245804Y0082875D02*
X0244517Y0082342D01*
X0243533Y0081357D01*
X0243000Y0080071D01*
X0243000Y0073878D01*
X0243533Y0072592D01*
X0244517Y0071607D01*
X0245804Y0071075D01*
X0247196Y0071075D01*
X0248483Y0071607D01*
X0249467Y0072592D01*
X0250000Y0073878D01*
X0250000Y0080071D01*
X0249467Y0081357D01*
X0248483Y0082342D01*
X0247196Y0082875D01*
X0245804Y0082875D01*
X0247246Y0082854D02*
X0255754Y0082854D01*
X0255804Y0082875D02*
X0254517Y0082342D01*
X0253533Y0081357D01*
X0253000Y0080071D01*
X0253000Y0073878D01*
X0253533Y0072592D01*
X0254517Y0071607D01*
X0255804Y0071075D01*
X0257196Y0071075D01*
X0258483Y0071607D01*
X0259467Y0072592D01*
X0260000Y0073878D01*
X0260000Y0080071D01*
X0259467Y0081357D01*
X0258483Y0082342D01*
X0257196Y0082875D01*
X0255804Y0082875D01*
X0257246Y0082854D02*
X0354930Y0082854D01*
X0354945Y0082948D02*
X0354852Y0082360D01*
X0358614Y0082360D01*
X0358614Y0081589D01*
X0354852Y0081589D01*
X0354945Y0081001D01*
X0355147Y0080379D01*
X0355444Y0079796D01*
X0355829Y0079266D01*
X0356292Y0078803D01*
X0356821Y0078419D01*
X0357404Y0078122D01*
X0358026Y0077919D01*
X0358614Y0077826D01*
X0358614Y0081589D01*
X0359386Y0081589D01*
X0359386Y0082360D01*
X0363148Y0082360D01*
X0363055Y0082948D01*
X0362853Y0083570D01*
X0362556Y0084154D01*
X0362171Y0084683D01*
X0361708Y0085146D01*
X0361179Y0085530D01*
X0360596Y0085827D01*
X0359974Y0086030D01*
X0359386Y0086123D01*
X0359386Y0082360D01*
X0358614Y0082360D01*
X0358614Y0086123D01*
X0358026Y0086030D01*
X0357404Y0085827D01*
X0356821Y0085530D01*
X0356292Y0085146D01*
X0355829Y0084683D01*
X0355444Y0084154D01*
X0355147Y0083570D01*
X0354945Y0082948D01*
X0355291Y0083852D02*
X0233692Y0083852D01*
X0234687Y0084851D02*
X0355997Y0084851D01*
X0357472Y0085849D02*
X0235101Y0085849D01*
X0235257Y0086848D02*
X0412886Y0086848D01*
X0412886Y0087846D02*
X0235206Y0087846D01*
X0234792Y0088845D02*
X0412886Y0088845D01*
X0412886Y0085849D02*
X0360528Y0085849D01*
X0359386Y0085849D02*
X0358614Y0085849D01*
X0358614Y0084851D02*
X0359386Y0084851D01*
X0359386Y0083852D02*
X0358614Y0083852D01*
X0358614Y0082854D02*
X0359386Y0082854D01*
X0359386Y0081855D02*
X0365243Y0081855D01*
X0365243Y0081227D02*
X0365243Y0082722D01*
X0365815Y0084103D01*
X0366872Y0085160D01*
X0368253Y0085732D01*
X0369747Y0085732D01*
X0371128Y0085160D01*
X0372185Y0084103D01*
X0372757Y0082722D01*
X0372757Y0081227D01*
X0372185Y0079846D01*
X0371128Y0078789D01*
X0369747Y0078217D01*
X0368253Y0078217D01*
X0366872Y0078789D01*
X0365815Y0079846D01*
X0365243Y0081227D01*
X0365396Y0080857D02*
X0363008Y0080857D01*
X0363055Y0081001D02*
X0363148Y0081589D01*
X0359386Y0081589D01*
X0359386Y0077826D01*
X0359974Y0077919D01*
X0360596Y0078122D01*
X0361179Y0078419D01*
X0361708Y0078803D01*
X0362171Y0079266D01*
X0362556Y0079796D01*
X0362853Y0080379D01*
X0363055Y0081001D01*
X0362588Y0079858D02*
X0365809Y0079858D01*
X0366801Y0078860D02*
X0361765Y0078860D01*
X0359607Y0077861D02*
X0412886Y0077861D01*
X0412886Y0076863D02*
X0260000Y0076863D01*
X0260000Y0077861D02*
X0358393Y0077861D01*
X0358614Y0077861D02*
X0359386Y0077861D01*
X0359386Y0078860D02*
X0358614Y0078860D01*
X0358614Y0079858D02*
X0359386Y0079858D01*
X0359386Y0080857D02*
X0358614Y0080857D01*
X0358614Y0081855D02*
X0258969Y0081855D01*
X0259674Y0080857D02*
X0354992Y0080857D01*
X0355412Y0079858D02*
X0260000Y0079858D01*
X0260000Y0078860D02*
X0356235Y0078860D01*
X0363070Y0082854D02*
X0365297Y0082854D01*
X0365711Y0083852D02*
X0362709Y0083852D01*
X0362003Y0084851D02*
X0366563Y0084851D01*
X0371437Y0084851D02*
X0412886Y0084851D01*
X0412886Y0083852D02*
X0372289Y0083852D01*
X0372703Y0082854D02*
X0412886Y0082854D01*
X0412886Y0081855D02*
X0372757Y0081855D01*
X0372604Y0080857D02*
X0412886Y0080857D01*
X0412886Y0079858D02*
X0372191Y0079858D01*
X0371199Y0078860D02*
X0412886Y0078860D01*
X0412886Y0075864D02*
X0260000Y0075864D01*
X0260000Y0074866D02*
X0412886Y0074866D01*
X0412886Y0073867D02*
X0259995Y0073867D01*
X0259582Y0072869D02*
X0412886Y0072869D01*
X0412886Y0071870D02*
X0258746Y0071870D01*
X0254254Y0071870D02*
X0248746Y0071870D01*
X0249582Y0072869D02*
X0253418Y0072869D01*
X0253005Y0073867D02*
X0249995Y0073867D01*
X0250000Y0074866D02*
X0253000Y0074866D01*
X0253000Y0075864D02*
X0250000Y0075864D01*
X0250000Y0076863D02*
X0253000Y0076863D01*
X0253000Y0077861D02*
X0250000Y0077861D01*
X0250000Y0078860D02*
X0253000Y0078860D01*
X0253000Y0079858D02*
X0250000Y0079858D01*
X0249674Y0080857D02*
X0253326Y0080857D01*
X0254031Y0081855D02*
X0248969Y0081855D01*
X0244031Y0081855D02*
X0238969Y0081855D01*
X0239674Y0080857D02*
X0243326Y0080857D01*
X0243000Y0079858D02*
X0240000Y0079858D01*
X0240000Y0078860D02*
X0243000Y0078860D01*
X0243000Y0077861D02*
X0240000Y0077861D01*
X0240000Y0076863D02*
X0243000Y0076863D01*
X0243000Y0075864D02*
X0240000Y0075864D01*
X0240000Y0074866D02*
X0243000Y0074866D01*
X0243005Y0073867D02*
X0239995Y0073867D01*
X0239582Y0072869D02*
X0243418Y0072869D01*
X0244254Y0071870D02*
X0238746Y0071870D01*
X0234254Y0071870D02*
X0228746Y0071870D01*
X0229582Y0072869D02*
X0233418Y0072869D01*
X0233005Y0073867D02*
X0229995Y0073867D01*
X0230000Y0074866D02*
X0233000Y0074866D01*
X0233000Y0075864D02*
X0230000Y0075864D01*
X0230000Y0076863D02*
X0233000Y0076863D01*
X0233000Y0077861D02*
X0230000Y0077861D01*
X0230000Y0078860D02*
X0233000Y0078860D01*
X0233000Y0079858D02*
X0230000Y0079858D01*
X0229674Y0080857D02*
X0233326Y0080857D01*
X0234031Y0081855D02*
X0228969Y0081855D01*
X0224031Y0081855D02*
X0218969Y0081855D01*
X0219674Y0080857D02*
X0223326Y0080857D01*
X0223000Y0079858D02*
X0220000Y0079858D01*
X0220000Y0078860D02*
X0223000Y0078860D01*
X0223000Y0077861D02*
X0220000Y0077861D01*
X0220000Y0076863D02*
X0223000Y0076863D01*
X0223000Y0075864D02*
X0220000Y0075864D01*
X0220000Y0074866D02*
X0223000Y0074866D01*
X0223005Y0073867D02*
X0219995Y0073867D01*
X0219582Y0072869D02*
X0223418Y0072869D01*
X0224254Y0071870D02*
X0218746Y0071870D01*
X0217196Y0052875D02*
X0215804Y0052875D01*
X0214517Y0052342D01*
X0213533Y0051357D01*
X0213000Y0050071D01*
X0213000Y0043878D01*
X0213533Y0042592D01*
X0214517Y0041607D01*
X0215804Y0041075D01*
X0217196Y0041075D01*
X0218483Y0041607D01*
X0219467Y0042592D01*
X0220000Y0043878D01*
X0220000Y0050071D01*
X0219467Y0051357D01*
X0218483Y0052342D01*
X0217196Y0052875D01*
X0218924Y0051900D02*
X0224076Y0051900D01*
X0224517Y0052342D02*
X0223533Y0051357D01*
X0223000Y0050071D01*
X0223000Y0043878D01*
X0223533Y0042592D01*
X0224517Y0041607D01*
X0225804Y0041075D01*
X0227196Y0041075D01*
X0228483Y0041607D01*
X0229467Y0042592D01*
X0230000Y0043878D01*
X0230000Y0050071D01*
X0229467Y0051357D01*
X0228483Y0052342D01*
X0227196Y0052875D01*
X0225804Y0052875D01*
X0224517Y0052342D01*
X0223344Y0050902D02*
X0219656Y0050902D01*
X0220000Y0049903D02*
X0223000Y0049903D01*
X0223000Y0048905D02*
X0220000Y0048905D01*
X0220000Y0047906D02*
X0223000Y0047906D01*
X0223000Y0046908D02*
X0220000Y0046908D01*
X0220000Y0045909D02*
X0223000Y0045909D01*
X0223000Y0044911D02*
X0220000Y0044911D01*
X0220000Y0043912D02*
X0223000Y0043912D01*
X0223400Y0042913D02*
X0219600Y0042913D01*
X0218790Y0041915D02*
X0224210Y0041915D01*
X0228790Y0041915D02*
X0234210Y0041915D01*
X0233400Y0042913D02*
X0229600Y0042913D01*
X0230000Y0043912D02*
X0233000Y0043912D01*
X0233000Y0044911D02*
X0230000Y0044911D01*
X0230000Y0045909D02*
X0233000Y0045909D01*
X0233000Y0046908D02*
X0230000Y0046908D01*
X0230000Y0047906D02*
X0233000Y0047906D01*
X0233000Y0048905D02*
X0230000Y0048905D01*
X0230000Y0049903D02*
X0233000Y0049903D01*
X0233344Y0050902D02*
X0229656Y0050902D01*
X0228924Y0051900D02*
X0234076Y0051900D01*
X0214076Y0051900D02*
X0208924Y0051900D01*
X0209656Y0050902D02*
X0213344Y0050902D01*
X0213000Y0049903D02*
X0210000Y0049903D01*
X0210000Y0048905D02*
X0213000Y0048905D01*
X0213000Y0047906D02*
X0210000Y0047906D01*
X0210000Y0046908D02*
X0213000Y0046908D01*
X0213000Y0045909D02*
X0210000Y0045909D01*
X0210000Y0044911D02*
X0213000Y0044911D01*
X0213000Y0043912D02*
X0210000Y0043912D01*
X0209600Y0042913D02*
X0213400Y0042913D01*
X0214210Y0041915D02*
X0208790Y0041915D01*
X0204210Y0041915D02*
X0199356Y0041915D01*
X0200033Y0042913D02*
X0203400Y0042913D01*
X0203000Y0043912D02*
X0200345Y0043912D01*
X0200400Y0044911D02*
X0203000Y0044911D01*
X0203000Y0045909D02*
X0200400Y0045909D01*
X0196800Y0045909D02*
X0196200Y0045909D01*
X0196200Y0046674D02*
X0196200Y0040675D01*
X0196116Y0040675D01*
X0195362Y0040824D01*
X0194653Y0041118D01*
X0194014Y0041545D01*
X0193471Y0042088D01*
X0193044Y0042727D01*
X0192750Y0043437D01*
X0192600Y0044190D01*
X0192600Y0046674D01*
X0196200Y0046674D01*
X0196200Y0047906D02*
X0196800Y0047906D01*
X0196800Y0048905D02*
X0196200Y0048905D01*
X0196200Y0049903D02*
X0196800Y0049903D01*
X0196800Y0050902D02*
X0196200Y0050902D01*
X0196200Y0051900D02*
X0196800Y0051900D01*
X0196800Y0052899D02*
X0196200Y0052899D01*
X0184076Y0051900D02*
X0178924Y0051900D01*
X0178483Y0052342D02*
X0177196Y0052875D01*
X0175804Y0052875D01*
X0174517Y0052342D01*
X0173533Y0051357D01*
X0173000Y0050071D01*
X0173000Y0043878D01*
X0173533Y0042592D01*
X0174517Y0041607D01*
X0175804Y0041075D01*
X0177196Y0041075D01*
X0178483Y0041607D01*
X0179467Y0042592D01*
X0180000Y0043878D01*
X0180000Y0050071D01*
X0179467Y0051357D01*
X0178483Y0052342D01*
X0179656Y0050902D02*
X0183344Y0050902D01*
X0183000Y0049903D02*
X0180000Y0049903D01*
X0180000Y0048905D02*
X0183000Y0048905D01*
X0183000Y0047906D02*
X0180000Y0047906D01*
X0180000Y0046908D02*
X0183000Y0046908D01*
X0183000Y0045909D02*
X0180000Y0045909D01*
X0180000Y0044911D02*
X0183000Y0044911D01*
X0183000Y0043912D02*
X0180000Y0043912D01*
X0179600Y0042913D02*
X0183400Y0042913D01*
X0184210Y0041915D02*
X0178790Y0041915D01*
X0174210Y0041915D02*
X0168790Y0041915D01*
X0168483Y0041607D02*
X0169467Y0042592D01*
X0170000Y0043878D01*
X0170000Y0050071D01*
X0169467Y0051357D01*
X0168483Y0052342D01*
X0167196Y0052875D01*
X0165804Y0052875D01*
X0164517Y0052342D01*
X0163533Y0051357D01*
X0163000Y0050071D01*
X0163000Y0043878D01*
X0163533Y0042592D01*
X0164517Y0041607D01*
X0165804Y0041075D01*
X0167196Y0041075D01*
X0168483Y0041607D01*
X0169600Y0042913D02*
X0173400Y0042913D01*
X0173000Y0043912D02*
X0170000Y0043912D01*
X0170000Y0044911D02*
X0173000Y0044911D01*
X0173000Y0045909D02*
X0170000Y0045909D01*
X0170000Y0046908D02*
X0173000Y0046908D01*
X0173000Y0047906D02*
X0170000Y0047906D01*
X0170000Y0048905D02*
X0173000Y0048905D01*
X0173000Y0049903D02*
X0170000Y0049903D01*
X0169656Y0050902D02*
X0173344Y0050902D01*
X0174076Y0051900D02*
X0168924Y0051900D01*
X0164076Y0051900D02*
X0158924Y0051900D01*
X0158483Y0052342D02*
X0159467Y0051357D01*
X0160000Y0050071D01*
X0160000Y0043878D01*
X0159467Y0042592D01*
X0158483Y0041607D01*
X0157196Y0041075D01*
X0155804Y0041075D01*
X0154517Y0041607D01*
X0153533Y0042592D01*
X0153000Y0043878D01*
X0153000Y0050071D01*
X0153533Y0051357D01*
X0154517Y0052342D01*
X0155804Y0052875D01*
X0157196Y0052875D01*
X0158483Y0052342D01*
X0159656Y0050902D02*
X0163344Y0050902D01*
X0163000Y0049903D02*
X0160000Y0049903D01*
X0160000Y0048905D02*
X0163000Y0048905D01*
X0163000Y0047906D02*
X0160000Y0047906D01*
X0160000Y0046908D02*
X0163000Y0046908D01*
X0163000Y0045909D02*
X0160000Y0045909D01*
X0160000Y0044911D02*
X0163000Y0044911D01*
X0163000Y0043912D02*
X0160000Y0043912D01*
X0159600Y0042913D02*
X0163400Y0042913D01*
X0164210Y0041915D02*
X0158790Y0041915D01*
X0154210Y0041915D02*
X0148790Y0041915D01*
X0148483Y0041607D02*
X0149467Y0042592D01*
X0150000Y0043878D01*
X0150000Y0050071D01*
X0149467Y0051357D01*
X0148483Y0052342D01*
X0147196Y0052875D01*
X0145804Y0052875D01*
X0144517Y0052342D01*
X0143533Y0051357D01*
X0143000Y0050071D01*
X0143000Y0043878D01*
X0143533Y0042592D01*
X0144517Y0041607D01*
X0145804Y0041075D01*
X0147196Y0041075D01*
X0148483Y0041607D01*
X0149600Y0042913D02*
X0153400Y0042913D01*
X0153000Y0043912D02*
X0150000Y0043912D01*
X0150000Y0044911D02*
X0153000Y0044911D01*
X0153000Y0045909D02*
X0150000Y0045909D01*
X0150000Y0046908D02*
X0153000Y0046908D01*
X0153000Y0047906D02*
X0150000Y0047906D01*
X0150000Y0048905D02*
X0153000Y0048905D01*
X0153000Y0049903D02*
X0150000Y0049903D01*
X0149656Y0050902D02*
X0153344Y0050902D01*
X0154076Y0051900D02*
X0148924Y0051900D01*
X0144076Y0051900D02*
X0138924Y0051900D01*
X0138483Y0052342D02*
X0139467Y0051357D01*
X0140000Y0050071D01*
X0140000Y0043878D01*
X0139467Y0042592D01*
X0138483Y0041607D01*
X0137196Y0041075D01*
X0135804Y0041075D01*
X0134517Y0041607D01*
X0133533Y0042592D01*
X0133000Y0043878D01*
X0133000Y0050071D01*
X0133533Y0051357D01*
X0134517Y0052342D01*
X0135804Y0052875D01*
X0137196Y0052875D01*
X0138483Y0052342D01*
X0139656Y0050902D02*
X0143344Y0050902D01*
X0143000Y0049903D02*
X0140000Y0049903D01*
X0140000Y0048905D02*
X0143000Y0048905D01*
X0143000Y0047906D02*
X0140000Y0047906D01*
X0140000Y0046908D02*
X0143000Y0046908D01*
X0143000Y0045909D02*
X0140000Y0045909D01*
X0140000Y0044911D02*
X0143000Y0044911D01*
X0143000Y0043912D02*
X0140000Y0043912D01*
X0139600Y0042913D02*
X0143400Y0042913D01*
X0144210Y0041915D02*
X0138790Y0041915D01*
X0134210Y0041915D02*
X0072344Y0041915D01*
X0072314Y0041885D02*
X0072810Y0042381D01*
X0073222Y0042948D01*
X0073540Y0043572D01*
X0073756Y0044239D01*
X0073845Y0044797D01*
X0069898Y0044797D01*
X0069898Y0045766D01*
X0073845Y0045766D01*
X0073756Y0046324D01*
X0073540Y0046991D01*
X0073222Y0047615D01*
X0072810Y0048182D01*
X0072314Y0048678D01*
X0071747Y0049090D01*
X0071123Y0049408D01*
X0070456Y0049625D01*
X0069898Y0049713D01*
X0069898Y0045766D01*
X0068929Y0045766D01*
X0068929Y0049713D01*
X0068371Y0049625D01*
X0067704Y0049408D01*
X0067080Y0049090D01*
X0066513Y0048678D01*
X0066017Y0048182D01*
X0065605Y0047615D01*
X0065287Y0046991D01*
X0065070Y0046324D01*
X0064982Y0045766D01*
X0068929Y0045766D01*
X0068929Y0044797D01*
X0069898Y0044797D01*
X0069898Y0040850D01*
X0070456Y0040938D01*
X0071123Y0041155D01*
X0071747Y0041473D01*
X0072314Y0041885D01*
X0073197Y0042913D02*
X0105590Y0042913D01*
X0105684Y0042875D02*
X0107316Y0042875D01*
X0108822Y0043499D01*
X0109976Y0044652D01*
X0110600Y0046159D01*
X0110600Y0047790D01*
X0109976Y0049297D01*
X0108822Y0050450D01*
X0107316Y0051075D01*
X0105684Y0051075D01*
X0104178Y0050450D01*
X0103024Y0049297D01*
X0102400Y0047790D01*
X0102400Y0046159D01*
X0103024Y0044652D01*
X0104178Y0043499D01*
X0105684Y0042875D01*
X0107410Y0042913D02*
X0122405Y0042913D01*
X0122100Y0043219D02*
X0122744Y0042575D01*
X0130256Y0042575D01*
X0130900Y0043219D01*
X0130900Y0050730D01*
X0130256Y0051375D01*
X0122744Y0051375D01*
X0122100Y0050730D01*
X0122100Y0043219D01*
X0122100Y0043912D02*
X0118751Y0043912D01*
X0118628Y0043789D02*
X0119685Y0044846D01*
X0120257Y0046227D01*
X0120257Y0047722D01*
X0119685Y0049103D01*
X0118628Y0050160D01*
X0117247Y0050732D01*
X0115753Y0050732D01*
X0114372Y0050160D01*
X0113315Y0049103D01*
X0112743Y0047722D01*
X0112743Y0046227D01*
X0113315Y0044846D01*
X0114372Y0043789D01*
X0115753Y0043217D01*
X0117247Y0043217D01*
X0118628Y0043789D01*
X0119712Y0044911D02*
X0122100Y0044911D01*
X0122100Y0045909D02*
X0120126Y0045909D01*
X0120257Y0046908D02*
X0122100Y0046908D01*
X0122100Y0047906D02*
X0120181Y0047906D01*
X0119768Y0048905D02*
X0122100Y0048905D01*
X0122100Y0049903D02*
X0118885Y0049903D01*
X0122271Y0050902D02*
X0107733Y0050902D01*
X0109370Y0049903D02*
X0114115Y0049903D01*
X0113232Y0048905D02*
X0110138Y0048905D01*
X0110552Y0047906D02*
X0112819Y0047906D01*
X0112743Y0046908D02*
X0110600Y0046908D01*
X0110496Y0045909D02*
X0112874Y0045909D01*
X0113288Y0044911D02*
X0110083Y0044911D01*
X0109236Y0043912D02*
X0114249Y0043912D01*
X0103764Y0043912D02*
X0073650Y0043912D01*
X0073822Y0045909D02*
X0102504Y0045909D01*
X0102400Y0046908D02*
X0073567Y0046908D01*
X0073011Y0047906D02*
X0102448Y0047906D01*
X0102862Y0048905D02*
X0072002Y0048905D01*
X0069898Y0048905D02*
X0068929Y0048905D01*
X0068929Y0047906D02*
X0069898Y0047906D01*
X0069898Y0046908D02*
X0068929Y0046908D01*
X0068929Y0045909D02*
X0069898Y0045909D01*
X0069898Y0044911D02*
X0102917Y0044911D01*
X0103630Y0049903D02*
X0024370Y0049903D01*
X0023822Y0050450D02*
X0022316Y0051075D01*
X0020684Y0051075D01*
X0019178Y0050450D01*
X0018024Y0049297D01*
X0017400Y0047790D01*
X0017400Y0046159D01*
X0018024Y0044652D01*
X0019178Y0043499D01*
X0020684Y0042875D01*
X0022316Y0042875D01*
X0023822Y0043499D01*
X0024976Y0044652D01*
X0025600Y0046159D01*
X0025600Y0047790D01*
X0024976Y0049297D01*
X0023822Y0050450D01*
X0022733Y0050902D02*
X0105267Y0050902D01*
X0103779Y0053897D02*
X0024221Y0053897D01*
X0025077Y0054896D02*
X0102923Y0054896D01*
X0102510Y0055894D02*
X0025490Y0055894D01*
X0025600Y0056893D02*
X0102400Y0056893D01*
X0102442Y0057891D02*
X0025558Y0057891D01*
X0025145Y0058890D02*
X0102855Y0058890D01*
X0103615Y0059888D02*
X0024385Y0059888D01*
X0022769Y0060887D02*
X0105231Y0060887D01*
X0130729Y0050902D02*
X0133344Y0050902D01*
X0133000Y0049903D02*
X0130900Y0049903D01*
X0130900Y0048905D02*
X0133000Y0048905D01*
X0133000Y0047906D02*
X0130900Y0047906D01*
X0130900Y0046908D02*
X0133000Y0046908D01*
X0133000Y0045909D02*
X0130900Y0045909D01*
X0130900Y0044911D02*
X0133000Y0044911D01*
X0133000Y0043912D02*
X0130900Y0043912D01*
X0130595Y0042913D02*
X0133400Y0042913D01*
X0134076Y0051900D02*
X0003500Y0051900D01*
X0003500Y0050902D02*
X0020267Y0050902D01*
X0018630Y0049903D02*
X0003500Y0049903D01*
X0003500Y0048905D02*
X0017862Y0048905D01*
X0017448Y0047906D02*
X0003500Y0047906D01*
X0003500Y0046908D02*
X0017400Y0046908D01*
X0017504Y0045909D02*
X0003500Y0045909D01*
X0003500Y0044911D02*
X0017917Y0044911D01*
X0018764Y0043912D02*
X0003500Y0043912D01*
X0003500Y0042913D02*
X0020590Y0042913D01*
X0022410Y0042913D02*
X0046365Y0042913D01*
X0046293Y0042986D02*
X0047433Y0041846D01*
X0048922Y0041229D01*
X0050534Y0041229D01*
X0052024Y0041846D01*
X0053164Y0042986D01*
X0053781Y0044475D01*
X0053781Y0046088D01*
X0053164Y0047577D01*
X0052024Y0048717D01*
X0050534Y0049334D01*
X0048922Y0049334D01*
X0047433Y0048717D01*
X0046293Y0047577D01*
X0045676Y0046088D01*
X0045676Y0044475D01*
X0046293Y0042986D01*
X0045909Y0043912D02*
X0024236Y0043912D01*
X0025083Y0044911D02*
X0045676Y0044911D01*
X0045676Y0045909D02*
X0025496Y0045909D01*
X0025600Y0046908D02*
X0046015Y0046908D01*
X0046621Y0047906D02*
X0025552Y0047906D01*
X0025138Y0048905D02*
X0047885Y0048905D01*
X0051572Y0048905D02*
X0066824Y0048905D01*
X0065816Y0047906D02*
X0052835Y0047906D01*
X0053442Y0046908D02*
X0065260Y0046908D01*
X0065005Y0045909D02*
X0053781Y0045909D01*
X0053781Y0044911D02*
X0068929Y0044911D01*
X0068929Y0044797D02*
X0064982Y0044797D01*
X0065070Y0044239D01*
X0065287Y0043572D01*
X0065605Y0042948D01*
X0066017Y0042381D01*
X0066513Y0041885D01*
X0067080Y0041473D01*
X0067704Y0041155D01*
X0068371Y0040938D01*
X0068929Y0040850D01*
X0068929Y0044797D01*
X0068929Y0043912D02*
X0069898Y0043912D01*
X0069898Y0042913D02*
X0068929Y0042913D01*
X0068929Y0041915D02*
X0069898Y0041915D01*
X0069898Y0040916D02*
X0068929Y0040916D01*
X0068510Y0040916D02*
X0022697Y0040916D01*
X0024355Y0039918D02*
X0234130Y0039918D01*
X0233239Y0038919D02*
X0025132Y0038919D01*
X0025546Y0037921D02*
X0232825Y0037921D01*
X0232743Y0036922D02*
X0025600Y0036922D01*
X0025503Y0035924D02*
X0232868Y0035924D01*
X0233282Y0034925D02*
X0025089Y0034925D01*
X0024251Y0033927D02*
X0234234Y0033927D01*
X0238766Y0033927D02*
X0274234Y0033927D01*
X0273282Y0034925D02*
X0239718Y0034925D01*
X0240132Y0035924D02*
X0272868Y0035924D01*
X0272743Y0036922D02*
X0240257Y0036922D01*
X0240175Y0037921D02*
X0272825Y0037921D01*
X0273239Y0038919D02*
X0239761Y0038919D01*
X0197860Y0040916D02*
X0412886Y0040916D01*
X0260465Y0007966D02*
X0252535Y0007966D01*
X0254288Y0008964D02*
X0258712Y0008964D01*
X0257896Y0009963D02*
X0255104Y0009963D01*
X0255518Y0010961D02*
X0257482Y0010961D01*
X0257400Y0011960D02*
X0255600Y0011960D01*
X0255530Y0012958D02*
X0257470Y0012958D01*
X0257883Y0013957D02*
X0255117Y0013957D01*
X0254318Y0014955D02*
X0258682Y0014955D01*
X0248682Y0014955D02*
X0244318Y0014955D01*
X0245117Y0013957D02*
X0247883Y0013957D01*
X0247470Y0012958D02*
X0245530Y0012958D01*
X0245600Y0011960D02*
X0247400Y0011960D01*
X0247482Y0010961D02*
X0245518Y0010961D01*
X0245104Y0009963D02*
X0247896Y0009963D01*
X0248712Y0008964D02*
X0244288Y0008964D01*
X0242535Y0007966D02*
X0250465Y0007966D01*
X0240465Y0007966D02*
X0232535Y0007966D01*
X0234288Y0008964D02*
X0238712Y0008964D01*
X0237896Y0009963D02*
X0235104Y0009963D01*
X0235518Y0010961D02*
X0237482Y0010961D01*
X0237400Y0011960D02*
X0235600Y0011960D01*
X0235530Y0012958D02*
X0237470Y0012958D01*
X0237883Y0013957D02*
X0235117Y0013957D01*
X0234318Y0014955D02*
X0238682Y0014955D01*
X0228682Y0014955D02*
X0224318Y0014955D01*
X0225117Y0013957D02*
X0227883Y0013957D01*
X0227470Y0012958D02*
X0225530Y0012958D01*
X0225600Y0011960D02*
X0227400Y0011960D01*
X0227482Y0010961D02*
X0225518Y0010961D01*
X0225104Y0009963D02*
X0227896Y0009963D01*
X0228712Y0008964D02*
X0224288Y0008964D01*
X0222535Y0007966D02*
X0230465Y0007966D01*
X0220465Y0007966D02*
X0212535Y0007966D01*
X0214288Y0008964D02*
X0218712Y0008964D01*
X0217896Y0009963D02*
X0215104Y0009963D01*
X0215518Y0010961D02*
X0217482Y0010961D01*
X0217400Y0011960D02*
X0215600Y0011960D01*
X0215530Y0012958D02*
X0217470Y0012958D01*
X0217883Y0013957D02*
X0215117Y0013957D01*
X0214318Y0014955D02*
X0218682Y0014955D01*
X0208682Y0014955D02*
X0204318Y0014955D01*
X0205117Y0013957D02*
X0207883Y0013957D01*
X0207470Y0012958D02*
X0205530Y0012958D01*
X0205600Y0011960D02*
X0207400Y0011960D01*
X0207482Y0010961D02*
X0205518Y0010961D01*
X0205104Y0009963D02*
X0207896Y0009963D01*
X0208712Y0008964D02*
X0204288Y0008964D01*
X0202535Y0007966D02*
X0210465Y0007966D01*
X0200465Y0007966D02*
X0192535Y0007966D01*
X0194288Y0008964D02*
X0198712Y0008964D01*
X0197896Y0009963D02*
X0195104Y0009963D01*
X0195518Y0010961D02*
X0197482Y0010961D01*
X0197400Y0011960D02*
X0195600Y0011960D01*
X0195530Y0012958D02*
X0197470Y0012958D01*
X0197883Y0013957D02*
X0195117Y0013957D01*
X0194318Y0014955D02*
X0198682Y0014955D01*
X0188682Y0014955D02*
X0184318Y0014955D01*
X0185117Y0013957D02*
X0187883Y0013957D01*
X0187470Y0012958D02*
X0185530Y0012958D01*
X0185600Y0011960D02*
X0187400Y0011960D01*
X0187482Y0010961D02*
X0185518Y0010961D01*
X0185104Y0009963D02*
X0187896Y0009963D01*
X0188712Y0008964D02*
X0184288Y0008964D01*
X0182535Y0007966D02*
X0190465Y0007966D01*
X0180465Y0007966D02*
X0173544Y0007966D01*
X0172000Y0007966D02*
X0171000Y0007966D01*
X0171000Y0008964D02*
X0172000Y0008964D01*
X0172000Y0009963D02*
X0171000Y0009963D01*
X0171000Y0010961D02*
X0172000Y0010961D01*
X0174854Y0008964D02*
X0178712Y0008964D01*
X0177896Y0009963D02*
X0175525Y0009963D01*
X0175896Y0010961D02*
X0177482Y0010961D01*
X0172000Y0013957D02*
X0171000Y0013957D01*
X0171000Y0014955D02*
X0172000Y0014955D01*
X0172000Y0015954D02*
X0171000Y0015954D01*
X0188790Y0041915D02*
X0193644Y0041915D01*
X0192967Y0042913D02*
X0189600Y0042913D01*
X0190000Y0043912D02*
X0192655Y0043912D01*
X0192600Y0044911D02*
X0190000Y0044911D01*
X0190000Y0045909D02*
X0192600Y0045909D01*
X0196200Y0044911D02*
X0196800Y0044911D01*
X0196800Y0043912D02*
X0196200Y0043912D01*
X0196200Y0042913D02*
X0196800Y0042913D01*
X0196800Y0041915D02*
X0196200Y0041915D01*
X0196200Y0040916D02*
X0196800Y0040916D01*
X0195140Y0040916D02*
X0070317Y0040916D01*
X0066483Y0041915D02*
X0052093Y0041915D01*
X0053092Y0042913D02*
X0065630Y0042913D01*
X0065176Y0043912D02*
X0053548Y0043912D01*
X0047364Y0041915D02*
X0003500Y0041915D01*
X0003500Y0040916D02*
X0020303Y0040916D01*
X0018645Y0039918D02*
X0003500Y0039918D01*
X0003500Y0038919D02*
X0017868Y0038919D01*
X0017454Y0037921D02*
X0003500Y0037921D01*
X0003500Y0036922D02*
X0017400Y0036922D01*
X0017497Y0035924D02*
X0003500Y0035924D01*
X0003500Y0034925D02*
X0017911Y0034925D01*
X0018749Y0033927D02*
X0003500Y0033927D01*
X0021000Y0025939D02*
X0022000Y0025939D01*
X0022000Y0024940D02*
X0021000Y0024940D01*
X0021000Y0023942D02*
X0022000Y0023942D01*
X0017107Y0020946D02*
X0003500Y0020946D01*
X0003500Y0019948D02*
X0017482Y0019948D01*
X0018161Y0018949D02*
X0003500Y0018949D01*
X0003500Y0017951D02*
X0019485Y0017951D01*
X0042643Y0025939D02*
X0050357Y0025939D01*
X0048667Y0024940D02*
X0044332Y0024940D01*
X0045123Y0023942D02*
X0047877Y0023942D01*
X0047463Y0022943D02*
X0045537Y0022943D01*
X0045600Y0021945D02*
X0047400Y0021945D01*
X0047488Y0020946D02*
X0045512Y0020946D01*
X0045098Y0019948D02*
X0047902Y0019948D01*
X0048727Y0018949D02*
X0044273Y0018949D01*
X0054273Y0018949D02*
X0058727Y0018949D01*
X0057902Y0019948D02*
X0055098Y0019948D01*
X0055512Y0020946D02*
X0057488Y0020946D01*
X0057400Y0021945D02*
X0055600Y0021945D01*
X0055537Y0022943D02*
X0057463Y0022943D01*
X0057877Y0023942D02*
X0055123Y0023942D01*
X0054332Y0024940D02*
X0058667Y0024940D01*
X0060357Y0025939D02*
X0052643Y0025939D01*
X0062643Y0025939D02*
X0070357Y0025939D01*
X0068667Y0024940D02*
X0064332Y0024940D01*
X0065123Y0023942D02*
X0067877Y0023942D01*
X0067463Y0022943D02*
X0065537Y0022943D01*
X0065600Y0021945D02*
X0067400Y0021945D01*
X0067488Y0020946D02*
X0065512Y0020946D01*
X0065098Y0019948D02*
X0067902Y0019948D01*
X0068727Y0018949D02*
X0064273Y0018949D01*
X0130000Y0078860D02*
X0132600Y0078860D01*
X0132620Y0079858D02*
X0130000Y0079858D01*
X0129674Y0080857D02*
X0132893Y0080857D01*
X0133467Y0081855D02*
X0128969Y0081855D01*
X0235257Y0126788D02*
X0402497Y0126788D01*
X0400497Y0127787D02*
X0235231Y0127787D01*
X0234817Y0128785D02*
X0399499Y0128785D01*
X0398603Y0129784D02*
X0387431Y0129784D01*
X0387311Y0129664D02*
X0387590Y0129943D01*
X0387788Y0130285D01*
X0387890Y0130667D01*
X0387890Y0133364D01*
X0383890Y0133364D01*
X0383890Y0134364D01*
X0387890Y0134364D01*
X0387890Y0137062D01*
X0387788Y0137443D01*
X0387590Y0137785D01*
X0387311Y0138065D01*
X0386969Y0138262D01*
X0386587Y0138364D01*
X0383890Y0138364D01*
X0383890Y0134364D01*
X0382890Y0134364D01*
X0382890Y0133364D01*
X0383890Y0133364D01*
X0383890Y0129364D01*
X0386587Y0129364D01*
X0386969Y0129467D01*
X0387311Y0129664D01*
X0387890Y0130782D02*
X0398189Y0130782D01*
X0397775Y0131781D02*
X0387890Y0131781D01*
X0387890Y0132780D02*
X0397531Y0132780D01*
X0397531Y0133778D02*
X0383890Y0133778D01*
X0383890Y0132780D02*
X0382890Y0132780D01*
X0382890Y0133364D02*
X0382890Y0129364D01*
X0380192Y0129364D01*
X0379811Y0129467D01*
X0379469Y0129664D01*
X0379189Y0129943D01*
X0378992Y0130285D01*
X0378890Y0130667D01*
X0378890Y0133364D01*
X0382890Y0133364D01*
X0382890Y0133778D02*
X0377490Y0133778D01*
X0377490Y0133049D02*
X0377490Y0134680D01*
X0376866Y0136187D01*
X0375712Y0137340D01*
X0374205Y0137964D01*
X0372574Y0137964D01*
X0371067Y0137340D01*
X0369914Y0136187D01*
X0369290Y0134680D01*
X0369290Y0133049D01*
X0369914Y0131542D01*
X0371067Y0130388D01*
X0372574Y0129764D01*
X0374205Y0129764D01*
X0375712Y0130388D01*
X0376866Y0131542D01*
X0377490Y0133049D01*
X0377378Y0132780D02*
X0378890Y0132780D01*
X0378890Y0131781D02*
X0376965Y0131781D01*
X0376106Y0130782D02*
X0378890Y0130782D01*
X0379349Y0129784D02*
X0374253Y0129784D01*
X0372527Y0129784D02*
X0364253Y0129784D01*
X0364205Y0129764D02*
X0365712Y0130388D01*
X0366866Y0131542D01*
X0367490Y0133049D01*
X0367490Y0134680D01*
X0366866Y0136187D01*
X0365712Y0137340D01*
X0364205Y0137964D01*
X0362574Y0137964D01*
X0361067Y0137340D01*
X0359914Y0136187D01*
X0359290Y0134680D01*
X0359290Y0133049D01*
X0359914Y0131542D01*
X0361067Y0130388D01*
X0362574Y0129764D01*
X0364205Y0129764D01*
X0362527Y0129784D02*
X0354253Y0129784D01*
X0354205Y0129764D02*
X0355712Y0130388D01*
X0356866Y0131542D01*
X0357490Y0133049D01*
X0357490Y0134680D01*
X0356866Y0136187D01*
X0355712Y0137340D01*
X0354205Y0137964D01*
X0352574Y0137964D01*
X0351067Y0137340D01*
X0349914Y0136187D01*
X0349290Y0134680D01*
X0349290Y0133049D01*
X0349914Y0131542D01*
X0351067Y0130388D01*
X0352574Y0129764D01*
X0354205Y0129764D01*
X0352527Y0129784D02*
X0345294Y0129784D01*
X0345117Y0129694D02*
X0345748Y0130016D01*
X0346321Y0130432D01*
X0346822Y0130933D01*
X0347238Y0131506D01*
X0347560Y0132137D01*
X0347779Y0132811D01*
X0347867Y0133364D01*
X0343890Y0133364D01*
X0343890Y0134364D01*
X0347867Y0134364D01*
X0347779Y0134918D01*
X0347560Y0135592D01*
X0347238Y0136223D01*
X0346822Y0136796D01*
X0346321Y0137297D01*
X0345748Y0137713D01*
X0345117Y0138035D01*
X0344444Y0138253D01*
X0343890Y0138341D01*
X0343890Y0134364D01*
X0342890Y0134364D01*
X0342890Y0133364D01*
X0343890Y0133364D01*
X0343890Y0129387D01*
X0344444Y0129475D01*
X0345117Y0129694D01*
X0343890Y0129784D02*
X0342890Y0129784D01*
X0342890Y0129387D02*
X0342890Y0133364D01*
X0338913Y0133364D01*
X0339001Y0132811D01*
X0339219Y0132137D01*
X0339541Y0131506D01*
X0339957Y0130933D01*
X0340458Y0130432D01*
X0341031Y0130016D01*
X0341662Y0129694D01*
X0342336Y0129475D01*
X0342890Y0129387D01*
X0342890Y0130782D02*
X0343890Y0130782D01*
X0343890Y0131781D02*
X0342890Y0131781D01*
X0342890Y0132780D02*
X0343890Y0132780D01*
X0343890Y0133778D02*
X0349290Y0133778D01*
X0349330Y0134777D02*
X0347801Y0134777D01*
X0347467Y0135775D02*
X0349743Y0135775D01*
X0350501Y0136774D02*
X0346838Y0136774D01*
X0345632Y0137772D02*
X0352110Y0137772D01*
X0354669Y0137772D02*
X0362110Y0137772D01*
X0360501Y0136774D02*
X0356279Y0136774D01*
X0357036Y0135775D02*
X0359743Y0135775D01*
X0359330Y0134777D02*
X0357450Y0134777D01*
X0357490Y0133778D02*
X0359290Y0133778D01*
X0359401Y0132780D02*
X0357378Y0132780D01*
X0356965Y0131781D02*
X0359815Y0131781D01*
X0360673Y0130782D02*
X0356106Y0130782D01*
X0350673Y0130782D02*
X0346672Y0130782D01*
X0347379Y0131781D02*
X0349815Y0131781D01*
X0349401Y0132780D02*
X0347769Y0132780D01*
X0343890Y0134777D02*
X0342890Y0134777D01*
X0342890Y0134364D02*
X0342890Y0138341D01*
X0342336Y0138253D01*
X0341662Y0138035D01*
X0341031Y0137713D01*
X0340458Y0137297D01*
X0339957Y0136796D01*
X0339541Y0136223D01*
X0339219Y0135592D01*
X0339001Y0134918D01*
X0338913Y0134364D01*
X0342890Y0134364D01*
X0342890Y0133778D02*
X0337490Y0133778D01*
X0337490Y0133049D02*
X0337490Y0134680D01*
X0336866Y0136187D01*
X0335712Y0137340D01*
X0334205Y0137964D01*
X0332574Y0137964D01*
X0331067Y0137340D01*
X0329914Y0136187D01*
X0329290Y0134680D01*
X0329290Y0133049D01*
X0329914Y0131542D01*
X0331067Y0130388D01*
X0332574Y0129764D01*
X0334205Y0129764D01*
X0335712Y0130388D01*
X0336866Y0131542D01*
X0337490Y0133049D01*
X0337378Y0132780D02*
X0339011Y0132780D01*
X0339401Y0131781D02*
X0336965Y0131781D01*
X0336106Y0130782D02*
X0340108Y0130782D01*
X0341486Y0129784D02*
X0334253Y0129784D01*
X0332527Y0129784D02*
X0324253Y0129784D01*
X0324205Y0129764D02*
X0325712Y0130388D01*
X0326866Y0131542D01*
X0327490Y0133049D01*
X0327490Y0134680D01*
X0326866Y0136187D01*
X0325712Y0137340D01*
X0324205Y0137964D01*
X0322574Y0137964D01*
X0321067Y0137340D01*
X0319914Y0136187D01*
X0319290Y0134680D01*
X0319290Y0133049D01*
X0319914Y0131542D01*
X0321067Y0130388D01*
X0322574Y0129764D01*
X0324205Y0129764D01*
X0322527Y0129784D02*
X0314253Y0129784D01*
X0314205Y0129764D02*
X0315712Y0130388D01*
X0316866Y0131542D01*
X0317490Y0133049D01*
X0317490Y0134680D01*
X0316866Y0136187D01*
X0315712Y0137340D01*
X0314205Y0137964D01*
X0312574Y0137964D01*
X0311067Y0137340D01*
X0309914Y0136187D01*
X0309290Y0134680D01*
X0309290Y0133049D01*
X0309914Y0131542D01*
X0311067Y0130388D01*
X0312574Y0129764D01*
X0314205Y0129764D01*
X0312527Y0129784D02*
X0304253Y0129784D01*
X0304205Y0129764D02*
X0305712Y0130388D01*
X0306866Y0131542D01*
X0307490Y0133049D01*
X0307490Y0134680D01*
X0306866Y0136187D01*
X0305712Y0137340D01*
X0304205Y0137964D01*
X0302574Y0137964D01*
X0301067Y0137340D01*
X0299914Y0136187D01*
X0299290Y0134680D01*
X0299290Y0133049D01*
X0299914Y0131542D01*
X0301067Y0130388D01*
X0302574Y0129764D01*
X0304205Y0129764D01*
X0302527Y0129784D02*
X0294253Y0129784D01*
X0294205Y0129764D02*
X0295712Y0130388D01*
X0296866Y0131542D01*
X0297490Y0133049D01*
X0297490Y0134680D01*
X0296866Y0136187D01*
X0295712Y0137340D01*
X0294205Y0137964D01*
X0292574Y0137964D01*
X0291067Y0137340D01*
X0289914Y0136187D01*
X0289290Y0134680D01*
X0289290Y0133049D01*
X0289914Y0131542D01*
X0291067Y0130388D01*
X0292574Y0129764D01*
X0294205Y0129764D01*
X0292527Y0129784D02*
X0284253Y0129784D01*
X0284205Y0129764D02*
X0285712Y0130388D01*
X0286866Y0131542D01*
X0287490Y0133049D01*
X0287490Y0134680D01*
X0286866Y0136187D01*
X0285712Y0137340D01*
X0284205Y0137964D01*
X0282574Y0137964D01*
X0281067Y0137340D01*
X0279914Y0136187D01*
X0279290Y0134680D01*
X0279290Y0133049D01*
X0279914Y0131542D01*
X0281067Y0130388D01*
X0282574Y0129764D01*
X0284205Y0129764D01*
X0282527Y0129784D02*
X0274253Y0129784D01*
X0274205Y0129764D02*
X0275712Y0130388D01*
X0276866Y0131542D01*
X0277490Y0133049D01*
X0277490Y0134680D01*
X0276866Y0136187D01*
X0275712Y0137340D01*
X0274205Y0137964D01*
X0272574Y0137964D01*
X0271067Y0137340D01*
X0269914Y0136187D01*
X0269290Y0134680D01*
X0269290Y0133049D01*
X0269914Y0131542D01*
X0271067Y0130388D01*
X0272574Y0129764D01*
X0274205Y0129764D01*
X0272527Y0129784D02*
X0264253Y0129784D01*
X0264205Y0129764D02*
X0265712Y0130388D01*
X0266866Y0131542D01*
X0267490Y0133049D01*
X0267490Y0134680D01*
X0266866Y0136187D01*
X0265712Y0137340D01*
X0264205Y0137964D01*
X0262574Y0137964D01*
X0261067Y0137340D01*
X0259914Y0136187D01*
X0259290Y0134680D01*
X0259290Y0133049D01*
X0259914Y0131542D01*
X0261067Y0130388D01*
X0262574Y0129764D01*
X0264205Y0129764D01*
X0262527Y0129784D02*
X0254253Y0129784D01*
X0254205Y0129764D02*
X0255712Y0130388D01*
X0256866Y0131542D01*
X0257490Y0133049D01*
X0257490Y0134680D01*
X0256866Y0136187D01*
X0255712Y0137340D01*
X0254205Y0137964D01*
X0252574Y0137964D01*
X0251067Y0137340D01*
X0249914Y0136187D01*
X0249290Y0134680D01*
X0249290Y0133049D01*
X0249914Y0131542D01*
X0251067Y0130388D01*
X0252574Y0129764D01*
X0254205Y0129764D01*
X0252527Y0129784D02*
X0244253Y0129784D01*
X0244205Y0129764D02*
X0245712Y0130388D01*
X0246866Y0131542D01*
X0247490Y0133049D01*
X0247490Y0134680D01*
X0246866Y0136187D01*
X0245712Y0137340D01*
X0244205Y0137964D01*
X0242574Y0137964D01*
X0241067Y0137340D01*
X0239914Y0136187D01*
X0239290Y0134680D01*
X0239290Y0133049D01*
X0239914Y0131542D01*
X0241067Y0130388D01*
X0242574Y0129764D01*
X0244205Y0129764D01*
X0242527Y0129784D02*
X0234253Y0129784D01*
X0236106Y0130782D02*
X0240673Y0130782D01*
X0239815Y0131781D02*
X0236965Y0131781D01*
X0237378Y0132780D02*
X0239401Y0132780D01*
X0239290Y0133778D02*
X0237490Y0133778D01*
X0237450Y0134777D02*
X0239330Y0134777D01*
X0239743Y0135775D02*
X0237036Y0135775D01*
X0236279Y0136774D02*
X0240501Y0136774D01*
X0242110Y0137772D02*
X0234669Y0137772D01*
X0244669Y0137772D02*
X0252110Y0137772D01*
X0250501Y0136774D02*
X0246279Y0136774D01*
X0247036Y0135775D02*
X0249743Y0135775D01*
X0249330Y0134777D02*
X0247450Y0134777D01*
X0247490Y0133778D02*
X0249290Y0133778D01*
X0249401Y0132780D02*
X0247378Y0132780D01*
X0246965Y0131781D02*
X0249815Y0131781D01*
X0250673Y0130782D02*
X0246106Y0130782D01*
X0256106Y0130782D02*
X0260673Y0130782D01*
X0259815Y0131781D02*
X0256965Y0131781D01*
X0257378Y0132780D02*
X0259401Y0132780D01*
X0259290Y0133778D02*
X0257490Y0133778D01*
X0257450Y0134777D02*
X0259330Y0134777D01*
X0259743Y0135775D02*
X0257036Y0135775D01*
X0256279Y0136774D02*
X0260501Y0136774D01*
X0262110Y0137772D02*
X0254669Y0137772D01*
X0264669Y0137772D02*
X0272110Y0137772D01*
X0270501Y0136774D02*
X0266279Y0136774D01*
X0267036Y0135775D02*
X0269743Y0135775D01*
X0269330Y0134777D02*
X0267450Y0134777D01*
X0267490Y0133778D02*
X0269290Y0133778D01*
X0269401Y0132780D02*
X0267378Y0132780D01*
X0266965Y0131781D02*
X0269815Y0131781D01*
X0270673Y0130782D02*
X0266106Y0130782D01*
X0276106Y0130782D02*
X0280673Y0130782D01*
X0279815Y0131781D02*
X0276965Y0131781D01*
X0277378Y0132780D02*
X0279401Y0132780D01*
X0279290Y0133778D02*
X0277490Y0133778D01*
X0277450Y0134777D02*
X0279330Y0134777D01*
X0279743Y0135775D02*
X0277036Y0135775D01*
X0276279Y0136774D02*
X0280501Y0136774D01*
X0282110Y0137772D02*
X0274669Y0137772D01*
X0284669Y0137772D02*
X0292110Y0137772D01*
X0290501Y0136774D02*
X0286279Y0136774D01*
X0287036Y0135775D02*
X0289743Y0135775D01*
X0289330Y0134777D02*
X0287450Y0134777D01*
X0287490Y0133778D02*
X0289290Y0133778D01*
X0289401Y0132780D02*
X0287378Y0132780D01*
X0286965Y0131781D02*
X0289815Y0131781D01*
X0290673Y0130782D02*
X0286106Y0130782D01*
X0296106Y0130782D02*
X0300673Y0130782D01*
X0299815Y0131781D02*
X0296965Y0131781D01*
X0297378Y0132780D02*
X0299401Y0132780D01*
X0299290Y0133778D02*
X0297490Y0133778D01*
X0297450Y0134777D02*
X0299330Y0134777D01*
X0299743Y0135775D02*
X0297036Y0135775D01*
X0296279Y0136774D02*
X0300501Y0136774D01*
X0302110Y0137772D02*
X0294669Y0137772D01*
X0304669Y0137772D02*
X0312110Y0137772D01*
X0310501Y0136774D02*
X0306279Y0136774D01*
X0307036Y0135775D02*
X0309743Y0135775D01*
X0309330Y0134777D02*
X0307450Y0134777D01*
X0307490Y0133778D02*
X0309290Y0133778D01*
X0309401Y0132780D02*
X0307378Y0132780D01*
X0306965Y0131781D02*
X0309815Y0131781D01*
X0310673Y0130782D02*
X0306106Y0130782D01*
X0316106Y0130782D02*
X0320673Y0130782D01*
X0319815Y0131781D02*
X0316965Y0131781D01*
X0317378Y0132780D02*
X0319401Y0132780D01*
X0319290Y0133778D02*
X0317490Y0133778D01*
X0317450Y0134777D02*
X0319330Y0134777D01*
X0319743Y0135775D02*
X0317036Y0135775D01*
X0316279Y0136774D02*
X0320501Y0136774D01*
X0322110Y0137772D02*
X0314669Y0137772D01*
X0324669Y0137772D02*
X0332110Y0137772D01*
X0330501Y0136774D02*
X0326279Y0136774D01*
X0327036Y0135775D02*
X0329743Y0135775D01*
X0329330Y0134777D02*
X0327450Y0134777D01*
X0327490Y0133778D02*
X0329290Y0133778D01*
X0329401Y0132780D02*
X0327378Y0132780D01*
X0326965Y0131781D02*
X0329815Y0131781D01*
X0330673Y0130782D02*
X0326106Y0130782D01*
X0337036Y0135775D02*
X0339313Y0135775D01*
X0338978Y0134777D02*
X0337450Y0134777D01*
X0342890Y0135775D02*
X0343890Y0135775D01*
X0343890Y0136774D02*
X0342890Y0136774D01*
X0342890Y0137772D02*
X0343890Y0137772D01*
X0341147Y0137772D02*
X0334669Y0137772D01*
X0336279Y0136774D02*
X0339941Y0136774D01*
X0364669Y0137772D02*
X0372110Y0137772D01*
X0370501Y0136774D02*
X0366279Y0136774D01*
X0367036Y0135775D02*
X0369743Y0135775D01*
X0369330Y0134777D02*
X0367450Y0134777D01*
X0367490Y0133778D02*
X0369290Y0133778D01*
X0369401Y0132780D02*
X0367378Y0132780D01*
X0366965Y0131781D02*
X0369815Y0131781D01*
X0370673Y0130782D02*
X0366106Y0130782D01*
X0377036Y0135775D02*
X0378890Y0135775D01*
X0378890Y0134777D02*
X0377450Y0134777D01*
X0378890Y0134364D02*
X0382890Y0134364D01*
X0382890Y0138364D01*
X0380192Y0138364D01*
X0379811Y0138262D01*
X0379469Y0138065D01*
X0379189Y0137785D01*
X0378992Y0137443D01*
X0378890Y0137062D01*
X0378890Y0134364D01*
X0382890Y0134777D02*
X0383890Y0134777D01*
X0383890Y0135775D02*
X0382890Y0135775D01*
X0382890Y0136774D02*
X0383890Y0136774D01*
X0383890Y0137772D02*
X0382890Y0137772D01*
X0379182Y0137772D02*
X0374669Y0137772D01*
X0376279Y0136774D02*
X0378890Y0136774D01*
X0387598Y0137772D02*
X0398531Y0137772D01*
X0398118Y0136774D02*
X0387890Y0136774D01*
X0387890Y0135775D02*
X0397704Y0135775D01*
X0397531Y0134777D02*
X0387890Y0134777D01*
X0383890Y0131781D02*
X0382890Y0131781D01*
X0382890Y0130782D02*
X0383890Y0130782D01*
X0383890Y0129784D02*
X0382890Y0129784D01*
X0388724Y0124791D02*
X0412886Y0124791D01*
X0412886Y0123793D02*
X0389588Y0123793D01*
M02*
