G75*
%MOIN*%
%OFA0B0*%
%FSLAX25Y25*%
%IPPOS*%
%LPD*%
%AMOC8*
5,1,8,0,0,1.08239X$1,22.5*
%
%ADD10C,0.00300*%
%ADD11C,0.00500*%
%ADD12C,0.00800*%
%ADD13C,0.01000*%
%ADD14C,0.00100*%
%ADD15C,0.00600*%
D10*
X0018448Y0007608D02*
X0018931Y0007125D01*
X0020866Y0007125D01*
X0021350Y0007608D01*
X0021350Y0008576D01*
X0020866Y0009059D01*
X0019899Y0009059D01*
X0019899Y0008092D01*
X0018931Y0009059D02*
X0018448Y0008576D01*
X0018448Y0007608D01*
X0018448Y0010071D02*
X0021350Y0012006D01*
X0018448Y0012006D01*
X0018448Y0013018D02*
X0018448Y0014469D01*
X0018931Y0014953D01*
X0020866Y0014953D01*
X0021350Y0014469D01*
X0021350Y0013018D01*
X0018448Y0013018D01*
X0018448Y0010071D02*
X0021350Y0010071D01*
X0039899Y0027125D02*
X0039899Y0029059D01*
X0039899Y0030071D02*
X0039415Y0031039D01*
X0039415Y0031522D01*
X0039899Y0032006D01*
X0040866Y0032006D01*
X0041350Y0031522D01*
X0041350Y0030555D01*
X0040866Y0030071D01*
X0039899Y0030071D02*
X0038448Y0030071D01*
X0038448Y0032006D01*
X0038448Y0033018D02*
X0040383Y0033018D01*
X0041350Y0033985D01*
X0040383Y0034953D01*
X0038448Y0034953D01*
X0048448Y0032006D02*
X0051350Y0030071D01*
X0051350Y0029059D02*
X0050383Y0028092D01*
X0050383Y0028576D02*
X0050383Y0027125D01*
X0051350Y0027125D02*
X0048448Y0027125D01*
X0048448Y0028576D01*
X0048931Y0029059D01*
X0049899Y0029059D01*
X0050383Y0028576D01*
X0048448Y0030071D02*
X0051350Y0032006D01*
X0058448Y0032006D02*
X0061350Y0030071D01*
X0061350Y0032006D02*
X0058448Y0030071D01*
X0058448Y0029059D02*
X0058448Y0027125D01*
X0058448Y0028092D02*
X0061350Y0028092D01*
X0040866Y0028092D02*
X0038931Y0028092D01*
X0014478Y0035108D02*
X0013994Y0034625D01*
X0012543Y0034625D01*
X0012543Y0037527D01*
X0013994Y0037527D01*
X0014478Y0037043D01*
X0014478Y0036559D01*
X0013994Y0036076D01*
X0012543Y0036076D01*
X0011531Y0035592D02*
X0011531Y0035108D01*
X0011048Y0034625D01*
X0010080Y0034625D01*
X0009597Y0035108D01*
X0008585Y0035108D02*
X0008585Y0037527D01*
X0009597Y0037043D02*
X0009597Y0036559D01*
X0010080Y0036076D01*
X0011048Y0036076D01*
X0011531Y0035592D01*
X0011531Y0037043D02*
X0011048Y0037527D01*
X0010080Y0037527D01*
X0009597Y0037043D01*
X0008585Y0035108D02*
X0008101Y0034625D01*
X0007134Y0034625D01*
X0006650Y0035108D01*
X0006650Y0037527D01*
X0013994Y0036076D02*
X0014478Y0035592D01*
X0014478Y0035108D01*
X0013511Y0057125D02*
X0013511Y0060027D01*
X0014478Y0060027D02*
X0012543Y0060027D01*
X0011531Y0059543D02*
X0011048Y0060027D01*
X0010080Y0060027D01*
X0009597Y0059543D01*
X0009597Y0057608D01*
X0010080Y0057125D01*
X0011048Y0057125D01*
X0011531Y0057608D01*
X0011531Y0059543D01*
X0008585Y0060027D02*
X0008585Y0057125D01*
X0006650Y0057125D02*
X0006650Y0060027D01*
X0007617Y0059059D01*
X0008585Y0060027D01*
X0089150Y0087125D02*
X0089150Y0090027D01*
X0090117Y0089059D01*
X0091085Y0090027D01*
X0091085Y0087125D01*
X0092097Y0087608D02*
X0092097Y0089543D01*
X0092580Y0090027D01*
X0093548Y0090027D01*
X0094031Y0089543D01*
X0095043Y0090027D02*
X0095043Y0087125D01*
X0096978Y0087125D01*
X0097990Y0087125D02*
X0097990Y0090027D01*
X0099441Y0090027D01*
X0099925Y0089543D01*
X0099925Y0088576D01*
X0099441Y0088092D01*
X0097990Y0088092D01*
X0098957Y0088092D02*
X0099925Y0087125D01*
X0094031Y0087608D02*
X0093548Y0087125D01*
X0092580Y0087125D01*
X0092097Y0087608D01*
X0089000Y0090625D02*
X0100786Y0090625D01*
X0099478Y0082527D02*
X0099478Y0080592D01*
X0098511Y0079625D01*
X0097543Y0080592D01*
X0097543Y0082527D01*
X0096531Y0082527D02*
X0094597Y0082527D01*
X0094597Y0081076D01*
X0095564Y0081559D01*
X0096048Y0081559D01*
X0096531Y0081076D01*
X0096531Y0080108D01*
X0096048Y0079625D01*
X0095080Y0079625D01*
X0094597Y0080108D01*
X0093585Y0081076D02*
X0091650Y0081076D01*
X0092617Y0082043D02*
X0092617Y0080108D01*
X0114648Y0073629D02*
X0115131Y0074113D01*
X0117066Y0072178D01*
X0117550Y0072662D01*
X0117550Y0073629D01*
X0117066Y0074113D01*
X0115131Y0074113D01*
X0114648Y0073629D02*
X0114648Y0072662D01*
X0115131Y0072178D01*
X0117066Y0072178D01*
X0117066Y0071166D02*
X0117550Y0070683D01*
X0117550Y0069715D01*
X0117066Y0069231D01*
X0115131Y0071166D01*
X0117066Y0071166D01*
X0115131Y0071166D02*
X0114648Y0070683D01*
X0114648Y0069715D01*
X0115131Y0069231D01*
X0117066Y0069231D01*
X0117550Y0068220D02*
X0117550Y0066285D01*
X0117550Y0067252D02*
X0114648Y0067252D01*
X0115615Y0066285D01*
X0099478Y0067043D02*
X0099478Y0065108D01*
X0098994Y0064625D01*
X0097543Y0064625D01*
X0097543Y0067527D01*
X0098994Y0067527D01*
X0099478Y0067043D01*
X0096531Y0067527D02*
X0096531Y0064625D01*
X0094597Y0067527D01*
X0094597Y0064625D01*
X0093585Y0065108D02*
X0093585Y0066076D01*
X0092617Y0066076D01*
X0091650Y0067043D02*
X0091650Y0065108D01*
X0092134Y0064625D01*
X0093101Y0064625D01*
X0093585Y0065108D01*
X0093585Y0067043D02*
X0093101Y0067527D01*
X0092134Y0067527D01*
X0091650Y0067043D01*
X0091650Y0060027D02*
X0093101Y0060027D01*
X0093585Y0059543D01*
X0093585Y0058576D01*
X0093101Y0058092D01*
X0091650Y0058092D01*
X0091650Y0057125D02*
X0091650Y0060027D01*
X0094597Y0059543D02*
X0094597Y0057608D01*
X0095080Y0057125D01*
X0096048Y0057125D01*
X0096531Y0057608D01*
X0096531Y0058576D01*
X0095564Y0058576D01*
X0094597Y0059543D02*
X0095080Y0060027D01*
X0096048Y0060027D01*
X0096531Y0059543D01*
X0097543Y0060027D02*
X0098994Y0060027D01*
X0099478Y0059543D01*
X0099478Y0057608D01*
X0098994Y0057125D01*
X0097543Y0057125D01*
X0097543Y0060027D01*
X0098027Y0050027D02*
X0097543Y0049543D01*
X0097543Y0047608D01*
X0098027Y0047125D01*
X0098994Y0047125D01*
X0099478Y0047608D01*
X0096531Y0047608D02*
X0096531Y0048576D01*
X0095564Y0048576D01*
X0094597Y0049543D02*
X0094597Y0047608D01*
X0095080Y0047125D01*
X0096048Y0047125D01*
X0096531Y0047608D01*
X0093585Y0048576D02*
X0093101Y0048092D01*
X0091650Y0048092D01*
X0091650Y0047125D02*
X0091650Y0050027D01*
X0093101Y0050027D01*
X0093585Y0049543D01*
X0093585Y0048576D01*
X0094597Y0049543D02*
X0095080Y0050027D01*
X0096048Y0050027D01*
X0096531Y0049543D01*
X0098027Y0050027D02*
X0098994Y0050027D01*
X0099478Y0049543D01*
X0168448Y0029469D02*
X0168448Y0028018D01*
X0171350Y0028018D01*
X0171350Y0029469D01*
X0170866Y0029953D01*
X0168931Y0029953D01*
X0168448Y0029469D01*
X0168448Y0027006D02*
X0171350Y0027006D01*
X0168448Y0025071D01*
X0171350Y0025071D01*
X0170866Y0024059D02*
X0169899Y0024059D01*
X0169899Y0023092D01*
X0170866Y0022125D02*
X0168931Y0022125D01*
X0168448Y0022608D01*
X0168448Y0023576D01*
X0168931Y0024059D01*
X0170866Y0024059D02*
X0171350Y0023576D01*
X0171350Y0022608D01*
X0170866Y0022125D01*
X0178931Y0023092D02*
X0180866Y0023092D01*
X0179899Y0022125D02*
X0179899Y0024059D01*
X0179899Y0025071D02*
X0178448Y0025071D01*
X0178448Y0027006D01*
X0178448Y0028018D02*
X0180383Y0028018D01*
X0181350Y0028985D01*
X0180383Y0029953D01*
X0178448Y0029953D01*
X0179899Y0027006D02*
X0180866Y0027006D01*
X0181350Y0026522D01*
X0181350Y0025555D01*
X0180866Y0025071D01*
X0179899Y0025071D02*
X0179415Y0026039D01*
X0179415Y0026522D01*
X0179899Y0027006D01*
X0258448Y0028464D02*
X0261350Y0028464D01*
X0260383Y0028464D02*
X0258448Y0030399D01*
X0259899Y0028948D02*
X0261350Y0030399D01*
X0261350Y0027453D02*
X0261350Y0025518D01*
X0258448Y0025518D01*
X0258931Y0024506D02*
X0258448Y0024022D01*
X0258448Y0023055D01*
X0258931Y0022571D01*
X0260866Y0022571D01*
X0261350Y0023055D01*
X0261350Y0024022D01*
X0260866Y0024506D01*
X0260866Y0021559D02*
X0261350Y0021076D01*
X0261350Y0020108D01*
X0260866Y0019625D01*
X0259899Y0020108D02*
X0259899Y0021076D01*
X0260383Y0021559D01*
X0260866Y0021559D01*
X0259899Y0020108D02*
X0259415Y0019625D01*
X0258931Y0019625D01*
X0258448Y0020108D01*
X0258448Y0021076D01*
X0258931Y0021559D01*
X0258757Y0035925D02*
X0260692Y0035925D01*
X0259724Y0035925D02*
X0259724Y0038827D01*
X0258757Y0037859D01*
X0261703Y0036892D02*
X0263638Y0038827D01*
X0261703Y0038827D02*
X0261703Y0035925D01*
X0262187Y0037376D02*
X0263638Y0035925D01*
X0274634Y0057125D02*
X0275601Y0057125D01*
X0276085Y0057608D01*
X0277097Y0057608D02*
X0277580Y0057125D01*
X0278548Y0057125D01*
X0279031Y0057608D01*
X0279031Y0058092D01*
X0278548Y0058576D01*
X0278064Y0058576D01*
X0278548Y0058576D02*
X0279031Y0059059D01*
X0279031Y0059543D01*
X0278548Y0060027D01*
X0277580Y0060027D01*
X0277097Y0059543D01*
X0276085Y0059543D02*
X0275601Y0060027D01*
X0274634Y0060027D01*
X0274150Y0059543D01*
X0274150Y0057608D01*
X0274634Y0057125D01*
X0216531Y0092608D02*
X0216048Y0092125D01*
X0215080Y0092125D01*
X0214597Y0092608D01*
X0214597Y0093576D02*
X0215564Y0094059D01*
X0216048Y0094059D01*
X0216531Y0093576D01*
X0216531Y0092608D01*
X0214597Y0093576D02*
X0214597Y0095027D01*
X0216531Y0095027D01*
X0213585Y0094543D02*
X0213101Y0095027D01*
X0212134Y0095027D01*
X0211650Y0094543D01*
X0211650Y0092608D01*
X0212134Y0092125D01*
X0213101Y0092125D01*
X0213585Y0092608D01*
X0146531Y0088576D02*
X0144597Y0088576D01*
X0146048Y0090027D01*
X0146048Y0087125D01*
X0143585Y0087608D02*
X0143101Y0087125D01*
X0142134Y0087125D01*
X0141650Y0087608D01*
X0141650Y0089543D01*
X0142134Y0090027D01*
X0143101Y0090027D01*
X0143585Y0089543D01*
X0101531Y0102125D02*
X0099597Y0102125D01*
X0101531Y0104059D01*
X0101531Y0104543D01*
X0101048Y0105027D01*
X0100080Y0105027D01*
X0099597Y0104543D01*
X0098585Y0104543D02*
X0098101Y0105027D01*
X0097134Y0105027D01*
X0096650Y0104543D01*
X0096650Y0102608D01*
X0097134Y0102125D01*
X0098101Y0102125D01*
X0098585Y0102608D01*
X0113650Y0115125D02*
X0115585Y0115125D01*
X0114617Y0115125D02*
X0114617Y0118027D01*
X0113650Y0117059D01*
X0116597Y0117543D02*
X0116597Y0115608D01*
X0118531Y0117543D01*
X0118531Y0115608D01*
X0118048Y0115125D01*
X0117080Y0115125D01*
X0116597Y0115608D01*
X0116597Y0117543D02*
X0117080Y0118027D01*
X0118048Y0118027D01*
X0118531Y0117543D01*
X0119543Y0118027D02*
X0119543Y0115125D01*
X0119543Y0116092D02*
X0121478Y0118027D01*
X0120027Y0116576D02*
X0121478Y0115125D01*
X0385757Y0111343D02*
X0385757Y0109408D01*
X0386241Y0108925D01*
X0387208Y0108925D01*
X0387692Y0109408D01*
X0388703Y0109408D02*
X0389187Y0108925D01*
X0390155Y0108925D01*
X0390638Y0109408D01*
X0390638Y0109892D01*
X0390155Y0110376D01*
X0388703Y0110376D01*
X0388703Y0109408D01*
X0388703Y0110376D02*
X0389671Y0111343D01*
X0390638Y0111827D01*
X0387692Y0111343D02*
X0387208Y0111827D01*
X0386241Y0111827D01*
X0385757Y0111343D01*
D11*
X0312855Y0029228D02*
X0312855Y0024725D01*
X0311354Y0024725D02*
X0314356Y0024725D01*
X0309753Y0025475D02*
X0309753Y0028478D01*
X0309002Y0029228D01*
X0306750Y0029228D01*
X0306750Y0024725D01*
X0309002Y0024725D01*
X0309753Y0025475D01*
X0311354Y0027727D02*
X0312855Y0029228D01*
X0322501Y0019228D02*
X0324002Y0019228D01*
X0324753Y0018478D01*
X0321750Y0015475D01*
X0322501Y0014725D01*
X0324002Y0014725D01*
X0324753Y0015475D01*
X0324753Y0018478D01*
X0326354Y0018478D02*
X0327105Y0019228D01*
X0328606Y0019228D01*
X0329356Y0018478D01*
X0329356Y0017727D01*
X0328606Y0016976D01*
X0329356Y0016226D01*
X0329356Y0015475D01*
X0328606Y0014725D01*
X0327105Y0014725D01*
X0326354Y0015475D01*
X0327855Y0016976D02*
X0328606Y0016976D01*
X0330958Y0016976D02*
X0332459Y0016976D01*
X0330958Y0014725D02*
X0330958Y0019228D01*
X0333960Y0019228D01*
X0335562Y0019228D02*
X0335562Y0014725D01*
X0338564Y0014725D01*
X0340166Y0014725D02*
X0342418Y0014725D01*
X0343168Y0015475D01*
X0343168Y0016226D01*
X0342418Y0016976D01*
X0340166Y0016976D01*
X0340166Y0014725D02*
X0340166Y0019228D01*
X0342418Y0019228D01*
X0343168Y0018478D01*
X0343168Y0017727D01*
X0342418Y0016976D01*
X0344770Y0018478D02*
X0345520Y0019228D01*
X0347022Y0019228D01*
X0347772Y0018478D01*
X0347772Y0017727D01*
X0344770Y0014725D01*
X0347772Y0014725D01*
X0349374Y0015475D02*
X0352376Y0018478D01*
X0352376Y0015475D01*
X0351625Y0014725D01*
X0350124Y0014725D01*
X0349374Y0015475D01*
X0349374Y0018478D01*
X0350124Y0019228D01*
X0351625Y0019228D01*
X0352376Y0018478D01*
X0353977Y0017727D02*
X0355479Y0019228D01*
X0355479Y0014725D01*
X0356980Y0014725D02*
X0353977Y0014725D01*
X0358581Y0014725D02*
X0358581Y0015475D01*
X0361584Y0018478D01*
X0361584Y0019228D01*
X0358581Y0019228D01*
X0338564Y0019228D02*
X0335562Y0019228D01*
X0335562Y0016976D02*
X0337063Y0016976D01*
X0322501Y0019228D02*
X0321750Y0018478D01*
X0321750Y0015475D01*
X0160149Y0010978D02*
X0159398Y0011728D01*
X0157897Y0011728D01*
X0157146Y0010978D01*
X0155545Y0010978D02*
X0155545Y0009476D01*
X0154794Y0008726D01*
X0152542Y0008726D01*
X0150190Y0007975D02*
X0150190Y0011728D01*
X0149439Y0011728D02*
X0150941Y0011728D01*
X0152542Y0011728D02*
X0154794Y0011728D01*
X0155545Y0010978D01*
X0152542Y0011728D02*
X0152542Y0007225D01*
X0150190Y0007975D02*
X0149439Y0007225D01*
X0148689Y0007225D01*
X0147938Y0007975D01*
X0157146Y0007225D02*
X0160149Y0010227D01*
X0160149Y0010978D01*
X0160149Y0007225D02*
X0157146Y0007225D01*
X0084356Y0019725D02*
X0081354Y0019725D01*
X0084356Y0022727D01*
X0084356Y0023478D01*
X0083606Y0024228D01*
X0082105Y0024228D01*
X0081354Y0023478D01*
X0079753Y0024228D02*
X0076750Y0019725D01*
X0079753Y0019725D02*
X0076750Y0024228D01*
X0136750Y0057975D02*
X0137501Y0057225D01*
X0139002Y0057225D01*
X0139753Y0057975D01*
X0139753Y0061728D01*
X0141354Y0060978D02*
X0142105Y0061728D01*
X0143606Y0061728D01*
X0144356Y0060978D01*
X0144356Y0060227D01*
X0143606Y0059476D01*
X0144356Y0058726D01*
X0144356Y0057975D01*
X0143606Y0057225D01*
X0142105Y0057225D01*
X0141354Y0057975D01*
X0142855Y0059476D02*
X0143606Y0059476D01*
X0136750Y0057975D02*
X0136750Y0061728D01*
X0104356Y0094725D02*
X0101354Y0094725D01*
X0102855Y0094725D02*
X0102855Y0099228D01*
X0101354Y0097727D01*
X0099753Y0099228D02*
X0096750Y0094725D01*
X0099753Y0094725D02*
X0096750Y0099228D01*
X0017855Y0071728D02*
X0017855Y0067225D01*
X0016354Y0067225D02*
X0019356Y0067225D01*
X0014002Y0067975D02*
X0014002Y0071728D01*
X0013251Y0071728D02*
X0014753Y0071728D01*
X0016354Y0070227D02*
X0017855Y0071728D01*
X0014002Y0067975D02*
X0013251Y0067225D01*
X0012501Y0067225D01*
X0011750Y0067975D01*
D12*
X0019000Y0061975D02*
X0016500Y0059475D01*
X0016500Y0054475D01*
X0019000Y0051975D01*
X0016500Y0049475D01*
X0016500Y0044475D01*
X0019000Y0041975D01*
X0016500Y0039475D01*
X0016500Y0034475D01*
X0019000Y0031975D01*
X0024000Y0031975D01*
X0026500Y0034475D01*
X0026500Y0039475D01*
X0024000Y0041975D01*
X0026500Y0044475D01*
X0026500Y0049475D01*
X0024000Y0051975D01*
X0026500Y0054475D01*
X0026500Y0059475D01*
X0024000Y0061975D01*
X0019000Y0061975D01*
X0101500Y0064475D02*
X0104000Y0061975D01*
X0101500Y0059475D01*
X0101500Y0054475D01*
X0104000Y0051975D01*
X0101500Y0049475D01*
X0101500Y0044475D01*
X0104000Y0041975D01*
X0109000Y0041975D01*
X0111500Y0044475D01*
X0111500Y0049475D01*
X0109000Y0051975D01*
X0111500Y0054475D01*
X0111500Y0059475D01*
X0109000Y0061975D01*
X0111500Y0064475D01*
X0111500Y0069475D01*
X0109000Y0071975D01*
X0111500Y0074475D01*
X0111500Y0079475D01*
X0109000Y0081975D01*
X0111500Y0084475D01*
X0111500Y0089475D01*
X0109000Y0091975D01*
X0104000Y0091975D01*
X0101500Y0089475D01*
X0101500Y0084475D01*
X0104000Y0081975D01*
X0101500Y0079475D01*
X0101500Y0074475D01*
X0104000Y0071975D01*
X0101500Y0069475D01*
X0101500Y0064475D01*
X0113500Y0056975D02*
X0113500Y0076975D01*
X0116500Y0076975D01*
X0116500Y0077975D01*
X0116500Y0076975D02*
X0119500Y0076975D01*
X0119500Y0056975D01*
X0116500Y0056975D01*
X0116500Y0055975D01*
X0116500Y0056975D02*
X0113500Y0056975D01*
X0131500Y0084475D02*
X0131500Y0089475D01*
X0111500Y0101975D02*
X0111500Y0106975D01*
X0111500Y0113975D02*
X0111500Y0116975D01*
X0110500Y0116975D01*
X0111500Y0116975D02*
X0111500Y0119975D01*
X0131500Y0119975D01*
X0131500Y0116975D01*
X0132500Y0116975D01*
X0131500Y0116975D02*
X0131500Y0113975D01*
X0111500Y0113975D01*
X0090831Y0119455D02*
X0082169Y0119455D01*
X0076657Y0111975D02*
X0076660Y0112217D01*
X0076669Y0112458D01*
X0076684Y0112699D01*
X0076704Y0112940D01*
X0076731Y0113180D01*
X0076764Y0113419D01*
X0076802Y0113658D01*
X0076846Y0113895D01*
X0076896Y0114132D01*
X0076952Y0114367D01*
X0077014Y0114600D01*
X0077081Y0114832D01*
X0077154Y0115063D01*
X0077232Y0115291D01*
X0077317Y0115517D01*
X0077406Y0115742D01*
X0077501Y0115964D01*
X0077602Y0116183D01*
X0077708Y0116401D01*
X0077819Y0116615D01*
X0077936Y0116827D01*
X0078057Y0117035D01*
X0078184Y0117241D01*
X0078316Y0117443D01*
X0078453Y0117643D01*
X0078594Y0117838D01*
X0078740Y0118031D01*
X0078891Y0118219D01*
X0079047Y0118404D01*
X0079207Y0118585D01*
X0079371Y0118762D01*
X0079540Y0118935D01*
X0079713Y0119104D01*
X0079890Y0119268D01*
X0080071Y0119428D01*
X0080256Y0119584D01*
X0080444Y0119735D01*
X0080637Y0119881D01*
X0080832Y0120022D01*
X0081032Y0120159D01*
X0081234Y0120291D01*
X0081440Y0120418D01*
X0081648Y0120539D01*
X0081860Y0120656D01*
X0082074Y0120767D01*
X0082292Y0120873D01*
X0082511Y0120974D01*
X0082733Y0121069D01*
X0082958Y0121158D01*
X0083184Y0121243D01*
X0083412Y0121321D01*
X0083643Y0121394D01*
X0083875Y0121461D01*
X0084108Y0121523D01*
X0084343Y0121579D01*
X0084580Y0121629D01*
X0084817Y0121673D01*
X0085056Y0121711D01*
X0085295Y0121744D01*
X0085535Y0121771D01*
X0085776Y0121791D01*
X0086017Y0121806D01*
X0086258Y0121815D01*
X0086500Y0121818D01*
X0086742Y0121815D01*
X0086983Y0121806D01*
X0087224Y0121791D01*
X0087465Y0121771D01*
X0087705Y0121744D01*
X0087944Y0121711D01*
X0088183Y0121673D01*
X0088420Y0121629D01*
X0088657Y0121579D01*
X0088892Y0121523D01*
X0089125Y0121461D01*
X0089357Y0121394D01*
X0089588Y0121321D01*
X0089816Y0121243D01*
X0090042Y0121158D01*
X0090267Y0121069D01*
X0090489Y0120974D01*
X0090708Y0120873D01*
X0090926Y0120767D01*
X0091140Y0120656D01*
X0091352Y0120539D01*
X0091560Y0120418D01*
X0091766Y0120291D01*
X0091968Y0120159D01*
X0092168Y0120022D01*
X0092363Y0119881D01*
X0092556Y0119735D01*
X0092744Y0119584D01*
X0092929Y0119428D01*
X0093110Y0119268D01*
X0093287Y0119104D01*
X0093460Y0118935D01*
X0093629Y0118762D01*
X0093793Y0118585D01*
X0093953Y0118404D01*
X0094109Y0118219D01*
X0094260Y0118031D01*
X0094406Y0117838D01*
X0094547Y0117643D01*
X0094684Y0117443D01*
X0094816Y0117241D01*
X0094943Y0117035D01*
X0095064Y0116827D01*
X0095181Y0116615D01*
X0095292Y0116401D01*
X0095398Y0116183D01*
X0095499Y0115964D01*
X0095594Y0115742D01*
X0095683Y0115517D01*
X0095768Y0115291D01*
X0095846Y0115063D01*
X0095919Y0114832D01*
X0095986Y0114600D01*
X0096048Y0114367D01*
X0096104Y0114132D01*
X0096154Y0113895D01*
X0096198Y0113658D01*
X0096236Y0113419D01*
X0096269Y0113180D01*
X0096296Y0112940D01*
X0096316Y0112699D01*
X0096331Y0112458D01*
X0096340Y0112217D01*
X0096343Y0111975D01*
X0096340Y0111733D01*
X0096331Y0111492D01*
X0096316Y0111251D01*
X0096296Y0111010D01*
X0096269Y0110770D01*
X0096236Y0110531D01*
X0096198Y0110292D01*
X0096154Y0110055D01*
X0096104Y0109818D01*
X0096048Y0109583D01*
X0095986Y0109350D01*
X0095919Y0109118D01*
X0095846Y0108887D01*
X0095768Y0108659D01*
X0095683Y0108433D01*
X0095594Y0108208D01*
X0095499Y0107986D01*
X0095398Y0107767D01*
X0095292Y0107549D01*
X0095181Y0107335D01*
X0095064Y0107123D01*
X0094943Y0106915D01*
X0094816Y0106709D01*
X0094684Y0106507D01*
X0094547Y0106307D01*
X0094406Y0106112D01*
X0094260Y0105919D01*
X0094109Y0105731D01*
X0093953Y0105546D01*
X0093793Y0105365D01*
X0093629Y0105188D01*
X0093460Y0105015D01*
X0093287Y0104846D01*
X0093110Y0104682D01*
X0092929Y0104522D01*
X0092744Y0104366D01*
X0092556Y0104215D01*
X0092363Y0104069D01*
X0092168Y0103928D01*
X0091968Y0103791D01*
X0091766Y0103659D01*
X0091560Y0103532D01*
X0091352Y0103411D01*
X0091140Y0103294D01*
X0090926Y0103183D01*
X0090708Y0103077D01*
X0090489Y0102976D01*
X0090267Y0102881D01*
X0090042Y0102792D01*
X0089816Y0102707D01*
X0089588Y0102629D01*
X0089357Y0102556D01*
X0089125Y0102489D01*
X0088892Y0102427D01*
X0088657Y0102371D01*
X0088420Y0102321D01*
X0088183Y0102277D01*
X0087944Y0102239D01*
X0087705Y0102206D01*
X0087465Y0102179D01*
X0087224Y0102159D01*
X0086983Y0102144D01*
X0086742Y0102135D01*
X0086500Y0102132D01*
X0086258Y0102135D01*
X0086017Y0102144D01*
X0085776Y0102159D01*
X0085535Y0102179D01*
X0085295Y0102206D01*
X0085056Y0102239D01*
X0084817Y0102277D01*
X0084580Y0102321D01*
X0084343Y0102371D01*
X0084108Y0102427D01*
X0083875Y0102489D01*
X0083643Y0102556D01*
X0083412Y0102629D01*
X0083184Y0102707D01*
X0082958Y0102792D01*
X0082733Y0102881D01*
X0082511Y0102976D01*
X0082292Y0103077D01*
X0082074Y0103183D01*
X0081860Y0103294D01*
X0081648Y0103411D01*
X0081440Y0103532D01*
X0081234Y0103659D01*
X0081032Y0103791D01*
X0080832Y0103928D01*
X0080637Y0104069D01*
X0080444Y0104215D01*
X0080256Y0104366D01*
X0080071Y0104522D01*
X0079890Y0104682D01*
X0079713Y0104846D01*
X0079540Y0105015D01*
X0079371Y0105188D01*
X0079207Y0105365D01*
X0079047Y0105546D01*
X0078891Y0105731D01*
X0078740Y0105919D01*
X0078594Y0106112D01*
X0078453Y0106307D01*
X0078316Y0106507D01*
X0078184Y0106709D01*
X0078057Y0106915D01*
X0077936Y0107123D01*
X0077819Y0107335D01*
X0077708Y0107549D01*
X0077602Y0107767D01*
X0077501Y0107986D01*
X0077406Y0108208D01*
X0077317Y0108433D01*
X0077232Y0108659D01*
X0077154Y0108887D01*
X0077081Y0109118D01*
X0077014Y0109350D01*
X0076952Y0109583D01*
X0076896Y0109818D01*
X0076846Y0110055D01*
X0076802Y0110292D01*
X0076764Y0110531D01*
X0076731Y0110770D01*
X0076704Y0111010D01*
X0076684Y0111251D01*
X0076669Y0111492D01*
X0076660Y0111733D01*
X0076657Y0111975D01*
X0204000Y0091975D02*
X0209000Y0091975D01*
X0228500Y0096975D02*
X0228500Y0116975D01*
X0231500Y0116975D01*
X0231500Y0117975D01*
X0231500Y0116975D02*
X0234500Y0116975D01*
X0234500Y0096975D01*
X0231500Y0096975D01*
X0231500Y0095975D01*
X0231500Y0096975D02*
X0228500Y0096975D01*
X0266500Y0061975D02*
X0271500Y0061975D01*
X0266500Y0039975D02*
X0246500Y0039975D01*
X0246500Y0036975D01*
X0245500Y0036975D01*
X0246500Y0036975D02*
X0246500Y0033975D01*
X0266500Y0033975D01*
X0266500Y0036975D01*
X0267500Y0036975D01*
X0266500Y0036975D02*
X0266500Y0039975D01*
X0264000Y0016975D02*
X0259000Y0016975D01*
X0256500Y0014475D01*
X0254000Y0016975D01*
X0249000Y0016975D01*
X0246500Y0014475D01*
X0244000Y0016975D01*
X0239000Y0016975D01*
X0236500Y0014475D01*
X0234000Y0016975D01*
X0229000Y0016975D01*
X0226500Y0014475D01*
X0224000Y0016975D01*
X0219000Y0016975D01*
X0216500Y0014475D01*
X0214000Y0016975D01*
X0209000Y0016975D01*
X0206500Y0014475D01*
X0204000Y0016975D01*
X0199000Y0016975D01*
X0196500Y0014475D01*
X0194000Y0016975D01*
X0189000Y0016975D01*
X0186500Y0014475D01*
X0184000Y0016975D01*
X0179000Y0016975D01*
X0176500Y0014475D01*
X0174000Y0016975D01*
X0169000Y0016975D01*
X0166500Y0014475D01*
X0166500Y0009475D01*
X0169000Y0006975D01*
X0174000Y0006975D01*
X0176500Y0009475D01*
X0179000Y0006975D01*
X0184000Y0006975D01*
X0186500Y0009475D01*
X0189000Y0006975D01*
X0194000Y0006975D01*
X0196500Y0009475D01*
X0199000Y0006975D01*
X0204000Y0006975D01*
X0206500Y0009475D01*
X0209000Y0006975D01*
X0214000Y0006975D01*
X0216500Y0009475D01*
X0219000Y0006975D01*
X0224000Y0006975D01*
X0226500Y0009475D01*
X0229000Y0006975D01*
X0234000Y0006975D01*
X0236500Y0009475D01*
X0239000Y0006975D01*
X0244000Y0006975D01*
X0246500Y0009475D01*
X0249000Y0006975D01*
X0254000Y0006975D01*
X0256500Y0009475D01*
X0259000Y0006975D01*
X0264000Y0006975D01*
X0266500Y0009475D01*
X0266500Y0014475D01*
X0264000Y0016975D01*
X0281500Y0014475D02*
X0296500Y0014475D01*
X0359000Y0090975D02*
X0359000Y0091975D01*
X0356000Y0091975D01*
X0356000Y0111975D01*
X0359000Y0111975D01*
X0359000Y0112975D01*
X0359000Y0111975D02*
X0362000Y0111975D01*
X0362000Y0091975D01*
X0359000Y0091975D01*
X0366000Y0091975D02*
X0366000Y0111975D01*
X0369000Y0111975D01*
X0369000Y0112975D01*
X0369000Y0111975D02*
X0372000Y0111975D01*
X0372000Y0091975D01*
X0369000Y0091975D01*
X0369000Y0090975D01*
X0369000Y0091975D02*
X0366000Y0091975D01*
X0381500Y0119475D02*
X0381500Y0124475D01*
D13*
X0083980Y0098687D02*
X0083980Y0080715D01*
X0083980Y0064967D02*
X0083980Y0046994D01*
X0083978Y0046896D01*
X0083972Y0046798D01*
X0083963Y0046700D01*
X0083949Y0046603D01*
X0083932Y0046506D01*
X0083911Y0046410D01*
X0083886Y0046315D01*
X0083858Y0046221D01*
X0083825Y0046129D01*
X0083790Y0046037D01*
X0083750Y0045947D01*
X0083708Y0045859D01*
X0083661Y0045772D01*
X0083612Y0045688D01*
X0083559Y0045605D01*
X0083503Y0045525D01*
X0083443Y0045446D01*
X0083381Y0045370D01*
X0083316Y0045297D01*
X0083248Y0045226D01*
X0083177Y0045158D01*
X0083104Y0045093D01*
X0083028Y0045031D01*
X0082949Y0044971D01*
X0082869Y0044915D01*
X0082786Y0044862D01*
X0082702Y0044813D01*
X0082615Y0044766D01*
X0082527Y0044724D01*
X0082437Y0044684D01*
X0082345Y0044649D01*
X0082253Y0044616D01*
X0082159Y0044588D01*
X0082064Y0044563D01*
X0081968Y0044542D01*
X0081871Y0044525D01*
X0081774Y0044511D01*
X0081676Y0044502D01*
X0081578Y0044496D01*
X0081480Y0044494D01*
X0075319Y0044494D01*
X0063508Y0044494D02*
X0055634Y0044494D01*
X0043823Y0044494D02*
X0037661Y0044494D01*
X0037563Y0044496D01*
X0037465Y0044502D01*
X0037367Y0044511D01*
X0037270Y0044525D01*
X0037173Y0044542D01*
X0037077Y0044563D01*
X0036982Y0044588D01*
X0036888Y0044616D01*
X0036796Y0044649D01*
X0036704Y0044684D01*
X0036614Y0044724D01*
X0036526Y0044766D01*
X0036439Y0044813D01*
X0036355Y0044862D01*
X0036272Y0044915D01*
X0036192Y0044971D01*
X0036113Y0045031D01*
X0036037Y0045093D01*
X0035964Y0045158D01*
X0035893Y0045226D01*
X0035825Y0045297D01*
X0035760Y0045370D01*
X0035698Y0045446D01*
X0035638Y0045525D01*
X0035582Y0045605D01*
X0035529Y0045688D01*
X0035480Y0045772D01*
X0035433Y0045859D01*
X0035391Y0045947D01*
X0035351Y0046037D01*
X0035316Y0046129D01*
X0035283Y0046221D01*
X0035255Y0046315D01*
X0035230Y0046410D01*
X0035209Y0046506D01*
X0035192Y0046603D01*
X0035178Y0046700D01*
X0035169Y0046798D01*
X0035163Y0046896D01*
X0035161Y0046994D01*
X0035161Y0064967D01*
X0035161Y0080715D02*
X0035161Y0098687D01*
X0035163Y0098785D01*
X0035169Y0098883D01*
X0035178Y0098981D01*
X0035192Y0099078D01*
X0035209Y0099175D01*
X0035230Y0099271D01*
X0035255Y0099366D01*
X0035283Y0099460D01*
X0035316Y0099552D01*
X0035351Y0099644D01*
X0035391Y0099734D01*
X0035433Y0099822D01*
X0035480Y0099909D01*
X0035529Y0099993D01*
X0035582Y0100076D01*
X0035638Y0100156D01*
X0035698Y0100235D01*
X0035760Y0100311D01*
X0035825Y0100384D01*
X0035893Y0100455D01*
X0035964Y0100523D01*
X0036037Y0100588D01*
X0036113Y0100650D01*
X0036192Y0100710D01*
X0036272Y0100766D01*
X0036355Y0100819D01*
X0036439Y0100868D01*
X0036526Y0100915D01*
X0036614Y0100957D01*
X0036704Y0100997D01*
X0036796Y0101032D01*
X0036888Y0101065D01*
X0036982Y0101093D01*
X0037077Y0101118D01*
X0037173Y0101139D01*
X0037270Y0101156D01*
X0037367Y0101170D01*
X0037465Y0101179D01*
X0037563Y0101185D01*
X0037661Y0101187D01*
X0043823Y0101187D01*
X0075319Y0101187D02*
X0081480Y0101187D01*
X0081578Y0101185D01*
X0081676Y0101179D01*
X0081774Y0101170D01*
X0081871Y0101156D01*
X0081968Y0101139D01*
X0082064Y0101118D01*
X0082159Y0101093D01*
X0082253Y0101065D01*
X0082345Y0101032D01*
X0082437Y0100997D01*
X0082527Y0100957D01*
X0082615Y0100915D01*
X0082702Y0100868D01*
X0082786Y0100819D01*
X0082869Y0100766D01*
X0082949Y0100710D01*
X0083028Y0100650D01*
X0083104Y0100588D01*
X0083177Y0100523D01*
X0083248Y0100455D01*
X0083316Y0100384D01*
X0083381Y0100311D01*
X0083443Y0100235D01*
X0083503Y0100156D01*
X0083559Y0100076D01*
X0083612Y0099993D01*
X0083661Y0099909D01*
X0083708Y0099822D01*
X0083750Y0099734D01*
X0083790Y0099644D01*
X0083825Y0099552D01*
X0083858Y0099460D01*
X0083886Y0099366D01*
X0083911Y0099271D01*
X0083932Y0099175D01*
X0083949Y0099078D01*
X0083963Y0098981D01*
X0083972Y0098883D01*
X0083978Y0098785D01*
X0083980Y0098687D01*
D14*
X0111550Y0122025D02*
X0111550Y0123526D01*
X0112301Y0123526D01*
X0112551Y0123276D01*
X0112551Y0122775D01*
X0112301Y0122525D01*
X0111550Y0122525D01*
X0112050Y0122525D02*
X0112551Y0122025D01*
X0113023Y0122025D02*
X0114024Y0123025D01*
X0114024Y0123276D01*
X0113774Y0123526D01*
X0113273Y0123526D01*
X0113023Y0123276D01*
X0113023Y0122025D02*
X0114024Y0122025D01*
X0236549Y0116302D02*
X0236549Y0115801D01*
X0236799Y0115551D01*
X0236799Y0115079D02*
X0237299Y0115079D01*
X0237550Y0114829D01*
X0237550Y0114078D01*
X0238050Y0114078D02*
X0236549Y0114078D01*
X0236549Y0114829D01*
X0236799Y0115079D01*
X0237550Y0114578D02*
X0238050Y0115079D01*
X0237800Y0115551D02*
X0238050Y0115801D01*
X0238050Y0116302D01*
X0237800Y0116552D01*
X0237550Y0116552D01*
X0237299Y0116302D01*
X0237299Y0116052D01*
X0237299Y0116302D02*
X0237049Y0116552D01*
X0236799Y0116552D01*
X0236549Y0116302D01*
X0352449Y0095722D02*
X0352699Y0095972D01*
X0352949Y0095972D01*
X0353199Y0095722D01*
X0353450Y0095972D01*
X0353700Y0095972D01*
X0353950Y0095722D01*
X0353950Y0095221D01*
X0353700Y0094971D01*
X0353950Y0094499D02*
X0353950Y0093498D01*
X0353950Y0093025D02*
X0353450Y0092525D01*
X0353450Y0092775D02*
X0353450Y0092025D01*
X0353950Y0092025D02*
X0352449Y0092025D01*
X0352449Y0092775D01*
X0352699Y0093025D01*
X0353199Y0093025D01*
X0353450Y0092775D01*
X0352949Y0093498D02*
X0352449Y0093998D01*
X0353950Y0093998D01*
X0352699Y0094971D02*
X0352449Y0095221D01*
X0352449Y0095722D01*
X0353199Y0095722D02*
X0353199Y0095471D01*
X0374049Y0107605D02*
X0374049Y0108355D01*
X0374299Y0108606D01*
X0374799Y0108606D01*
X0375050Y0108355D01*
X0375050Y0107605D01*
X0375550Y0107605D02*
X0374049Y0107605D01*
X0375050Y0108105D02*
X0375550Y0108606D01*
X0375550Y0109078D02*
X0375550Y0110079D01*
X0375550Y0110551D02*
X0374549Y0111552D01*
X0374299Y0111552D01*
X0374049Y0111302D01*
X0374049Y0110801D01*
X0374299Y0110551D01*
X0374049Y0109578D02*
X0375550Y0109578D01*
X0375550Y0110551D02*
X0375550Y0111552D01*
X0374049Y0109578D02*
X0374549Y0109078D01*
X0265827Y0031926D02*
X0265077Y0031175D01*
X0266078Y0031175D01*
X0265827Y0030425D02*
X0265827Y0031926D01*
X0264604Y0031676D02*
X0264604Y0031175D01*
X0264354Y0030925D01*
X0263603Y0030925D01*
X0263603Y0030425D02*
X0263603Y0031926D01*
X0264354Y0031926D01*
X0264604Y0031676D01*
X0264104Y0030925D02*
X0264604Y0030425D01*
X0296809Y0014146D02*
X0296269Y0014866D01*
X0296270Y0014865D02*
X0296503Y0015046D01*
X0296731Y0015232D01*
X0296955Y0015424D01*
X0297174Y0015621D01*
X0297388Y0015823D01*
X0297597Y0016031D01*
X0297800Y0016244D01*
X0297999Y0016461D01*
X0298192Y0016684D01*
X0298380Y0016911D01*
X0298562Y0017142D01*
X0298739Y0017378D01*
X0298909Y0017619D01*
X0299074Y0017863D01*
X0299232Y0018111D01*
X0299385Y0018363D01*
X0299531Y0018619D01*
X0299671Y0018878D01*
X0299805Y0019141D01*
X0299932Y0019406D01*
X0300053Y0019675D01*
X0300167Y0019947D01*
X0300274Y0020221D01*
X0300375Y0020498D01*
X0300469Y0020777D01*
X0300556Y0021059D01*
X0300636Y0021342D01*
X0300709Y0021628D01*
X0300775Y0021915D01*
X0300834Y0022204D01*
X0300886Y0022494D01*
X0300931Y0022785D01*
X0300969Y0023077D01*
X0300999Y0023370D01*
X0301023Y0023664D01*
X0301039Y0023958D01*
X0301048Y0024252D01*
X0301050Y0024547D01*
X0301044Y0024842D01*
X0301032Y0025136D01*
X0301012Y0025430D01*
X0300985Y0025723D01*
X0300951Y0026016D01*
X0300910Y0026308D01*
X0300861Y0026598D01*
X0300806Y0026888D01*
X0300744Y0027175D01*
X0300674Y0027462D01*
X0300597Y0027746D01*
X0300514Y0028029D01*
X0300424Y0028309D01*
X0300327Y0028587D01*
X0300223Y0028863D01*
X0300112Y0029136D01*
X0299995Y0029406D01*
X0299871Y0029674D01*
X0299741Y0029938D01*
X0299604Y0030199D01*
X0299461Y0030456D01*
X0299311Y0030710D01*
X0299156Y0030961D01*
X0298994Y0031207D01*
X0298827Y0031449D01*
X0298653Y0031687D01*
X0298474Y0031921D01*
X0298289Y0032151D01*
X0298099Y0032375D01*
X0297903Y0032596D01*
X0297702Y0032811D01*
X0297495Y0033021D01*
X0297284Y0033226D01*
X0297067Y0033426D01*
X0296846Y0033621D01*
X0296620Y0033810D01*
X0296390Y0033993D01*
X0296155Y0034171D01*
X0295915Y0034343D01*
X0295672Y0034509D01*
X0295425Y0034669D01*
X0295174Y0034823D01*
X0294919Y0034971D01*
X0294660Y0035113D01*
X0294399Y0035248D01*
X0294134Y0035377D01*
X0293866Y0035499D01*
X0293595Y0035615D01*
X0293321Y0035724D01*
X0293045Y0035826D01*
X0292766Y0035921D01*
X0292485Y0036010D01*
X0292202Y0036092D01*
X0291917Y0036167D01*
X0291630Y0036234D01*
X0291342Y0036295D01*
X0291052Y0036349D01*
X0290761Y0036396D01*
X0290469Y0036435D01*
X0290177Y0036467D01*
X0289883Y0036493D01*
X0289589Y0036511D01*
X0289295Y0036521D01*
X0289000Y0036525D01*
X0288705Y0036521D01*
X0288411Y0036511D01*
X0288117Y0036493D01*
X0287823Y0036467D01*
X0287531Y0036435D01*
X0287239Y0036396D01*
X0286948Y0036349D01*
X0286658Y0036295D01*
X0286370Y0036234D01*
X0286083Y0036167D01*
X0285798Y0036092D01*
X0285515Y0036010D01*
X0285234Y0035921D01*
X0284955Y0035826D01*
X0284679Y0035724D01*
X0284405Y0035615D01*
X0284134Y0035499D01*
X0283866Y0035377D01*
X0283601Y0035248D01*
X0283340Y0035113D01*
X0283081Y0034971D01*
X0282826Y0034823D01*
X0282575Y0034669D01*
X0282328Y0034509D01*
X0282085Y0034343D01*
X0281845Y0034171D01*
X0281610Y0033993D01*
X0281380Y0033810D01*
X0281154Y0033621D01*
X0280933Y0033426D01*
X0280716Y0033226D01*
X0280505Y0033021D01*
X0280298Y0032811D01*
X0280097Y0032596D01*
X0279901Y0032375D01*
X0279711Y0032151D01*
X0279526Y0031921D01*
X0279347Y0031687D01*
X0279173Y0031449D01*
X0279006Y0031207D01*
X0278844Y0030961D01*
X0278689Y0030710D01*
X0278539Y0030456D01*
X0278396Y0030199D01*
X0278259Y0029938D01*
X0278129Y0029674D01*
X0278005Y0029406D01*
X0277888Y0029136D01*
X0277777Y0028863D01*
X0277673Y0028587D01*
X0277576Y0028309D01*
X0277486Y0028029D01*
X0277403Y0027746D01*
X0277326Y0027462D01*
X0277256Y0027175D01*
X0277194Y0026888D01*
X0277139Y0026598D01*
X0277090Y0026308D01*
X0277049Y0026016D01*
X0277015Y0025723D01*
X0276988Y0025430D01*
X0276968Y0025136D01*
X0276956Y0024842D01*
X0276950Y0024547D01*
X0276952Y0024252D01*
X0276961Y0023958D01*
X0276977Y0023664D01*
X0277001Y0023370D01*
X0277031Y0023077D01*
X0277069Y0022785D01*
X0277114Y0022494D01*
X0277166Y0022204D01*
X0277225Y0021915D01*
X0277291Y0021628D01*
X0277364Y0021342D01*
X0277444Y0021059D01*
X0277531Y0020777D01*
X0277625Y0020498D01*
X0277726Y0020221D01*
X0277833Y0019947D01*
X0277947Y0019675D01*
X0278068Y0019406D01*
X0278195Y0019141D01*
X0278329Y0018878D01*
X0278469Y0018619D01*
X0278615Y0018363D01*
X0278768Y0018111D01*
X0278926Y0017863D01*
X0279091Y0017619D01*
X0279261Y0017378D01*
X0279438Y0017142D01*
X0279620Y0016911D01*
X0279808Y0016684D01*
X0280001Y0016461D01*
X0280200Y0016244D01*
X0280403Y0016031D01*
X0280612Y0015823D01*
X0280826Y0015621D01*
X0281045Y0015424D01*
X0281269Y0015232D01*
X0281497Y0015046D01*
X0281730Y0014865D01*
X0281191Y0014146D01*
X0281190Y0014145D01*
X0280940Y0014339D01*
X0280694Y0014539D01*
X0280454Y0014745D01*
X0280219Y0014957D01*
X0279989Y0015175D01*
X0279764Y0015398D01*
X0279545Y0015626D01*
X0279331Y0015860D01*
X0279123Y0016099D01*
X0278921Y0016343D01*
X0278726Y0016592D01*
X0278536Y0016846D01*
X0278353Y0017104D01*
X0278176Y0017366D01*
X0278005Y0017633D01*
X0277841Y0017904D01*
X0277684Y0018179D01*
X0277533Y0018457D01*
X0277389Y0018740D01*
X0277253Y0019025D01*
X0277123Y0019314D01*
X0277000Y0019606D01*
X0276885Y0019901D01*
X0276777Y0020198D01*
X0276676Y0020499D01*
X0276582Y0020801D01*
X0276496Y0021106D01*
X0276417Y0021413D01*
X0276346Y0021721D01*
X0276283Y0022031D01*
X0276227Y0022343D01*
X0276178Y0022656D01*
X0276138Y0022970D01*
X0276105Y0023285D01*
X0276080Y0023601D01*
X0276062Y0023917D01*
X0276052Y0024233D01*
X0276050Y0024550D01*
X0276056Y0024867D01*
X0276069Y0025183D01*
X0276091Y0025499D01*
X0276119Y0025814D01*
X0276156Y0026129D01*
X0276200Y0026442D01*
X0276252Y0026755D01*
X0276312Y0027066D01*
X0276379Y0027375D01*
X0276454Y0027683D01*
X0276536Y0027989D01*
X0276625Y0028292D01*
X0276722Y0028594D01*
X0276827Y0028893D01*
X0276939Y0029189D01*
X0277057Y0029483D01*
X0277183Y0029773D01*
X0277316Y0030060D01*
X0277457Y0030345D01*
X0277604Y0030625D01*
X0277757Y0030902D01*
X0277918Y0031175D01*
X0278085Y0031444D01*
X0278259Y0031709D01*
X0278439Y0031969D01*
X0278625Y0032225D01*
X0278818Y0032476D01*
X0279016Y0032723D01*
X0279221Y0032965D01*
X0279431Y0033201D01*
X0279648Y0033433D01*
X0279870Y0033658D01*
X0280097Y0033879D01*
X0280329Y0034094D01*
X0280567Y0034303D01*
X0280810Y0034506D01*
X0281058Y0034704D01*
X0281310Y0034895D01*
X0281567Y0035080D01*
X0281829Y0035258D01*
X0282095Y0035430D01*
X0282364Y0035596D01*
X0282638Y0035755D01*
X0282916Y0035907D01*
X0283197Y0036052D01*
X0283482Y0036191D01*
X0283770Y0036322D01*
X0284062Y0036446D01*
X0284356Y0036564D01*
X0284653Y0036674D01*
X0284952Y0036776D01*
X0285254Y0036871D01*
X0285558Y0036959D01*
X0285865Y0037040D01*
X0286173Y0037113D01*
X0286483Y0037178D01*
X0286794Y0037236D01*
X0287107Y0037286D01*
X0287421Y0037328D01*
X0287735Y0037363D01*
X0288051Y0037390D01*
X0288367Y0037410D01*
X0288683Y0037421D01*
X0289000Y0037425D01*
X0289317Y0037421D01*
X0289633Y0037410D01*
X0289949Y0037390D01*
X0290265Y0037363D01*
X0290579Y0037328D01*
X0290893Y0037286D01*
X0291206Y0037236D01*
X0291517Y0037178D01*
X0291827Y0037113D01*
X0292135Y0037040D01*
X0292442Y0036959D01*
X0292746Y0036871D01*
X0293048Y0036776D01*
X0293347Y0036674D01*
X0293644Y0036564D01*
X0293938Y0036446D01*
X0294230Y0036322D01*
X0294518Y0036191D01*
X0294803Y0036052D01*
X0295084Y0035907D01*
X0295362Y0035755D01*
X0295636Y0035596D01*
X0295905Y0035430D01*
X0296171Y0035258D01*
X0296433Y0035080D01*
X0296690Y0034895D01*
X0296942Y0034704D01*
X0297190Y0034506D01*
X0297433Y0034303D01*
X0297671Y0034094D01*
X0297903Y0033879D01*
X0298130Y0033658D01*
X0298352Y0033433D01*
X0298569Y0033201D01*
X0298779Y0032965D01*
X0298984Y0032723D01*
X0299182Y0032476D01*
X0299375Y0032225D01*
X0299561Y0031969D01*
X0299741Y0031709D01*
X0299915Y0031444D01*
X0300082Y0031175D01*
X0300243Y0030902D01*
X0300396Y0030625D01*
X0300543Y0030345D01*
X0300684Y0030060D01*
X0300817Y0029773D01*
X0300943Y0029483D01*
X0301061Y0029189D01*
X0301173Y0028893D01*
X0301278Y0028594D01*
X0301375Y0028292D01*
X0301464Y0027989D01*
X0301546Y0027683D01*
X0301621Y0027375D01*
X0301688Y0027066D01*
X0301748Y0026755D01*
X0301800Y0026442D01*
X0301844Y0026129D01*
X0301881Y0025814D01*
X0301909Y0025499D01*
X0301931Y0025183D01*
X0301944Y0024867D01*
X0301950Y0024550D01*
X0301948Y0024233D01*
X0301938Y0023917D01*
X0301920Y0023601D01*
X0301895Y0023285D01*
X0301862Y0022970D01*
X0301822Y0022656D01*
X0301773Y0022343D01*
X0301717Y0022031D01*
X0301654Y0021721D01*
X0301583Y0021413D01*
X0301504Y0021106D01*
X0301418Y0020801D01*
X0301324Y0020499D01*
X0301223Y0020198D01*
X0301115Y0019901D01*
X0301000Y0019606D01*
X0300877Y0019314D01*
X0300747Y0019025D01*
X0300611Y0018740D01*
X0300467Y0018457D01*
X0300316Y0018179D01*
X0300159Y0017904D01*
X0299995Y0017633D01*
X0299824Y0017366D01*
X0299647Y0017104D01*
X0299464Y0016846D01*
X0299274Y0016592D01*
X0299079Y0016343D01*
X0298877Y0016099D01*
X0298669Y0015860D01*
X0298455Y0015626D01*
X0298236Y0015398D01*
X0298011Y0015175D01*
X0297781Y0014957D01*
X0297546Y0014745D01*
X0297306Y0014539D01*
X0297060Y0014339D01*
X0296810Y0014145D01*
X0296754Y0014220D01*
X0297002Y0014413D01*
X0297246Y0014612D01*
X0297484Y0014816D01*
X0297718Y0015026D01*
X0297946Y0015242D01*
X0298169Y0015464D01*
X0298387Y0015691D01*
X0298599Y0015923D01*
X0298805Y0016160D01*
X0299006Y0016402D01*
X0299200Y0016650D01*
X0299388Y0016901D01*
X0299570Y0017158D01*
X0299746Y0017418D01*
X0299915Y0017683D01*
X0300078Y0017952D01*
X0300234Y0018225D01*
X0300384Y0018501D01*
X0300526Y0018781D01*
X0300662Y0019065D01*
X0300791Y0019352D01*
X0300913Y0019642D01*
X0301027Y0019934D01*
X0301135Y0020230D01*
X0301235Y0020528D01*
X0301328Y0020828D01*
X0301413Y0021131D01*
X0301491Y0021435D01*
X0301562Y0021741D01*
X0301625Y0022049D01*
X0301681Y0022359D01*
X0301729Y0022669D01*
X0301769Y0022981D01*
X0301802Y0023294D01*
X0301827Y0023607D01*
X0301844Y0023921D01*
X0301854Y0024235D01*
X0301856Y0024550D01*
X0301850Y0024864D01*
X0301837Y0025178D01*
X0301816Y0025492D01*
X0301787Y0025805D01*
X0301751Y0026117D01*
X0301707Y0026428D01*
X0301655Y0026738D01*
X0301596Y0027047D01*
X0301529Y0027354D01*
X0301455Y0027660D01*
X0301374Y0027963D01*
X0301285Y0028265D01*
X0301188Y0028564D01*
X0301085Y0028861D01*
X0300974Y0029155D01*
X0300856Y0029446D01*
X0300731Y0029735D01*
X0300599Y0030020D01*
X0300460Y0030302D01*
X0300314Y0030580D01*
X0300161Y0030855D01*
X0300002Y0031126D01*
X0299836Y0031393D01*
X0299663Y0031656D01*
X0299485Y0031915D01*
X0299300Y0032169D01*
X0299108Y0032418D01*
X0298911Y0032663D01*
X0298708Y0032903D01*
X0298499Y0033138D01*
X0298284Y0033368D01*
X0298064Y0033592D01*
X0297839Y0033811D01*
X0297608Y0034024D01*
X0297372Y0034232D01*
X0297130Y0034434D01*
X0296885Y0034629D01*
X0296634Y0034819D01*
X0296379Y0035003D01*
X0296119Y0035180D01*
X0295855Y0035351D01*
X0295587Y0035515D01*
X0295315Y0035673D01*
X0295040Y0035824D01*
X0294760Y0035968D01*
X0294478Y0036106D01*
X0294192Y0036236D01*
X0293903Y0036360D01*
X0293610Y0036476D01*
X0293316Y0036585D01*
X0293018Y0036687D01*
X0292719Y0036781D01*
X0292416Y0036869D01*
X0292112Y0036949D01*
X0291807Y0037021D01*
X0291499Y0037086D01*
X0291190Y0037143D01*
X0290879Y0037193D01*
X0290568Y0037235D01*
X0290255Y0037270D01*
X0289942Y0037296D01*
X0289628Y0037316D01*
X0289314Y0037327D01*
X0289000Y0037331D01*
X0288686Y0037327D01*
X0288372Y0037316D01*
X0288058Y0037296D01*
X0287745Y0037270D01*
X0287432Y0037235D01*
X0287121Y0037193D01*
X0286810Y0037143D01*
X0286501Y0037086D01*
X0286193Y0037021D01*
X0285888Y0036949D01*
X0285584Y0036869D01*
X0285281Y0036781D01*
X0284982Y0036687D01*
X0284684Y0036585D01*
X0284390Y0036476D01*
X0284097Y0036360D01*
X0283808Y0036236D01*
X0283522Y0036106D01*
X0283240Y0035968D01*
X0282960Y0035824D01*
X0282685Y0035673D01*
X0282413Y0035515D01*
X0282145Y0035351D01*
X0281881Y0035180D01*
X0281621Y0035003D01*
X0281366Y0034819D01*
X0281115Y0034629D01*
X0280870Y0034434D01*
X0280628Y0034232D01*
X0280392Y0034024D01*
X0280161Y0033811D01*
X0279936Y0033592D01*
X0279716Y0033368D01*
X0279501Y0033138D01*
X0279292Y0032903D01*
X0279089Y0032663D01*
X0278892Y0032418D01*
X0278700Y0032169D01*
X0278515Y0031915D01*
X0278337Y0031656D01*
X0278164Y0031393D01*
X0277998Y0031126D01*
X0277839Y0030855D01*
X0277686Y0030580D01*
X0277540Y0030302D01*
X0277401Y0030020D01*
X0277269Y0029735D01*
X0277144Y0029446D01*
X0277026Y0029155D01*
X0276915Y0028861D01*
X0276812Y0028564D01*
X0276715Y0028265D01*
X0276626Y0027963D01*
X0276545Y0027660D01*
X0276471Y0027354D01*
X0276404Y0027047D01*
X0276345Y0026738D01*
X0276293Y0026428D01*
X0276249Y0026117D01*
X0276213Y0025805D01*
X0276184Y0025492D01*
X0276163Y0025178D01*
X0276150Y0024864D01*
X0276144Y0024550D01*
X0276146Y0024235D01*
X0276156Y0023921D01*
X0276173Y0023607D01*
X0276198Y0023294D01*
X0276231Y0022981D01*
X0276271Y0022669D01*
X0276319Y0022359D01*
X0276375Y0022049D01*
X0276438Y0021741D01*
X0276509Y0021435D01*
X0276587Y0021131D01*
X0276672Y0020828D01*
X0276765Y0020528D01*
X0276865Y0020230D01*
X0276973Y0019934D01*
X0277087Y0019642D01*
X0277209Y0019352D01*
X0277338Y0019065D01*
X0277474Y0018781D01*
X0277616Y0018501D01*
X0277766Y0018225D01*
X0277922Y0017952D01*
X0278085Y0017683D01*
X0278254Y0017418D01*
X0278430Y0017158D01*
X0278612Y0016901D01*
X0278800Y0016650D01*
X0278994Y0016402D01*
X0279195Y0016160D01*
X0279401Y0015923D01*
X0279613Y0015691D01*
X0279831Y0015464D01*
X0280054Y0015242D01*
X0280282Y0015026D01*
X0280516Y0014816D01*
X0280754Y0014612D01*
X0280998Y0014413D01*
X0281246Y0014220D01*
X0281303Y0014295D01*
X0281056Y0014487D01*
X0280814Y0014684D01*
X0280577Y0014887D01*
X0280346Y0015096D01*
X0280119Y0015310D01*
X0279897Y0015530D01*
X0279681Y0015755D01*
X0279471Y0015986D01*
X0279266Y0016221D01*
X0279067Y0016462D01*
X0278874Y0016707D01*
X0278688Y0016957D01*
X0278507Y0017211D01*
X0278332Y0017470D01*
X0278164Y0017733D01*
X0278003Y0018000D01*
X0277848Y0018271D01*
X0277699Y0018545D01*
X0277558Y0018823D01*
X0277423Y0019105D01*
X0277295Y0019389D01*
X0277174Y0019677D01*
X0277060Y0019968D01*
X0276954Y0020261D01*
X0276854Y0020557D01*
X0276762Y0020855D01*
X0276677Y0021155D01*
X0276600Y0021458D01*
X0276530Y0021762D01*
X0276467Y0022067D01*
X0276412Y0022374D01*
X0276364Y0022683D01*
X0276324Y0022992D01*
X0276292Y0023303D01*
X0276267Y0023614D01*
X0276250Y0023925D01*
X0276240Y0024237D01*
X0276238Y0024549D01*
X0276244Y0024861D01*
X0276257Y0025173D01*
X0276278Y0025484D01*
X0276306Y0025795D01*
X0276343Y0026105D01*
X0276386Y0026414D01*
X0276437Y0026722D01*
X0276496Y0027029D01*
X0276562Y0027333D01*
X0276636Y0027637D01*
X0276717Y0027938D01*
X0276805Y0028237D01*
X0276901Y0028534D01*
X0277004Y0028829D01*
X0277114Y0029121D01*
X0277231Y0029410D01*
X0277355Y0029697D01*
X0277486Y0029980D01*
X0277624Y0030260D01*
X0277769Y0030536D01*
X0277921Y0030809D01*
X0278079Y0031078D01*
X0278244Y0031343D01*
X0278415Y0031604D01*
X0278592Y0031860D01*
X0278776Y0032113D01*
X0278966Y0032360D01*
X0279161Y0032603D01*
X0279363Y0032842D01*
X0279571Y0033075D01*
X0279784Y0033303D01*
X0280002Y0033525D01*
X0280226Y0033743D01*
X0280455Y0033954D01*
X0280690Y0034160D01*
X0280929Y0034361D01*
X0281173Y0034555D01*
X0281422Y0034743D01*
X0281675Y0034926D01*
X0281933Y0035102D01*
X0282195Y0035271D01*
X0282461Y0035434D01*
X0282731Y0035591D01*
X0283005Y0035741D01*
X0283282Y0035884D01*
X0283562Y0036021D01*
X0283846Y0036150D01*
X0284133Y0036273D01*
X0284423Y0036388D01*
X0284716Y0036496D01*
X0285011Y0036598D01*
X0285309Y0036692D01*
X0285609Y0036778D01*
X0285910Y0036857D01*
X0286214Y0036929D01*
X0286519Y0036994D01*
X0286826Y0037051D01*
X0287134Y0037100D01*
X0287444Y0037142D01*
X0287754Y0037176D01*
X0288065Y0037203D01*
X0288376Y0037222D01*
X0288688Y0037233D01*
X0289000Y0037237D01*
X0289312Y0037233D01*
X0289624Y0037222D01*
X0289935Y0037203D01*
X0290246Y0037176D01*
X0290556Y0037142D01*
X0290866Y0037100D01*
X0291174Y0037051D01*
X0291481Y0036994D01*
X0291786Y0036929D01*
X0292090Y0036857D01*
X0292391Y0036778D01*
X0292691Y0036692D01*
X0292989Y0036598D01*
X0293284Y0036496D01*
X0293577Y0036388D01*
X0293867Y0036273D01*
X0294154Y0036150D01*
X0294438Y0036021D01*
X0294718Y0035884D01*
X0294995Y0035741D01*
X0295269Y0035591D01*
X0295539Y0035434D01*
X0295805Y0035271D01*
X0296067Y0035102D01*
X0296325Y0034926D01*
X0296578Y0034743D01*
X0296827Y0034555D01*
X0297071Y0034361D01*
X0297310Y0034160D01*
X0297545Y0033954D01*
X0297774Y0033743D01*
X0297998Y0033525D01*
X0298216Y0033303D01*
X0298429Y0033075D01*
X0298637Y0032842D01*
X0298839Y0032603D01*
X0299034Y0032360D01*
X0299224Y0032113D01*
X0299408Y0031860D01*
X0299585Y0031604D01*
X0299756Y0031343D01*
X0299921Y0031078D01*
X0300079Y0030809D01*
X0300231Y0030536D01*
X0300376Y0030260D01*
X0300514Y0029980D01*
X0300645Y0029697D01*
X0300769Y0029410D01*
X0300886Y0029121D01*
X0300996Y0028829D01*
X0301099Y0028534D01*
X0301195Y0028237D01*
X0301283Y0027938D01*
X0301364Y0027637D01*
X0301438Y0027333D01*
X0301504Y0027029D01*
X0301563Y0026722D01*
X0301614Y0026414D01*
X0301657Y0026105D01*
X0301694Y0025795D01*
X0301722Y0025484D01*
X0301743Y0025173D01*
X0301756Y0024861D01*
X0301762Y0024549D01*
X0301760Y0024237D01*
X0301750Y0023925D01*
X0301733Y0023614D01*
X0301708Y0023303D01*
X0301676Y0022992D01*
X0301636Y0022683D01*
X0301588Y0022374D01*
X0301533Y0022067D01*
X0301470Y0021762D01*
X0301400Y0021458D01*
X0301323Y0021155D01*
X0301238Y0020855D01*
X0301146Y0020557D01*
X0301046Y0020261D01*
X0300940Y0019968D01*
X0300826Y0019677D01*
X0300705Y0019389D01*
X0300577Y0019105D01*
X0300442Y0018823D01*
X0300301Y0018545D01*
X0300152Y0018271D01*
X0299997Y0018000D01*
X0299836Y0017733D01*
X0299668Y0017470D01*
X0299493Y0017211D01*
X0299312Y0016957D01*
X0299126Y0016707D01*
X0298933Y0016462D01*
X0298734Y0016221D01*
X0298529Y0015986D01*
X0298319Y0015755D01*
X0298103Y0015530D01*
X0297881Y0015310D01*
X0297654Y0015096D01*
X0297423Y0014887D01*
X0297186Y0014684D01*
X0296944Y0014487D01*
X0296697Y0014295D01*
X0296641Y0014371D01*
X0296886Y0014561D01*
X0297126Y0014756D01*
X0297361Y0014958D01*
X0297591Y0015165D01*
X0297816Y0015378D01*
X0298036Y0015596D01*
X0298250Y0015820D01*
X0298459Y0016049D01*
X0298662Y0016282D01*
X0298860Y0016521D01*
X0299051Y0016764D01*
X0299237Y0017013D01*
X0299416Y0017265D01*
X0299589Y0017522D01*
X0299756Y0017783D01*
X0299917Y0018048D01*
X0300070Y0018317D01*
X0300218Y0018589D01*
X0300358Y0018865D01*
X0300492Y0019145D01*
X0300619Y0019427D01*
X0300739Y0019713D01*
X0300852Y0020001D01*
X0300958Y0020292D01*
X0301056Y0020586D01*
X0301148Y0020882D01*
X0301232Y0021180D01*
X0301309Y0021480D01*
X0301378Y0021782D01*
X0301441Y0022085D01*
X0301495Y0022390D01*
X0301543Y0022696D01*
X0301582Y0023004D01*
X0301614Y0023312D01*
X0301639Y0023620D01*
X0301656Y0023930D01*
X0301666Y0024239D01*
X0301668Y0024549D01*
X0301662Y0024859D01*
X0301649Y0025168D01*
X0301628Y0025477D01*
X0301600Y0025786D01*
X0301564Y0026093D01*
X0301521Y0026400D01*
X0301470Y0026706D01*
X0301412Y0027010D01*
X0301346Y0027313D01*
X0301273Y0027614D01*
X0301193Y0027913D01*
X0301105Y0028210D01*
X0301010Y0028505D01*
X0300908Y0028797D01*
X0300799Y0029087D01*
X0300682Y0029374D01*
X0300559Y0029658D01*
X0300429Y0029939D01*
X0300292Y0030217D01*
X0300148Y0030491D01*
X0299998Y0030762D01*
X0299841Y0031029D01*
X0299677Y0031292D01*
X0299507Y0031551D01*
X0299331Y0031806D01*
X0299149Y0032057D01*
X0298960Y0032302D01*
X0298766Y0032544D01*
X0298566Y0032780D01*
X0298360Y0033011D01*
X0298148Y0033238D01*
X0297931Y0033459D01*
X0297709Y0033674D01*
X0297482Y0033885D01*
X0297249Y0034089D01*
X0297011Y0034288D01*
X0296769Y0034481D01*
X0296522Y0034668D01*
X0296271Y0034849D01*
X0296015Y0035023D01*
X0295755Y0035192D01*
X0295491Y0035354D01*
X0295223Y0035509D01*
X0294951Y0035658D01*
X0294676Y0035800D01*
X0294397Y0035936D01*
X0294116Y0036064D01*
X0293831Y0036186D01*
X0293543Y0036300D01*
X0293252Y0036408D01*
X0292959Y0036508D01*
X0292664Y0036602D01*
X0292366Y0036688D01*
X0292067Y0036766D01*
X0291765Y0036837D01*
X0291462Y0036901D01*
X0291158Y0036958D01*
X0290852Y0037007D01*
X0290545Y0037048D01*
X0290237Y0037082D01*
X0289928Y0037109D01*
X0289619Y0037128D01*
X0289310Y0037139D01*
X0289000Y0037143D01*
X0288690Y0037139D01*
X0288381Y0037128D01*
X0288072Y0037109D01*
X0287763Y0037082D01*
X0287455Y0037048D01*
X0287148Y0037007D01*
X0286842Y0036958D01*
X0286538Y0036901D01*
X0286235Y0036837D01*
X0285933Y0036766D01*
X0285634Y0036688D01*
X0285336Y0036602D01*
X0285041Y0036508D01*
X0284748Y0036408D01*
X0284457Y0036300D01*
X0284169Y0036186D01*
X0283884Y0036064D01*
X0283603Y0035936D01*
X0283324Y0035800D01*
X0283049Y0035658D01*
X0282777Y0035509D01*
X0282509Y0035354D01*
X0282245Y0035192D01*
X0281985Y0035023D01*
X0281729Y0034849D01*
X0281478Y0034668D01*
X0281231Y0034481D01*
X0280989Y0034288D01*
X0280751Y0034089D01*
X0280518Y0033885D01*
X0280291Y0033674D01*
X0280069Y0033459D01*
X0279852Y0033238D01*
X0279640Y0033011D01*
X0279434Y0032780D01*
X0279234Y0032544D01*
X0279040Y0032302D01*
X0278851Y0032057D01*
X0278669Y0031806D01*
X0278493Y0031551D01*
X0278323Y0031292D01*
X0278159Y0031029D01*
X0278002Y0030762D01*
X0277852Y0030491D01*
X0277708Y0030217D01*
X0277571Y0029939D01*
X0277441Y0029658D01*
X0277318Y0029374D01*
X0277201Y0029087D01*
X0277092Y0028797D01*
X0276990Y0028505D01*
X0276895Y0028210D01*
X0276807Y0027913D01*
X0276727Y0027614D01*
X0276654Y0027313D01*
X0276588Y0027010D01*
X0276530Y0026706D01*
X0276479Y0026400D01*
X0276436Y0026093D01*
X0276400Y0025786D01*
X0276372Y0025477D01*
X0276351Y0025168D01*
X0276338Y0024859D01*
X0276332Y0024549D01*
X0276334Y0024239D01*
X0276344Y0023930D01*
X0276361Y0023620D01*
X0276386Y0023312D01*
X0276418Y0023004D01*
X0276457Y0022696D01*
X0276505Y0022390D01*
X0276559Y0022085D01*
X0276622Y0021782D01*
X0276691Y0021480D01*
X0276768Y0021180D01*
X0276852Y0020882D01*
X0276944Y0020586D01*
X0277042Y0020292D01*
X0277148Y0020001D01*
X0277261Y0019713D01*
X0277381Y0019427D01*
X0277508Y0019145D01*
X0277642Y0018865D01*
X0277782Y0018589D01*
X0277930Y0018317D01*
X0278083Y0018048D01*
X0278244Y0017783D01*
X0278411Y0017522D01*
X0278584Y0017265D01*
X0278763Y0017013D01*
X0278949Y0016764D01*
X0279140Y0016521D01*
X0279338Y0016282D01*
X0279541Y0016049D01*
X0279750Y0015820D01*
X0279964Y0015596D01*
X0280184Y0015378D01*
X0280409Y0015165D01*
X0280639Y0014958D01*
X0280874Y0014756D01*
X0281114Y0014561D01*
X0281359Y0014371D01*
X0281416Y0014446D01*
X0281173Y0014634D01*
X0280934Y0014829D01*
X0280701Y0015029D01*
X0280473Y0015234D01*
X0280249Y0015446D01*
X0280031Y0015662D01*
X0279818Y0015884D01*
X0279611Y0016111D01*
X0279409Y0016343D01*
X0279213Y0016580D01*
X0279023Y0016822D01*
X0278839Y0017068D01*
X0278661Y0017319D01*
X0278489Y0017574D01*
X0278324Y0017833D01*
X0278164Y0018096D01*
X0278012Y0018363D01*
X0277865Y0018633D01*
X0277726Y0018907D01*
X0277593Y0019184D01*
X0277467Y0019465D01*
X0277348Y0019748D01*
X0277236Y0020035D01*
X0277131Y0020324D01*
X0277033Y0020615D01*
X0276942Y0020909D01*
X0276859Y0021205D01*
X0276782Y0021502D01*
X0276713Y0021802D01*
X0276652Y0022103D01*
X0276597Y0022406D01*
X0276551Y0022710D01*
X0276511Y0023015D01*
X0276479Y0023320D01*
X0276455Y0023627D01*
X0276438Y0023934D01*
X0276428Y0024241D01*
X0276426Y0024549D01*
X0276432Y0024856D01*
X0276445Y0025163D01*
X0276465Y0025470D01*
X0276494Y0025776D01*
X0276529Y0026082D01*
X0276572Y0026386D01*
X0276623Y0026689D01*
X0276680Y0026991D01*
X0276746Y0027292D01*
X0276818Y0027591D01*
X0276898Y0027887D01*
X0276985Y0028182D01*
X0277079Y0028475D01*
X0277181Y0028765D01*
X0277289Y0029053D01*
X0277404Y0029338D01*
X0277527Y0029620D01*
X0277656Y0029899D01*
X0277792Y0030175D01*
X0277935Y0030447D01*
X0278084Y0030716D01*
X0278240Y0030981D01*
X0278402Y0031242D01*
X0278571Y0031499D01*
X0278746Y0031752D01*
X0278927Y0032000D01*
X0279114Y0032244D01*
X0279307Y0032484D01*
X0279505Y0032718D01*
X0279710Y0032948D01*
X0279920Y0033173D01*
X0280135Y0033392D01*
X0280356Y0033606D01*
X0280581Y0033815D01*
X0280812Y0034018D01*
X0281048Y0034215D01*
X0281289Y0034407D01*
X0281534Y0034592D01*
X0281783Y0034772D01*
X0282037Y0034945D01*
X0282295Y0035112D01*
X0282557Y0035273D01*
X0282823Y0035427D01*
X0283093Y0035575D01*
X0283366Y0035716D01*
X0283643Y0035851D01*
X0283922Y0035978D01*
X0284205Y0036099D01*
X0284491Y0036213D01*
X0284779Y0036319D01*
X0285070Y0036419D01*
X0285363Y0036512D01*
X0285659Y0036597D01*
X0285956Y0036675D01*
X0286255Y0036746D01*
X0286556Y0036809D01*
X0286858Y0036865D01*
X0287162Y0036914D01*
X0287467Y0036955D01*
X0287772Y0036989D01*
X0288078Y0037015D01*
X0288385Y0037034D01*
X0288693Y0037045D01*
X0289000Y0037049D01*
X0289307Y0037045D01*
X0289615Y0037034D01*
X0289922Y0037015D01*
X0290228Y0036989D01*
X0290533Y0036955D01*
X0290838Y0036914D01*
X0291142Y0036865D01*
X0291444Y0036809D01*
X0291745Y0036746D01*
X0292044Y0036675D01*
X0292341Y0036597D01*
X0292637Y0036512D01*
X0292930Y0036419D01*
X0293221Y0036319D01*
X0293509Y0036213D01*
X0293795Y0036099D01*
X0294078Y0035978D01*
X0294357Y0035851D01*
X0294634Y0035716D01*
X0294907Y0035575D01*
X0295177Y0035427D01*
X0295443Y0035273D01*
X0295705Y0035112D01*
X0295963Y0034945D01*
X0296217Y0034772D01*
X0296466Y0034592D01*
X0296711Y0034407D01*
X0296952Y0034215D01*
X0297188Y0034018D01*
X0297419Y0033815D01*
X0297644Y0033606D01*
X0297865Y0033392D01*
X0298080Y0033173D01*
X0298290Y0032948D01*
X0298495Y0032718D01*
X0298693Y0032484D01*
X0298886Y0032244D01*
X0299073Y0032000D01*
X0299254Y0031752D01*
X0299429Y0031499D01*
X0299598Y0031242D01*
X0299760Y0030981D01*
X0299916Y0030716D01*
X0300065Y0030447D01*
X0300208Y0030175D01*
X0300344Y0029899D01*
X0300473Y0029620D01*
X0300596Y0029338D01*
X0300711Y0029053D01*
X0300819Y0028765D01*
X0300921Y0028475D01*
X0301015Y0028182D01*
X0301102Y0027887D01*
X0301182Y0027591D01*
X0301254Y0027292D01*
X0301320Y0026991D01*
X0301377Y0026689D01*
X0301428Y0026386D01*
X0301471Y0026082D01*
X0301506Y0025776D01*
X0301535Y0025470D01*
X0301555Y0025163D01*
X0301568Y0024856D01*
X0301574Y0024549D01*
X0301572Y0024241D01*
X0301562Y0023934D01*
X0301545Y0023627D01*
X0301521Y0023320D01*
X0301489Y0023015D01*
X0301449Y0022710D01*
X0301403Y0022406D01*
X0301348Y0022103D01*
X0301287Y0021802D01*
X0301218Y0021502D01*
X0301141Y0021205D01*
X0301058Y0020909D01*
X0300967Y0020615D01*
X0300869Y0020324D01*
X0300764Y0020035D01*
X0300652Y0019748D01*
X0300533Y0019465D01*
X0300407Y0019184D01*
X0300274Y0018907D01*
X0300135Y0018633D01*
X0299988Y0018363D01*
X0299836Y0018096D01*
X0299676Y0017833D01*
X0299511Y0017574D01*
X0299339Y0017319D01*
X0299161Y0017068D01*
X0298977Y0016822D01*
X0298787Y0016580D01*
X0298591Y0016343D01*
X0298389Y0016111D01*
X0298182Y0015884D01*
X0297969Y0015662D01*
X0297751Y0015446D01*
X0297527Y0015234D01*
X0297299Y0015029D01*
X0297066Y0014829D01*
X0296827Y0014634D01*
X0296584Y0014446D01*
X0296528Y0014521D01*
X0296769Y0014708D01*
X0297006Y0014901D01*
X0297237Y0015100D01*
X0297464Y0015304D01*
X0297686Y0015513D01*
X0297902Y0015728D01*
X0298113Y0015949D01*
X0298319Y0016174D01*
X0298519Y0016404D01*
X0298714Y0016640D01*
X0298902Y0016879D01*
X0299085Y0017124D01*
X0299262Y0017373D01*
X0299432Y0017626D01*
X0299597Y0017883D01*
X0299755Y0018144D01*
X0299906Y0018409D01*
X0300051Y0018677D01*
X0300190Y0018949D01*
X0300322Y0019224D01*
X0300447Y0019503D01*
X0300565Y0019784D01*
X0300676Y0020068D01*
X0300780Y0020355D01*
X0300878Y0020644D01*
X0300968Y0020936D01*
X0301051Y0021229D01*
X0301126Y0021525D01*
X0301195Y0021822D01*
X0301256Y0022121D01*
X0301310Y0022422D01*
X0301356Y0022723D01*
X0301396Y0023026D01*
X0301427Y0023329D01*
X0301452Y0023634D01*
X0301468Y0023938D01*
X0301478Y0024243D01*
X0301480Y0024548D01*
X0301474Y0024853D01*
X0301461Y0025158D01*
X0301441Y0025463D01*
X0301413Y0025767D01*
X0301378Y0026070D01*
X0301335Y0026372D01*
X0301285Y0026673D01*
X0301228Y0026973D01*
X0301163Y0027271D01*
X0301091Y0027567D01*
X0301012Y0027862D01*
X0300925Y0028155D01*
X0300832Y0028445D01*
X0300731Y0028733D01*
X0300623Y0029019D01*
X0300509Y0029302D01*
X0300387Y0029582D01*
X0300259Y0029859D01*
X0300124Y0030132D01*
X0299983Y0030402D01*
X0299834Y0030669D01*
X0299680Y0030932D01*
X0299519Y0031191D01*
X0299351Y0031447D01*
X0299178Y0031698D01*
X0298998Y0031944D01*
X0298812Y0032186D01*
X0298621Y0032424D01*
X0298424Y0032657D01*
X0298221Y0032885D01*
X0298012Y0033108D01*
X0297799Y0033326D01*
X0297580Y0033538D01*
X0297356Y0033745D01*
X0297126Y0033947D01*
X0296892Y0034143D01*
X0296654Y0034333D01*
X0296410Y0034517D01*
X0296163Y0034695D01*
X0295911Y0034867D01*
X0295654Y0035033D01*
X0295394Y0035192D01*
X0295130Y0035346D01*
X0294863Y0035492D01*
X0294592Y0035632D01*
X0294317Y0035766D01*
X0294040Y0035892D01*
X0293759Y0036012D01*
X0293475Y0036125D01*
X0293189Y0036231D01*
X0292901Y0036330D01*
X0292610Y0036422D01*
X0292316Y0036506D01*
X0292021Y0036584D01*
X0291724Y0036654D01*
X0291426Y0036717D01*
X0291126Y0036773D01*
X0290824Y0036821D01*
X0290522Y0036862D01*
X0290219Y0036895D01*
X0289915Y0036921D01*
X0289610Y0036940D01*
X0289305Y0036951D01*
X0289000Y0036955D01*
X0288695Y0036951D01*
X0288390Y0036940D01*
X0288085Y0036921D01*
X0287781Y0036895D01*
X0287478Y0036862D01*
X0287176Y0036821D01*
X0286874Y0036773D01*
X0286574Y0036717D01*
X0286276Y0036654D01*
X0285979Y0036584D01*
X0285684Y0036506D01*
X0285390Y0036422D01*
X0285099Y0036330D01*
X0284811Y0036231D01*
X0284525Y0036125D01*
X0284241Y0036012D01*
X0283960Y0035892D01*
X0283683Y0035766D01*
X0283408Y0035632D01*
X0283137Y0035492D01*
X0282870Y0035346D01*
X0282606Y0035192D01*
X0282346Y0035033D01*
X0282089Y0034867D01*
X0281837Y0034695D01*
X0281590Y0034517D01*
X0281346Y0034333D01*
X0281108Y0034143D01*
X0280874Y0033947D01*
X0280644Y0033745D01*
X0280420Y0033538D01*
X0280201Y0033326D01*
X0279988Y0033108D01*
X0279779Y0032885D01*
X0279576Y0032657D01*
X0279379Y0032424D01*
X0279188Y0032186D01*
X0279002Y0031944D01*
X0278822Y0031698D01*
X0278649Y0031447D01*
X0278481Y0031191D01*
X0278320Y0030932D01*
X0278166Y0030669D01*
X0278017Y0030402D01*
X0277876Y0030132D01*
X0277741Y0029859D01*
X0277613Y0029582D01*
X0277491Y0029302D01*
X0277377Y0029019D01*
X0277269Y0028733D01*
X0277168Y0028445D01*
X0277075Y0028155D01*
X0276988Y0027862D01*
X0276909Y0027567D01*
X0276837Y0027271D01*
X0276772Y0026973D01*
X0276715Y0026673D01*
X0276665Y0026372D01*
X0276622Y0026070D01*
X0276587Y0025767D01*
X0276559Y0025463D01*
X0276539Y0025158D01*
X0276526Y0024853D01*
X0276520Y0024548D01*
X0276522Y0024243D01*
X0276532Y0023938D01*
X0276548Y0023634D01*
X0276573Y0023329D01*
X0276604Y0023026D01*
X0276644Y0022723D01*
X0276690Y0022422D01*
X0276744Y0022121D01*
X0276805Y0021822D01*
X0276874Y0021525D01*
X0276949Y0021229D01*
X0277032Y0020936D01*
X0277122Y0020644D01*
X0277220Y0020355D01*
X0277324Y0020068D01*
X0277435Y0019784D01*
X0277553Y0019503D01*
X0277678Y0019224D01*
X0277810Y0018949D01*
X0277949Y0018677D01*
X0278094Y0018409D01*
X0278245Y0018144D01*
X0278403Y0017883D01*
X0278568Y0017626D01*
X0278738Y0017373D01*
X0278915Y0017124D01*
X0279098Y0016879D01*
X0279286Y0016640D01*
X0279481Y0016404D01*
X0279681Y0016174D01*
X0279887Y0015949D01*
X0280098Y0015728D01*
X0280314Y0015513D01*
X0280536Y0015304D01*
X0280763Y0015100D01*
X0280994Y0014901D01*
X0281231Y0014708D01*
X0281472Y0014521D01*
X0281528Y0014596D01*
X0281289Y0014782D01*
X0281054Y0014973D01*
X0280825Y0015170D01*
X0280600Y0015373D01*
X0280379Y0015581D01*
X0280165Y0015795D01*
X0279955Y0016013D01*
X0279751Y0016237D01*
X0279552Y0016465D01*
X0279359Y0016699D01*
X0279172Y0016937D01*
X0278991Y0017179D01*
X0278815Y0017426D01*
X0278646Y0017677D01*
X0278483Y0017933D01*
X0278326Y0018192D01*
X0278176Y0018455D01*
X0278032Y0018721D01*
X0277894Y0018991D01*
X0277763Y0019264D01*
X0277639Y0019540D01*
X0277522Y0019820D01*
X0277412Y0020102D01*
X0277308Y0020386D01*
X0277212Y0020673D01*
X0277122Y0020963D01*
X0277040Y0021254D01*
X0276965Y0021547D01*
X0276897Y0021843D01*
X0276836Y0022139D01*
X0276783Y0022437D01*
X0276737Y0022737D01*
X0276698Y0023037D01*
X0276666Y0023338D01*
X0276642Y0023640D01*
X0276625Y0023943D01*
X0276616Y0024245D01*
X0276614Y0024548D01*
X0276620Y0024851D01*
X0276633Y0025153D01*
X0276653Y0025456D01*
X0276681Y0025757D01*
X0276716Y0026058D01*
X0276758Y0026358D01*
X0276808Y0026657D01*
X0276865Y0026954D01*
X0276929Y0027250D01*
X0277000Y0027544D01*
X0277079Y0027837D01*
X0277165Y0028127D01*
X0277258Y0028416D01*
X0277357Y0028701D01*
X0277464Y0028985D01*
X0277578Y0029265D01*
X0277698Y0029543D01*
X0277826Y0029818D01*
X0277960Y0030090D01*
X0278100Y0030358D01*
X0278247Y0030623D01*
X0278401Y0030884D01*
X0278561Y0031141D01*
X0278727Y0031394D01*
X0278899Y0031643D01*
X0279077Y0031888D01*
X0279262Y0032129D01*
X0279452Y0032364D01*
X0279647Y0032595D01*
X0279849Y0032822D01*
X0280055Y0033043D01*
X0280268Y0033259D01*
X0280485Y0033470D01*
X0280707Y0033675D01*
X0280935Y0033875D01*
X0281167Y0034070D01*
X0281404Y0034258D01*
X0281646Y0034441D01*
X0281891Y0034618D01*
X0282142Y0034789D01*
X0282396Y0034953D01*
X0282654Y0035112D01*
X0282916Y0035264D01*
X0283181Y0035409D01*
X0283450Y0035548D01*
X0283723Y0035681D01*
X0283998Y0035806D01*
X0284277Y0035925D01*
X0284558Y0036037D01*
X0284842Y0036142D01*
X0285129Y0036241D01*
X0285418Y0036332D01*
X0285709Y0036416D01*
X0286002Y0036493D01*
X0286296Y0036562D01*
X0286593Y0036625D01*
X0286890Y0036680D01*
X0287189Y0036728D01*
X0287489Y0036769D01*
X0287791Y0036802D01*
X0288092Y0036828D01*
X0288395Y0036846D01*
X0288697Y0036857D01*
X0289000Y0036861D01*
X0289303Y0036857D01*
X0289605Y0036846D01*
X0289908Y0036828D01*
X0290209Y0036802D01*
X0290511Y0036769D01*
X0290811Y0036728D01*
X0291110Y0036680D01*
X0291407Y0036625D01*
X0291704Y0036562D01*
X0291998Y0036493D01*
X0292291Y0036416D01*
X0292582Y0036332D01*
X0292871Y0036241D01*
X0293158Y0036142D01*
X0293442Y0036037D01*
X0293723Y0035925D01*
X0294002Y0035806D01*
X0294277Y0035681D01*
X0294550Y0035548D01*
X0294819Y0035409D01*
X0295084Y0035264D01*
X0295346Y0035112D01*
X0295604Y0034953D01*
X0295858Y0034789D01*
X0296109Y0034618D01*
X0296354Y0034441D01*
X0296596Y0034258D01*
X0296833Y0034070D01*
X0297065Y0033875D01*
X0297293Y0033675D01*
X0297515Y0033470D01*
X0297732Y0033259D01*
X0297945Y0033043D01*
X0298151Y0032822D01*
X0298353Y0032595D01*
X0298548Y0032364D01*
X0298738Y0032129D01*
X0298923Y0031888D01*
X0299101Y0031643D01*
X0299273Y0031394D01*
X0299439Y0031141D01*
X0299599Y0030884D01*
X0299753Y0030623D01*
X0299900Y0030358D01*
X0300040Y0030090D01*
X0300174Y0029818D01*
X0300302Y0029543D01*
X0300422Y0029265D01*
X0300536Y0028985D01*
X0300643Y0028701D01*
X0300742Y0028416D01*
X0300835Y0028127D01*
X0300921Y0027837D01*
X0301000Y0027544D01*
X0301071Y0027250D01*
X0301135Y0026954D01*
X0301192Y0026657D01*
X0301242Y0026358D01*
X0301284Y0026058D01*
X0301319Y0025757D01*
X0301347Y0025456D01*
X0301367Y0025153D01*
X0301380Y0024851D01*
X0301386Y0024548D01*
X0301384Y0024245D01*
X0301375Y0023943D01*
X0301358Y0023640D01*
X0301334Y0023338D01*
X0301302Y0023037D01*
X0301263Y0022737D01*
X0301217Y0022437D01*
X0301164Y0022139D01*
X0301103Y0021843D01*
X0301035Y0021547D01*
X0300960Y0021254D01*
X0300878Y0020963D01*
X0300788Y0020673D01*
X0300692Y0020386D01*
X0300588Y0020102D01*
X0300478Y0019820D01*
X0300361Y0019540D01*
X0300237Y0019264D01*
X0300106Y0018991D01*
X0299968Y0018721D01*
X0299824Y0018455D01*
X0299674Y0018192D01*
X0299517Y0017933D01*
X0299354Y0017677D01*
X0299185Y0017426D01*
X0299009Y0017179D01*
X0298828Y0016937D01*
X0298641Y0016699D01*
X0298448Y0016465D01*
X0298249Y0016237D01*
X0298045Y0016013D01*
X0297835Y0015795D01*
X0297621Y0015581D01*
X0297400Y0015373D01*
X0297175Y0015170D01*
X0296946Y0014973D01*
X0296711Y0014782D01*
X0296472Y0014596D01*
X0296415Y0014671D01*
X0296653Y0014856D01*
X0296885Y0015046D01*
X0297114Y0015241D01*
X0297337Y0015442D01*
X0297555Y0015649D01*
X0297769Y0015861D01*
X0297977Y0016078D01*
X0298179Y0016300D01*
X0298376Y0016527D01*
X0298568Y0016758D01*
X0298754Y0016994D01*
X0298934Y0017235D01*
X0299108Y0017480D01*
X0299276Y0017729D01*
X0299438Y0017983D01*
X0299593Y0018240D01*
X0299742Y0018501D01*
X0299885Y0018765D01*
X0300022Y0019033D01*
X0300151Y0019304D01*
X0300274Y0019578D01*
X0300391Y0019855D01*
X0300500Y0020135D01*
X0300603Y0020418D01*
X0300699Y0020702D01*
X0300787Y0020990D01*
X0300869Y0021279D01*
X0300944Y0021570D01*
X0301011Y0021863D01*
X0301072Y0022157D01*
X0301125Y0022453D01*
X0301170Y0022750D01*
X0301209Y0023048D01*
X0301240Y0023347D01*
X0301264Y0023647D01*
X0301281Y0023947D01*
X0301290Y0024247D01*
X0301292Y0024548D01*
X0301286Y0024848D01*
X0301274Y0025149D01*
X0301253Y0025448D01*
X0301226Y0025748D01*
X0301191Y0026046D01*
X0301149Y0026344D01*
X0301100Y0026640D01*
X0301043Y0026935D01*
X0300979Y0027229D01*
X0300909Y0027521D01*
X0300831Y0027811D01*
X0300745Y0028100D01*
X0300653Y0028386D01*
X0300554Y0028670D01*
X0300448Y0028951D01*
X0300335Y0029229D01*
X0300216Y0029505D01*
X0300089Y0029778D01*
X0299956Y0030047D01*
X0299817Y0030313D01*
X0299671Y0030576D01*
X0299519Y0030835D01*
X0299360Y0031091D01*
X0299195Y0031342D01*
X0299024Y0031589D01*
X0298847Y0031832D01*
X0298664Y0032071D01*
X0298476Y0032305D01*
X0298282Y0032534D01*
X0298082Y0032758D01*
X0297877Y0032978D01*
X0297666Y0033192D01*
X0297450Y0033402D01*
X0297230Y0033606D01*
X0297004Y0033804D01*
X0296773Y0033997D01*
X0296538Y0034184D01*
X0296299Y0034366D01*
X0296055Y0034541D01*
X0295806Y0034711D01*
X0295554Y0034874D01*
X0295298Y0035031D01*
X0295038Y0035182D01*
X0294774Y0035326D01*
X0294507Y0035464D01*
X0294237Y0035596D01*
X0293964Y0035720D01*
X0293687Y0035838D01*
X0293408Y0035949D01*
X0293126Y0036054D01*
X0292842Y0036151D01*
X0292555Y0036242D01*
X0292266Y0036325D01*
X0291976Y0036401D01*
X0291683Y0036471D01*
X0291389Y0036533D01*
X0291094Y0036587D01*
X0290797Y0036635D01*
X0290499Y0036675D01*
X0290200Y0036708D01*
X0289901Y0036734D01*
X0289601Y0036752D01*
X0289301Y0036763D01*
X0289000Y0036767D01*
X0288699Y0036763D01*
X0288399Y0036752D01*
X0288099Y0036734D01*
X0287800Y0036708D01*
X0287501Y0036675D01*
X0287203Y0036635D01*
X0286906Y0036587D01*
X0286611Y0036533D01*
X0286317Y0036471D01*
X0286024Y0036401D01*
X0285734Y0036325D01*
X0285445Y0036242D01*
X0285158Y0036151D01*
X0284874Y0036054D01*
X0284592Y0035949D01*
X0284313Y0035838D01*
X0284036Y0035720D01*
X0283763Y0035596D01*
X0283493Y0035464D01*
X0283226Y0035326D01*
X0282962Y0035182D01*
X0282702Y0035031D01*
X0282446Y0034874D01*
X0282194Y0034711D01*
X0281945Y0034541D01*
X0281701Y0034366D01*
X0281462Y0034184D01*
X0281227Y0033997D01*
X0280996Y0033804D01*
X0280770Y0033606D01*
X0280550Y0033402D01*
X0280334Y0033192D01*
X0280123Y0032978D01*
X0279918Y0032758D01*
X0279718Y0032534D01*
X0279524Y0032305D01*
X0279336Y0032071D01*
X0279153Y0031832D01*
X0278976Y0031589D01*
X0278805Y0031342D01*
X0278640Y0031091D01*
X0278481Y0030835D01*
X0278329Y0030576D01*
X0278183Y0030313D01*
X0278044Y0030047D01*
X0277911Y0029778D01*
X0277784Y0029505D01*
X0277665Y0029229D01*
X0277552Y0028951D01*
X0277446Y0028670D01*
X0277347Y0028386D01*
X0277255Y0028100D01*
X0277169Y0027811D01*
X0277091Y0027521D01*
X0277021Y0027229D01*
X0276957Y0026935D01*
X0276900Y0026640D01*
X0276851Y0026344D01*
X0276809Y0026046D01*
X0276774Y0025748D01*
X0276747Y0025448D01*
X0276726Y0025149D01*
X0276714Y0024848D01*
X0276708Y0024548D01*
X0276710Y0024247D01*
X0276719Y0023947D01*
X0276736Y0023647D01*
X0276760Y0023347D01*
X0276791Y0023048D01*
X0276830Y0022750D01*
X0276875Y0022453D01*
X0276928Y0022157D01*
X0276989Y0021863D01*
X0277056Y0021570D01*
X0277131Y0021279D01*
X0277213Y0020990D01*
X0277301Y0020702D01*
X0277397Y0020418D01*
X0277500Y0020135D01*
X0277609Y0019855D01*
X0277726Y0019578D01*
X0277849Y0019304D01*
X0277978Y0019033D01*
X0278115Y0018765D01*
X0278258Y0018501D01*
X0278407Y0018240D01*
X0278562Y0017983D01*
X0278724Y0017729D01*
X0278892Y0017480D01*
X0279066Y0017235D01*
X0279246Y0016994D01*
X0279432Y0016758D01*
X0279624Y0016527D01*
X0279821Y0016300D01*
X0280023Y0016078D01*
X0280231Y0015861D01*
X0280445Y0015649D01*
X0280663Y0015442D01*
X0280886Y0015241D01*
X0281115Y0015046D01*
X0281347Y0014856D01*
X0281585Y0014671D01*
X0281641Y0014747D01*
X0281406Y0014929D01*
X0281175Y0015118D01*
X0280948Y0015312D01*
X0280726Y0015512D01*
X0280510Y0015717D01*
X0280298Y0015927D01*
X0280092Y0016142D01*
X0279891Y0016362D01*
X0279695Y0016588D01*
X0279505Y0016817D01*
X0279321Y0017052D01*
X0279142Y0017291D01*
X0278969Y0017534D01*
X0278803Y0017781D01*
X0278642Y0018033D01*
X0278488Y0018288D01*
X0278340Y0018547D01*
X0278198Y0018809D01*
X0278063Y0019075D01*
X0277934Y0019344D01*
X0277812Y0019616D01*
X0277696Y0019891D01*
X0277587Y0020169D01*
X0277486Y0020449D01*
X0277391Y0020732D01*
X0277303Y0021017D01*
X0277222Y0021304D01*
X0277147Y0021592D01*
X0277081Y0021883D01*
X0277021Y0022175D01*
X0276968Y0022469D01*
X0276923Y0022764D01*
X0276884Y0023059D01*
X0276853Y0023356D01*
X0276830Y0023653D01*
X0276813Y0023951D01*
X0276804Y0024249D01*
X0276802Y0024547D01*
X0276808Y0024846D01*
X0276820Y0025144D01*
X0276840Y0025441D01*
X0276868Y0025738D01*
X0276902Y0026034D01*
X0276944Y0026330D01*
X0276993Y0026624D01*
X0277049Y0026917D01*
X0277112Y0027208D01*
X0277183Y0027498D01*
X0277260Y0027786D01*
X0277344Y0028072D01*
X0277436Y0028356D01*
X0277534Y0028638D01*
X0277639Y0028917D01*
X0277751Y0029193D01*
X0277870Y0029467D01*
X0277995Y0029737D01*
X0278127Y0030005D01*
X0278266Y0030269D01*
X0278411Y0030530D01*
X0278562Y0030787D01*
X0278719Y0031040D01*
X0278883Y0031289D01*
X0279053Y0031535D01*
X0279228Y0031776D01*
X0279410Y0032013D01*
X0279597Y0032245D01*
X0279789Y0032472D01*
X0279988Y0032695D01*
X0280191Y0032913D01*
X0280400Y0033126D01*
X0280614Y0033334D01*
X0280834Y0033536D01*
X0281057Y0033733D01*
X0281286Y0033924D01*
X0281520Y0034110D01*
X0281757Y0034290D01*
X0281999Y0034464D01*
X0282246Y0034632D01*
X0282496Y0034794D01*
X0282750Y0034950D01*
X0283008Y0035100D01*
X0283270Y0035243D01*
X0283535Y0035380D01*
X0283803Y0035511D01*
X0284074Y0035634D01*
X0284349Y0035751D01*
X0284626Y0035862D01*
X0284906Y0035965D01*
X0285188Y0036062D01*
X0285472Y0036152D01*
X0285759Y0036234D01*
X0286047Y0036310D01*
X0286337Y0036379D01*
X0286629Y0036440D01*
X0286922Y0036495D01*
X0287217Y0036542D01*
X0287512Y0036582D01*
X0287809Y0036615D01*
X0288106Y0036640D01*
X0288404Y0036658D01*
X0288702Y0036669D01*
X0289000Y0036673D01*
X0289298Y0036669D01*
X0289596Y0036658D01*
X0289894Y0036640D01*
X0290191Y0036615D01*
X0290488Y0036582D01*
X0290783Y0036542D01*
X0291078Y0036495D01*
X0291371Y0036440D01*
X0291663Y0036379D01*
X0291953Y0036310D01*
X0292241Y0036234D01*
X0292528Y0036152D01*
X0292812Y0036062D01*
X0293094Y0035965D01*
X0293374Y0035862D01*
X0293651Y0035751D01*
X0293926Y0035634D01*
X0294197Y0035511D01*
X0294465Y0035380D01*
X0294730Y0035243D01*
X0294992Y0035100D01*
X0295250Y0034950D01*
X0295504Y0034794D01*
X0295754Y0034632D01*
X0296001Y0034464D01*
X0296243Y0034290D01*
X0296480Y0034110D01*
X0296714Y0033924D01*
X0296943Y0033733D01*
X0297166Y0033536D01*
X0297386Y0033334D01*
X0297600Y0033126D01*
X0297809Y0032913D01*
X0298012Y0032695D01*
X0298211Y0032472D01*
X0298403Y0032245D01*
X0298590Y0032013D01*
X0298772Y0031776D01*
X0298947Y0031535D01*
X0299117Y0031289D01*
X0299281Y0031040D01*
X0299438Y0030787D01*
X0299589Y0030530D01*
X0299734Y0030269D01*
X0299873Y0030005D01*
X0300005Y0029737D01*
X0300130Y0029467D01*
X0300249Y0029193D01*
X0300361Y0028917D01*
X0300466Y0028638D01*
X0300564Y0028356D01*
X0300656Y0028072D01*
X0300740Y0027786D01*
X0300817Y0027498D01*
X0300888Y0027208D01*
X0300951Y0026917D01*
X0301007Y0026624D01*
X0301056Y0026330D01*
X0301098Y0026034D01*
X0301132Y0025738D01*
X0301160Y0025441D01*
X0301180Y0025144D01*
X0301192Y0024846D01*
X0301198Y0024547D01*
X0301196Y0024249D01*
X0301187Y0023951D01*
X0301170Y0023653D01*
X0301147Y0023356D01*
X0301116Y0023059D01*
X0301077Y0022764D01*
X0301032Y0022469D01*
X0300979Y0022175D01*
X0300919Y0021883D01*
X0300853Y0021592D01*
X0300778Y0021304D01*
X0300697Y0021017D01*
X0300609Y0020732D01*
X0300514Y0020449D01*
X0300413Y0020169D01*
X0300304Y0019891D01*
X0300188Y0019616D01*
X0300066Y0019344D01*
X0299937Y0019075D01*
X0299802Y0018809D01*
X0299660Y0018547D01*
X0299512Y0018288D01*
X0299358Y0018033D01*
X0299197Y0017781D01*
X0299031Y0017534D01*
X0298858Y0017291D01*
X0298679Y0017052D01*
X0298495Y0016817D01*
X0298305Y0016588D01*
X0298109Y0016362D01*
X0297908Y0016142D01*
X0297702Y0015927D01*
X0297490Y0015717D01*
X0297274Y0015512D01*
X0297052Y0015312D01*
X0296825Y0015118D01*
X0296594Y0014929D01*
X0296359Y0014747D01*
X0296302Y0014822D01*
X0296536Y0015003D01*
X0296765Y0015190D01*
X0296990Y0015383D01*
X0297210Y0015581D01*
X0297425Y0015784D01*
X0297635Y0015993D01*
X0297840Y0016207D01*
X0298039Y0016425D01*
X0298233Y0016649D01*
X0298422Y0016877D01*
X0298605Y0017109D01*
X0298782Y0017346D01*
X0298953Y0017588D01*
X0299119Y0017833D01*
X0299278Y0018082D01*
X0299431Y0018336D01*
X0299578Y0018592D01*
X0299719Y0018853D01*
X0299853Y0019117D01*
X0299981Y0019384D01*
X0300102Y0019654D01*
X0300217Y0019926D01*
X0300325Y0020202D01*
X0300426Y0020480D01*
X0300520Y0020761D01*
X0300607Y0021043D01*
X0300688Y0021328D01*
X0300761Y0021615D01*
X0300828Y0021903D01*
X0300887Y0022193D01*
X0300939Y0022485D01*
X0300984Y0022777D01*
X0301022Y0023071D01*
X0301053Y0023365D01*
X0301077Y0023660D01*
X0301093Y0023955D01*
X0301102Y0024251D01*
X0301104Y0024547D01*
X0301098Y0024843D01*
X0301086Y0025139D01*
X0301066Y0025434D01*
X0301039Y0025729D01*
X0301005Y0026023D01*
X0300963Y0026316D01*
X0300915Y0026608D01*
X0300859Y0026898D01*
X0300796Y0027187D01*
X0300726Y0027475D01*
X0300649Y0027761D01*
X0300566Y0028045D01*
X0300475Y0028326D01*
X0300377Y0028606D01*
X0300273Y0028883D01*
X0300162Y0029157D01*
X0300044Y0029428D01*
X0299920Y0029697D01*
X0299789Y0029962D01*
X0299651Y0030224D01*
X0299508Y0030483D01*
X0299358Y0030738D01*
X0299201Y0030990D01*
X0299039Y0031237D01*
X0298871Y0031480D01*
X0298696Y0031720D01*
X0298516Y0031955D01*
X0298331Y0032185D01*
X0298139Y0032411D01*
X0297943Y0032632D01*
X0297741Y0032848D01*
X0297533Y0033059D01*
X0297321Y0033265D01*
X0297103Y0033466D01*
X0296881Y0033662D01*
X0296654Y0033852D01*
X0296423Y0034036D01*
X0296187Y0034214D01*
X0295947Y0034387D01*
X0295702Y0034554D01*
X0295454Y0034715D01*
X0295201Y0034870D01*
X0294945Y0035018D01*
X0294686Y0035160D01*
X0294423Y0035296D01*
X0294157Y0035426D01*
X0293888Y0035548D01*
X0293615Y0035665D01*
X0293340Y0035774D01*
X0293063Y0035877D01*
X0292783Y0035973D01*
X0292501Y0036062D01*
X0292216Y0036144D01*
X0291930Y0036219D01*
X0291642Y0036287D01*
X0291353Y0036348D01*
X0291062Y0036402D01*
X0290769Y0036449D01*
X0290476Y0036489D01*
X0290182Y0036521D01*
X0289887Y0036546D01*
X0289592Y0036565D01*
X0289296Y0036575D01*
X0289000Y0036579D01*
X0288704Y0036575D01*
X0288408Y0036565D01*
X0288113Y0036546D01*
X0287818Y0036521D01*
X0287524Y0036489D01*
X0287231Y0036449D01*
X0286938Y0036402D01*
X0286647Y0036348D01*
X0286358Y0036287D01*
X0286070Y0036219D01*
X0285784Y0036144D01*
X0285499Y0036062D01*
X0285217Y0035973D01*
X0284937Y0035877D01*
X0284660Y0035774D01*
X0284385Y0035665D01*
X0284112Y0035548D01*
X0283843Y0035426D01*
X0283577Y0035296D01*
X0283314Y0035160D01*
X0283055Y0035018D01*
X0282799Y0034870D01*
X0282546Y0034715D01*
X0282298Y0034554D01*
X0282053Y0034387D01*
X0281813Y0034214D01*
X0281577Y0034036D01*
X0281346Y0033852D01*
X0281119Y0033662D01*
X0280897Y0033466D01*
X0280679Y0033265D01*
X0280467Y0033059D01*
X0280259Y0032848D01*
X0280057Y0032632D01*
X0279861Y0032411D01*
X0279669Y0032185D01*
X0279484Y0031955D01*
X0279304Y0031720D01*
X0279129Y0031480D01*
X0278961Y0031237D01*
X0278799Y0030990D01*
X0278642Y0030738D01*
X0278492Y0030483D01*
X0278349Y0030224D01*
X0278211Y0029962D01*
X0278080Y0029697D01*
X0277956Y0029428D01*
X0277838Y0029157D01*
X0277727Y0028883D01*
X0277623Y0028606D01*
X0277525Y0028326D01*
X0277434Y0028045D01*
X0277351Y0027761D01*
X0277274Y0027475D01*
X0277204Y0027187D01*
X0277141Y0026898D01*
X0277085Y0026608D01*
X0277037Y0026316D01*
X0276995Y0026023D01*
X0276961Y0025729D01*
X0276934Y0025434D01*
X0276914Y0025139D01*
X0276902Y0024843D01*
X0276896Y0024547D01*
X0276898Y0024251D01*
X0276907Y0023955D01*
X0276923Y0023660D01*
X0276947Y0023365D01*
X0276978Y0023071D01*
X0277016Y0022777D01*
X0277061Y0022485D01*
X0277113Y0022193D01*
X0277172Y0021903D01*
X0277239Y0021615D01*
X0277312Y0021328D01*
X0277393Y0021043D01*
X0277480Y0020761D01*
X0277574Y0020480D01*
X0277675Y0020202D01*
X0277783Y0019926D01*
X0277898Y0019654D01*
X0278019Y0019384D01*
X0278147Y0019117D01*
X0278281Y0018853D01*
X0278422Y0018592D01*
X0278569Y0018336D01*
X0278722Y0018082D01*
X0278881Y0017833D01*
X0279047Y0017588D01*
X0279218Y0017346D01*
X0279395Y0017109D01*
X0279578Y0016877D01*
X0279767Y0016649D01*
X0279961Y0016425D01*
X0280160Y0016207D01*
X0280365Y0015993D01*
X0280575Y0015784D01*
X0280790Y0015581D01*
X0281010Y0015383D01*
X0281235Y0015190D01*
X0281464Y0015003D01*
X0281698Y0014822D01*
X0116450Y0059525D02*
X0114949Y0059525D01*
X0114949Y0060275D01*
X0115199Y0060525D01*
X0115699Y0060525D01*
X0115950Y0060275D01*
X0115950Y0059525D01*
X0115950Y0060025D02*
X0116450Y0060525D01*
X0116450Y0060998D02*
X0116450Y0061999D01*
X0116450Y0061498D02*
X0114949Y0061498D01*
X0115449Y0060998D01*
D15*
X0121500Y0057975D02*
X0121626Y0057977D01*
X0121751Y0057983D01*
X0121876Y0057993D01*
X0122001Y0058007D01*
X0122126Y0058024D01*
X0122250Y0058046D01*
X0122373Y0058071D01*
X0122495Y0058101D01*
X0122616Y0058134D01*
X0122736Y0058171D01*
X0122855Y0058211D01*
X0122972Y0058256D01*
X0123089Y0058304D01*
X0123203Y0058356D01*
X0123316Y0058411D01*
X0123427Y0058470D01*
X0123536Y0058532D01*
X0123643Y0058598D01*
X0123748Y0058667D01*
X0123851Y0058739D01*
X0123952Y0058814D01*
X0124050Y0058893D01*
X0124145Y0058975D01*
X0124238Y0059059D01*
X0124328Y0059147D01*
X0124416Y0059237D01*
X0124500Y0059330D01*
X0124582Y0059425D01*
X0124661Y0059523D01*
X0124736Y0059624D01*
X0124808Y0059727D01*
X0124877Y0059832D01*
X0124943Y0059939D01*
X0125005Y0060048D01*
X0125064Y0060159D01*
X0125119Y0060272D01*
X0125171Y0060386D01*
X0125219Y0060503D01*
X0125264Y0060620D01*
X0125304Y0060739D01*
X0125341Y0060859D01*
X0125374Y0060980D01*
X0125404Y0061102D01*
X0125429Y0061225D01*
X0125451Y0061349D01*
X0125468Y0061474D01*
X0125482Y0061599D01*
X0125492Y0061724D01*
X0125498Y0061849D01*
X0125500Y0061975D01*
X0125498Y0062101D01*
X0125492Y0062226D01*
X0125482Y0062351D01*
X0125468Y0062476D01*
X0125451Y0062601D01*
X0125429Y0062725D01*
X0125404Y0062848D01*
X0125374Y0062970D01*
X0125341Y0063091D01*
X0125304Y0063211D01*
X0125264Y0063330D01*
X0125219Y0063447D01*
X0125171Y0063564D01*
X0125119Y0063678D01*
X0125064Y0063791D01*
X0125005Y0063902D01*
X0124943Y0064011D01*
X0124877Y0064118D01*
X0124808Y0064223D01*
X0124736Y0064326D01*
X0124661Y0064427D01*
X0124582Y0064525D01*
X0124500Y0064620D01*
X0124416Y0064713D01*
X0124328Y0064803D01*
X0124238Y0064891D01*
X0124145Y0064975D01*
X0124050Y0065057D01*
X0123952Y0065136D01*
X0123851Y0065211D01*
X0123748Y0065283D01*
X0123643Y0065352D01*
X0123536Y0065418D01*
X0123427Y0065480D01*
X0123316Y0065539D01*
X0123203Y0065594D01*
X0123089Y0065646D01*
X0122972Y0065694D01*
X0122855Y0065739D01*
X0122736Y0065779D01*
X0122616Y0065816D01*
X0122495Y0065849D01*
X0122373Y0065879D01*
X0122250Y0065904D01*
X0122126Y0065926D01*
X0122001Y0065943D01*
X0121876Y0065957D01*
X0121751Y0065967D01*
X0121626Y0065973D01*
X0121500Y0065975D01*
X0121500Y0073475D01*
X0261500Y0073475D01*
X0261500Y0050475D01*
X0121500Y0050475D01*
X0121500Y0057975D01*
X0279000Y0024475D02*
X0279003Y0024720D01*
X0279012Y0024966D01*
X0279027Y0025211D01*
X0279048Y0025455D01*
X0279075Y0025699D01*
X0279108Y0025942D01*
X0279147Y0026185D01*
X0279192Y0026426D01*
X0279243Y0026666D01*
X0279300Y0026905D01*
X0279362Y0027142D01*
X0279431Y0027378D01*
X0279505Y0027612D01*
X0279585Y0027844D01*
X0279670Y0028074D01*
X0279761Y0028302D01*
X0279858Y0028527D01*
X0279960Y0028751D01*
X0280068Y0028971D01*
X0280181Y0029189D01*
X0280299Y0029404D01*
X0280423Y0029616D01*
X0280551Y0029825D01*
X0280685Y0030031D01*
X0280824Y0030233D01*
X0280968Y0030432D01*
X0281117Y0030627D01*
X0281270Y0030819D01*
X0281428Y0031007D01*
X0281590Y0031191D01*
X0281758Y0031370D01*
X0281929Y0031546D01*
X0282105Y0031717D01*
X0282284Y0031885D01*
X0282468Y0032047D01*
X0282656Y0032205D01*
X0282848Y0032358D01*
X0283043Y0032507D01*
X0283242Y0032651D01*
X0283444Y0032790D01*
X0283650Y0032924D01*
X0283859Y0033052D01*
X0284071Y0033176D01*
X0284286Y0033294D01*
X0284504Y0033407D01*
X0284724Y0033515D01*
X0284948Y0033617D01*
X0285173Y0033714D01*
X0285401Y0033805D01*
X0285631Y0033890D01*
X0285863Y0033970D01*
X0286097Y0034044D01*
X0286333Y0034113D01*
X0286570Y0034175D01*
X0286809Y0034232D01*
X0287049Y0034283D01*
X0287290Y0034328D01*
X0287533Y0034367D01*
X0287776Y0034400D01*
X0288020Y0034427D01*
X0288264Y0034448D01*
X0288509Y0034463D01*
X0288755Y0034472D01*
X0289000Y0034475D01*
X0289245Y0034472D01*
X0289491Y0034463D01*
X0289736Y0034448D01*
X0289980Y0034427D01*
X0290224Y0034400D01*
X0290467Y0034367D01*
X0290710Y0034328D01*
X0290951Y0034283D01*
X0291191Y0034232D01*
X0291430Y0034175D01*
X0291667Y0034113D01*
X0291903Y0034044D01*
X0292137Y0033970D01*
X0292369Y0033890D01*
X0292599Y0033805D01*
X0292827Y0033714D01*
X0293052Y0033617D01*
X0293276Y0033515D01*
X0293496Y0033407D01*
X0293714Y0033294D01*
X0293929Y0033176D01*
X0294141Y0033052D01*
X0294350Y0032924D01*
X0294556Y0032790D01*
X0294758Y0032651D01*
X0294957Y0032507D01*
X0295152Y0032358D01*
X0295344Y0032205D01*
X0295532Y0032047D01*
X0295716Y0031885D01*
X0295895Y0031717D01*
X0296071Y0031546D01*
X0296242Y0031370D01*
X0296410Y0031191D01*
X0296572Y0031007D01*
X0296730Y0030819D01*
X0296883Y0030627D01*
X0297032Y0030432D01*
X0297176Y0030233D01*
X0297315Y0030031D01*
X0297449Y0029825D01*
X0297577Y0029616D01*
X0297701Y0029404D01*
X0297819Y0029189D01*
X0297932Y0028971D01*
X0298040Y0028751D01*
X0298142Y0028527D01*
X0298239Y0028302D01*
X0298330Y0028074D01*
X0298415Y0027844D01*
X0298495Y0027612D01*
X0298569Y0027378D01*
X0298638Y0027142D01*
X0298700Y0026905D01*
X0298757Y0026666D01*
X0298808Y0026426D01*
X0298853Y0026185D01*
X0298892Y0025942D01*
X0298925Y0025699D01*
X0298952Y0025455D01*
X0298973Y0025211D01*
X0298988Y0024966D01*
X0298997Y0024720D01*
X0299000Y0024475D01*
X0298997Y0024230D01*
X0298988Y0023984D01*
X0298973Y0023739D01*
X0298952Y0023495D01*
X0298925Y0023251D01*
X0298892Y0023008D01*
X0298853Y0022765D01*
X0298808Y0022524D01*
X0298757Y0022284D01*
X0298700Y0022045D01*
X0298638Y0021808D01*
X0298569Y0021572D01*
X0298495Y0021338D01*
X0298415Y0021106D01*
X0298330Y0020876D01*
X0298239Y0020648D01*
X0298142Y0020423D01*
X0298040Y0020199D01*
X0297932Y0019979D01*
X0297819Y0019761D01*
X0297701Y0019546D01*
X0297577Y0019334D01*
X0297449Y0019125D01*
X0297315Y0018919D01*
X0297176Y0018717D01*
X0297032Y0018518D01*
X0296883Y0018323D01*
X0296730Y0018131D01*
X0296572Y0017943D01*
X0296410Y0017759D01*
X0296242Y0017580D01*
X0296071Y0017404D01*
X0295895Y0017233D01*
X0295716Y0017065D01*
X0295532Y0016903D01*
X0295344Y0016745D01*
X0295152Y0016592D01*
X0294957Y0016443D01*
X0294758Y0016299D01*
X0294556Y0016160D01*
X0294350Y0016026D01*
X0294141Y0015898D01*
X0293929Y0015774D01*
X0293714Y0015656D01*
X0293496Y0015543D01*
X0293276Y0015435D01*
X0293052Y0015333D01*
X0292827Y0015236D01*
X0292599Y0015145D01*
X0292369Y0015060D01*
X0292137Y0014980D01*
X0291903Y0014906D01*
X0291667Y0014837D01*
X0291430Y0014775D01*
X0291191Y0014718D01*
X0290951Y0014667D01*
X0290710Y0014622D01*
X0290467Y0014583D01*
X0290224Y0014550D01*
X0289980Y0014523D01*
X0289736Y0014502D01*
X0289491Y0014487D01*
X0289245Y0014478D01*
X0289000Y0014475D01*
X0288755Y0014478D01*
X0288509Y0014487D01*
X0288264Y0014502D01*
X0288020Y0014523D01*
X0287776Y0014550D01*
X0287533Y0014583D01*
X0287290Y0014622D01*
X0287049Y0014667D01*
X0286809Y0014718D01*
X0286570Y0014775D01*
X0286333Y0014837D01*
X0286097Y0014906D01*
X0285863Y0014980D01*
X0285631Y0015060D01*
X0285401Y0015145D01*
X0285173Y0015236D01*
X0284948Y0015333D01*
X0284724Y0015435D01*
X0284504Y0015543D01*
X0284286Y0015656D01*
X0284071Y0015774D01*
X0283859Y0015898D01*
X0283650Y0016026D01*
X0283444Y0016160D01*
X0283242Y0016299D01*
X0283043Y0016443D01*
X0282848Y0016592D01*
X0282656Y0016745D01*
X0282468Y0016903D01*
X0282284Y0017065D01*
X0282105Y0017233D01*
X0281929Y0017404D01*
X0281758Y0017580D01*
X0281590Y0017759D01*
X0281428Y0017943D01*
X0281270Y0018131D01*
X0281117Y0018323D01*
X0280968Y0018518D01*
X0280824Y0018717D01*
X0280685Y0018919D01*
X0280551Y0019125D01*
X0280423Y0019334D01*
X0280299Y0019546D01*
X0280181Y0019761D01*
X0280068Y0019979D01*
X0279960Y0020199D01*
X0279858Y0020423D01*
X0279761Y0020648D01*
X0279670Y0020876D01*
X0279585Y0021106D01*
X0279505Y0021338D01*
X0279431Y0021572D01*
X0279362Y0021808D01*
X0279300Y0022045D01*
X0279243Y0022284D01*
X0279192Y0022524D01*
X0279147Y0022765D01*
X0279108Y0023008D01*
X0279075Y0023251D01*
X0279048Y0023495D01*
X0279027Y0023739D01*
X0279012Y0023984D01*
X0279003Y0024230D01*
X0279000Y0024475D01*
M02*
