%
M48
M72
T01C0.0236
T02C0.0276
T03C0.0320
T04C0.0354
T05C0.0394
T06C0.0400
T07C0.0866
T08C0.1102
%
T01
X8650Y10804
X8650Y11591
T02
X10650Y10447
X11650Y10447
X12650Y8697
X13650Y8697
X20650Y8697
X20650Y9697
X26900Y6697
X26900Y5697
X37650Y12197
X38650Y12197
T03
X25650Y7697
X24650Y7697
X23650Y7697
X22650Y7697
X21650Y7697
X20650Y7697
X19650Y7697
X18650Y7697
X17650Y7697
X16650Y7697
X15650Y7697
X14650Y7697
X13650Y7697
X12650Y7697
X12650Y4697
X13650Y4697
X14650Y4697
X15650Y4697
X16650Y4697
X17650Y4697
X18650Y4697
X19650Y4697
X20650Y4697
X21650Y4697
X22650Y4697
X23650Y4697
X24650Y4697
X25650Y4697
X28900Y2947
X28900Y1947
T04
X27650Y3697
X23650Y3697
X11650Y4697
X11650Y8697
X10150Y11697
X14150Y11697
X23150Y12697
X23150Y8697
X35900Y8197
X36900Y8197
X36900Y12197
X35900Y12197
T05
X6941Y10237
X5957Y10237
X4973Y10237
X4973Y4528
X6941Y4528
T06
X2150Y2197
X3150Y2197
X4150Y2197
X5150Y2197
X6150Y2197
X7150Y2197
X2150Y3697
X2150Y4697
X2150Y5697
X10650Y5697
X10650Y4697
X10650Y6697
X10650Y7697
X10650Y8697
X23339Y13386
X24339Y13386
X25339Y13386
X26339Y13386
X27339Y13386
X28339Y13386
X29339Y13386
X30339Y13386
X31339Y13386
X32339Y13386
X33339Y13386
X34339Y13386
X35339Y13386
X36339Y13386
X37339Y13386
X38339Y13386
X26150Y1197
X25150Y1197
X24150Y1197
X23150Y1197
X22150Y1197
X21150Y1197
X20150Y1197
X19150Y1197
X18150Y1197
X17150Y1197
T07
X8713Y7284
X3201Y7284
T08
X10977Y1182
X40504Y1182
X40504Y13386
X10977Y13386
M30
